<svg width="534" height="126" viewBox="0 0 534 126" fill="none" xmlns="http://www.w3.org/2000/svg">
<path d="M23.2684 70.2202C22.3846 70.462 21.7014 70.8529 21.2189 71.3927C21.0982 71.5277 20.983 71.7585 20.8731 72.0852C20.8235 72.3443 20.7703 72.5396 20.7136 72.671C20.5965 72.8699 20.5314 73.9953 20.5182 76.0472C20.569 78.0956 20.6412 80.5274 20.7349 83.3425C20.8286 86.1577 20.9614 89.0989 21.1333 92.1661C21.3016 95.1694 21.5443 97.7839 21.8614 100.01C22.157 101.852 22.7383 103.646 23.6054 105.392C24.5328 107.071 25.9374 108.114 27.8191 108.522C29.2321 108.571 30.5313 108.305 31.7167 107.726C32.9625 107.079 33.869 106.099 34.4364 104.785C35.0569 103.276 35.2585 101.727 35.0411 100.136C34.8841 98.4784 34.9206 96.8418 35.1505 95.2264C36.0523 95.3041 37.0445 95.2805 38.1272 95.1557C39.2739 95.0273 40.4223 94.9309 41.5725 94.8664C42.7226 94.802 43.8427 94.7712 44.9326 94.7742C46.0863 94.7737 47.1177 94.8761 48.0266 95.0816C49.2992 98.3435 49.7729 101.65 49.448 105.002C49.1195 108.289 48.166 111.291 46.5875 114.008C45.0091 116.724 42.8624 119.024 40.1476 120.907C37.493 122.722 34.4103 123.761 30.8994 124.021C28.6169 124.47 26.2526 124.602 23.8065 124.419C21.364 124.3 19.0615 123.82 16.8991 122.979C14.7331 122.075 12.8651 120.77 11.2951 119.063C9.78905 117.352 8.833 115.162 8.42697 112.493C8.17022 110.2 7.94006 107.809 7.73647 105.32C7.53288 102.832 7.31318 100.056 7.07736 96.9923C6.90185 93.8612 6.70486 90.3467 6.48637 86.4488C6.3282 82.4835 6.13601 77.911 5.90979 72.7316C5.7211 71.6525 5.69216 70.5644 5.82297 69.4673C6.0141 68.3028 6.2745 67.2306 6.60417 66.2506C7.08614 64.5569 7.70308 62.9839 8.45497 61.5316C9.27077 60.0757 10.2553 58.7705 11.4085 57.6162C12.0827 57.0656 12.8262 56.6072 13.639 56.2412C14.4482 55.8112 15.293 55.4434 16.1732 55.1376C19.0589 54.0144 21.9448 53.468 24.8311 53.4985C27.7173 53.529 30.4387 54.0496 32.9953 55.0601C35.6121 56.0031 37.9949 57.3438 40.1436 59.0823C42.2922 60.8208 44.0417 62.8701 45.3919 65.2302C46.7385 67.5265 47.6184 70.0732 48.0316 72.8705C48.4448 75.6677 48.2226 78.5647 47.3649 81.5614C45.0293 82.2051 42.7077 82.5276 40.4001 82.5287C38.1529 82.4624 35.8027 82.2736 33.3494 81.9624C33.0896 80.7591 32.8848 79.3924 32.735 77.8624C32.649 76.3288 32.4105 74.9319 32.0193 73.6718C31.6246 72.3479 30.9567 71.2956 30.0155 70.515C29.1383 69.7309 27.7749 69.4227 25.9254 69.5905C25.1018 69.7649 24.2162 69.9748 23.2684 70.2202ZM83.1948 81.8607C83.746 83.6887 84.1798 85.1387 84.4963 86.2107L93.5654 119.355L93.5708 119.451C91.6753 119.942 89.5738 120.188 87.2662 120.189C84.9623 120.254 82.7753 120.12 80.7055 119.787L80.6096 119.793C80.1689 118.792 79.7175 117.599 79.2553 116.215C78.857 114.827 78.4249 113.409 77.9592 111.961C77.5573 110.509 77.127 109.123 76.6684 107.803C76.2098 106.482 75.73 105.355 75.229 104.422C74.3911 104.341 73.7485 104.313 73.3012 104.338C72.8539 104.363 72.4386 104.386 72.0552 104.407C71.7357 104.425 71.3541 104.479 70.9104 104.568C70.527 104.589 69.9838 104.62 69.2809 104.659C68.8909 105.707 68.5756 106.942 68.3349 108.366C68.1545 109.722 67.9475 111.176 67.714 112.727C67.5408 114.211 67.3338 115.665 67.0931 117.089C66.8524 118.513 66.475 119.784 65.9608 120.902C65.8969 120.906 65.8348 120.941 65.7744 121.009C65.7744 121.009 65.7425 121.011 65.6786 121.014C65.1746 121.171 63.8966 121.242 61.8446 121.229C59.7927 121.216 56.5959 121.363 52.2543 121.671C52.1904 121.674 52.1247 121.646 52.0572 121.586C52.1599 121.131 52.3137 119.872 52.5186 117.81C52.7235 115.747 53.0222 113.07 53.4146 109.779C53.807 106.488 54.2684 102.712 54.7988 98.4518C55.3896 94.124 56.0937 89.5334 56.9114 84.68C57.7291 79.8267 58.6318 74.7762 59.6197 69.5287C60.6076 64.2812 61.7251 59.0585 62.9721 53.8605C63.4158 53.7716 63.8933 53.7128 64.4045 53.6841C64.9157 53.6554 65.5866 53.6178 66.4173 53.5713C67.248 53.5247 68.3024 53.4656 69.5804 53.394C70.9187 53.2549 72.6368 53.0304 74.7347 52.7205C74.973 53.5404 75.3322 54.8023 75.8123 56.5061C76.3527 58.1424 76.9075 60.0343 77.4765 62.1818C78.1059 64.2619 78.7443 66.5017 79.3916 68.9012C80.1028 71.2972 80.7767 73.5991 81.4132 75.8069C82.0498 78.0147 82.6437 80.0327 83.1948 81.8607ZM71.432 93.2889C72.6425 93.1569 73.8548 93.0569 75.0689 92.9889C74.1218 87.5293 73.3068 83.2803 72.6237 80.2417C72.0044 77.1996 71.4727 75.1462 71.0284 74.0814C70.648 73.013 70.284 72.809 69.9364 73.4695C69.6492 74.0625 69.3977 75.2945 69.1821 77.1655C69.0304 79.0329 68.8416 81.3832 68.6158 84.2163C68.4539 87.0458 68.2406 90.1025 67.976 93.3864C69.0659 93.3895 70.2179 93.3569 71.432 93.2889ZM106.144 50.9599C113.106 50.5056 119.897 50.4454 126.518 50.7794C126.764 52.8809 126.932 55.3073 127.022 58.0586C127.176 60.8063 127.158 63.3393 126.967 65.6576C125.739 65.47 124.232 65.4583 122.446 65.6225C120.661 65.7867 118.27 66.0169 115.274 66.313L115.082 66.3238L114.986 66.3291C114.99 66.393 114.961 66.4587 114.901 66.5262C114.901 66.5262 114.903 66.5582 114.906 66.6221C114.86 66.9451 114.825 67.4599 114.801 68.1664C114.837 68.8054 114.896 69.8597 114.978 71.3294C115.057 72.7352 115.162 74.6203 115.295 76.9846C115.488 79.2814 115.72 82.2811 115.992 85.9837C116.26 89.6224 116.571 94.0279 116.925 99.2002C117.275 104.309 117.71 110.342 118.228 117.3L118.233 117.395L118.239 117.491C117.099 117.747 115.828 117.947 114.426 118.09C113.084 118.165 111.71 118.242 110.305 118.321C108.963 118.396 107.621 118.471 106.279 118.546C104.937 118.621 103.696 118.787 102.557 119.043C102.479 118.791 102.414 117.641 102.363 115.593C102.313 113.544 102.175 110.507 101.949 106.482C101.784 102.389 101.46 97.1825 100.977 90.8636C100.559 84.5411 99.9071 76.9176 99.0223 67.9932L98.9211 67.9027C98.1328 67.5623 97.1617 67.3923 96.008 67.3929C94.8506 67.3296 93.6968 67.3302 92.5466 67.3946C91.3929 67.3952 90.3367 67.4223 89.3782 67.4761C88.4197 67.5298 87.7452 67.5035 87.3547 67.3972C87.2125 67.1488 87.0489 66.5169 86.8638 65.5017C86.7426 64.4829 86.6106 63.2724 86.4679 61.8702C86.3856 60.4005 86.2978 58.8349 86.2047 57.1735C86.1116 55.5121 86.0859 53.9111 86.1278 52.3703C86.1242 52.3064 86.0904 52.2763 86.0265 52.2798C86.0265 52.2798 86.0247 52.2479 86.0212 52.184C92.5353 51.7547 99.243 51.3467 106.144 50.9599ZM162.331 102.424C166.431 102.387 170.65 102.182 174.988 101.811L174.999 102.002C175.242 104.04 175.394 106.179 175.455 108.419C175.513 110.595 175.34 112.656 174.936 114.602C168.415 114.903 161.775 115.372 155.016 116.007C148.317 116.575 141.854 116.777 135.627 116.613C135.316 111.054 134.944 105.562 134.511 100.137C134.076 94.6492 133.673 89.1911 133.305 83.7633C132.937 78.3354 132.632 72.9039 132.392 67.4688C132.151 62.0338 132.037 56.5596 132.048 51.0463C134.533 50.7788 137.211 50.5325 140.083 50.3075C143.016 50.0149 145.95 49.7543 148.885 49.5256C151.821 49.297 154.661 49.0737 157.405 48.8558C160.149 48.6379 162.576 48.4698 164.684 48.3516C166.793 48.2334 168.488 48.1705 169.77 48.1627C171.051 48.155 171.694 48.1831 171.698 48.247C172.142 50.4655 172.334 52.7304 172.271 55.0415C172.272 57.3491 172.335 59.6211 172.461 61.8576L172.466 61.9535C170.446 62.5154 168.386 62.9193 166.284 63.1653C164.243 63.3438 162.168 63.4922 160.059 63.6104C157.947 63.6647 155.836 63.7509 153.728 63.8691C151.619 63.9873 149.516 64.2014 147.418 64.5113L147.13 64.5274L147.04 64.6286C147.208 66.4781 147.219 68.4005 147.075 70.3957C146.99 72.3234 147.22 74.1374 147.764 75.8376L147.865 75.9281C149.79 75.9485 151.742 75.9031 153.723 75.7921C155.704 75.681 157.687 75.602 159.671 75.5548L159.676 75.6507C160.118 77.8054 160.335 79.9726 160.329 82.1523C160.323 84.3321 160.418 86.6023 160.615 88.963C159.671 89.2723 158.593 89.493 157.383 89.6249C156.169 89.693 154.987 89.7593 153.836 89.8237C152.75 89.8846 151.761 89.9721 150.87 90.0861C149.979 90.2002 149.381 90.3939 149.076 90.6675C148.861 92.5385 148.849 94.6224 149.042 96.9192C149.299 99.2124 149.534 101.122 149.748 102.649L149.849 102.739C154.066 102.503 158.227 102.398 162.331 102.424ZM198.723 80.1926C198.723 80.1926 198.785 80.1571 198.909 80.086C199.711 79.5282 201.037 79.1655 202.886 78.9977C204.796 78.7625 206.807 78.6177 208.919 78.5634C211.032 78.5091 212.988 78.5276 214.788 78.6191C216.648 78.643 217.898 78.637 218.537 78.6012L218.728 78.5905L218.829 78.681C219.403 82.0461 219.861 85.6422 220.203 89.469C220.542 93.2319 220.489 96.8566 220.044 100.343C219.907 103.62 219.056 106.167 217.491 107.986C215.927 109.804 213.955 111.229 211.577 112.259C210.005 112.796 208.365 113.273 206.658 113.689C204.954 114.169 203.211 114.523 201.429 114.751C199.65 115.043 197.893 115.142 196.157 115.047C194.485 114.948 192.864 114.622 191.295 114.069C188.678 113.126 186.647 111.766 185.201 109.988C183.755 108.21 182.572 105.969 181.651 103.264C181.42 102.572 181.142 101.626 180.819 100.426C180.556 99.159 180.324 97.89 180.125 96.6192C179.818 94.5851 179.555 92.741 179.334 91.0868C179.113 89.4325 178.894 87.8102 178.676 86.2199C178.519 84.5621 178.359 82.8404 178.195 81.0548C178.091 79.2017 178.004 77.0912 177.936 74.7233C177.885 72.675 177.865 70.5929 177.874 68.477C177.88 66.2972 177.986 64.176 178.191 62.1133C178.392 59.9867 178.82 57.9115 179.476 55.8876C180.196 53.8602 181.446 52.1555 183.228 50.7736C184.445 49.6157 185.838 48.7364 187.407 48.1356C188.976 47.5349 190.615 47.0584 192.326 46.7061C195.816 46.0618 199.178 46.0015 202.412 46.5253C205.643 46.9853 208.457 48.0134 210.854 49.6097C213.251 51.2061 215.105 53.4098 216.417 56.2208C217.724 58.9679 218.264 62.3029 218.035 66.2259L217.972 66.8064C217.854 67.0052 217.572 67.1172 217.125 67.1423C216.678 67.1673 215.945 67.2405 214.926 67.3617C213.967 67.4154 213.138 67.4939 212.439 67.5972C211.8 67.633 211.129 67.6706 210.426 67.71C209.787 67.7459 209.115 67.7515 208.408 67.727C207.702 67.7025 206.866 67.6532 205.9 67.5792C205.672 66.9509 205.342 66.2002 204.908 65.3271C204.535 64.3865 204.039 63.549 203.421 62.8144C202.864 62.0124 202.217 61.3435 201.482 60.8078C200.743 60.2082 199.895 59.9352 198.936 59.989C197.846 59.986 196.79 60.0131 195.768 60.0704C194.745 60.1277 193.872 60.5613 193.148 61.3711C193.028 61.506 192.856 61.8682 192.632 62.4576C192.469 62.9796 192.338 63.4997 192.239 64.0181C191.878 65.5767 191.598 67.4513 191.401 69.6418C191.267 71.8287 191.206 74.1718 191.218 76.6711C191.226 79.1064 191.336 81.6323 191.546 84.2486C191.757 86.8649 192.025 89.3498 192.349 91.7033C192.555 93.102 192.897 94.6212 193.373 96.2611C193.85 97.901 194.722 99.1662 195.99 100.057C196.587 100.408 197.337 100.654 198.243 100.796C199.208 100.87 200.197 100.782 201.209 100.533C202.284 100.281 203.26 99.9696 204.137 99.6C204.822 99.2411 205.406 98.7917 205.888 98.2519C206.367 97.6481 206.71 96.8918 206.915 95.9829C206.965 95.7237 207.005 95.3047 207.037 94.7261C207.129 94.0799 207.157 93.4373 207.121 92.7983C207.149 92.1558 207.117 91.5807 207.024 91.073C206.996 90.5618 206.884 90.2797 206.689 90.2265C206.302 90.1841 205.758 90.2145 205.059 90.3178C204.42 90.3537 203.719 90.425 202.956 90.5319C202.253 90.5713 201.582 90.6089 200.943 90.6447C200.364 90.6131 199.912 90.5423 199.585 90.4324C199.4 89.4172 199.254 88.5279 199.147 87.7647C199.104 86.9979 199.063 86.2631 199.023 85.5602C199.044 84.7898 199.033 84.0212 198.99 83.2544C198.947 82.4876 198.83 81.5327 198.637 80.3897L198.632 80.2938C198.628 80.2299 198.659 80.1962 198.723 80.1926ZM258.082 47.4433C260.028 49.0008 261.447 50.8763 262.339 53.0698C262.84 54.0032 263.215 54.9758 263.464 55.9874C263.773 56.9316 264.021 57.9113 264.206 58.9265C264.423 60.5169 264.577 62.1108 264.666 63.7083C264.816 65.2383 264.904 66.8038 264.929 68.4049C264.927 71.8023 265.048 75.0967 265.291 78.2881C265.534 81.4795 265.621 84.7438 265.551 88.0809L265.441 91.2601C265.439 93.5037 265.215 95.7919 264.768 98.1245C264.319 100.393 263.571 102.486 262.524 104.404C261.524 105.998 260.156 107.325 258.421 108.384C256.745 109.375 254.932 110.182 252.979 110.804C251.219 111.416 249.416 111.837 247.57 112.069C245.788 112.297 243.967 112.399 242.106 112.375C240.757 112.323 239.437 112.204 238.144 112.02C236.919 111.897 235.718 111.611 234.539 111.165C233.424 110.714 232.398 110.131 231.46 109.414C230.519 108.634 229.725 107.621 229.078 106.375C228.094 104.827 227.392 103.168 226.972 101.397C226.613 99.5581 226.349 97.7139 226.181 95.8644C225.71 90.891 225.207 85.9194 224.672 80.9495C224.198 75.9122 223.979 70.8605 224.015 65.7945C223.918 62.9155 224.108 60.0203 224.586 57.109C225.124 54.1302 226.321 51.467 228.176 49.1195C228.78 48.4447 229.482 47.8284 230.284 47.2707C232.336 46.1301 234.563 45.2681 236.966 44.6847C239.429 44.0338 241.879 43.7042 244.314 43.6959C246.813 43.684 249.235 43.997 251.578 44.6348C253.982 45.2052 256.15 46.1413 258.082 47.4433ZM253.652 81.6328L253.394 77.032L252.837 70.525C252.833 70.4611 252.734 69.8256 252.538 68.6187C252.402 67.3443 252.272 66.1657 252.147 65.083C251.919 63.301 251.317 61.7002 250.34 60.2806C249.427 58.8575 248.216 57.8357 246.707 57.2152C245.4 56.7756 244.085 56.7532 242.761 57.1479C241.437 57.5426 240.285 58.152 239.306 58.9761C237.166 60.8268 235.788 63.1155 235.171 65.8423C234.796 68.2991 234.62 70.873 234.643 73.564C234.729 76.2513 234.912 78.9333 235.19 81.6099C235.635 83.8285 235.987 86.1164 236.248 88.4735C236.504 90.7667 237.011 92.9498 237.768 95.0227C238.479 96.2648 239.461 97.2033 240.715 97.8382C241.968 98.473 243.301 98.815 244.714 98.864C246.124 98.8491 247.519 98.5786 248.899 98.0525C250.277 97.4625 251.414 96.5975 252.312 95.4574C252.844 94.6584 253.225 94.0281 253.456 93.5665C253.682 93.0409 253.812 92.4888 253.843 91.9101C253.875 91.3315 253.838 90.6605 253.731 89.8973C253.684 89.0666 253.687 87.9767 253.74 86.6277C253.732 85.3461 253.701 84.2261 253.647 83.2676C253.658 82.3055 253.659 81.7606 253.652 81.6328ZM315.438 99.1303C316.98 101.48 318.304 103.938 319.409 106.504L319.505 106.498C317.269 106.624 314.782 106.859 312.045 107.205C309.304 107.487 306.491 107.612 303.605 107.582L303.509 107.587C302.788 106.153 301.89 104.441 300.817 102.45C299.744 100.459 298.57 98.3772 297.294 96.2052C296.019 94.0332 294.649 91.8985 293.185 89.8011C291.722 87.7037 290.272 85.8619 288.837 84.2758L288.629 83.999C288.52 85.4794 288.526 87.3059 288.648 89.4785C288.766 91.5872 288.922 93.7899 289.115 96.0868C289.368 98.3161 289.616 100.45 289.858 102.487C290.1 104.525 290.288 106.149 290.42 107.359C289.358 107.868 287.937 108.236 286.155 108.464C284.437 108.688 282.715 108.849 280.99 108.946C279.268 109.106 277.702 109.194 276.293 109.209C274.948 109.22 274.117 109.267 273.801 109.349C273.929 109.341 273.976 108.473 273.943 106.745C273.907 104.952 273.808 102.618 273.647 99.7421C273.486 96.8666 273.301 93.5758 273.094 89.8696C272.882 86.0995 272.634 82.2354 272.348 78.2772C272.122 74.2515 271.836 70.2933 271.49 66.4026C271.204 62.4444 270.938 58.8376 270.691 55.5823C270.441 52.2631 270.187 49.4569 269.931 47.1637C269.734 44.803 269.549 43.2109 269.375 42.3873C272.924 41.6756 276.827 40.976 281.083 40.2888C285.34 39.6015 289.814 39.3827 294.508 39.6324C298.289 39.6128 301.736 40.5093 304.85 42.3218C307.965 44.1344 310.435 46.4638 312.261 49.3101C314.087 52.1563 315.133 55.3668 315.397 58.9417C315.722 62.449 314.987 65.9195 313.192 69.3534C312.107 71.7218 310.585 73.7301 308.626 75.3783C306.731 77.023 304.256 78.0271 301.199 78.3907L300.816 78.4122L300.72 78.4176L300.725 78.5134C302.2 80.8025 303.802 83.0844 305.532 85.3591C307.259 87.57 308.955 89.8146 310.621 92.0929C312.287 94.3712 313.893 96.717 315.438 99.1303ZM290.654 53.2134C288.485 53.3991 286.307 54.0019 284.121 55.0219C284.231 55.849 284.317 56.8057 284.378 57.892C284.499 58.9108 284.59 59.9634 284.651 61.0497C284.712 62.1359 284.771 63.1903 284.828 64.2127C284.949 65.2315 285.094 66.0888 285.261 66.7845L285.357 66.7791C286.833 66.8246 288.436 66.8309 290.165 66.7981C291.894 66.7652 293.518 66.5781 295.037 66.2365C296.237 65.9129 297.13 65.2539 297.715 64.2596C298.361 63.1978 298.715 62.0882 298.778 60.9308C298.838 59.7096 298.644 58.5346 298.196 57.4059C297.745 56.2133 297.052 55.2906 296.118 54.6378C294.641 53.4387 292.819 52.9638 290.654 53.2134ZM328.164 38.7074C329.701 38.6854 331.906 38.5618 334.778 38.3367L337.078 38.2078L337.1 38.5912C337.408 44.0866 337.622 49.6192 337.742 55.1893C337.925 60.7557 338.111 66.3541 338.298 71.9844C338.546 77.5473 338.858 83.1066 339.233 88.6623C339.609 94.2179 340.108 99.7026 340.732 105.116C340.25 105.656 339.18 106.004 337.522 106.161C335.932 106.379 334.176 106.509 332.256 106.553C330.399 106.593 328.604 106.597 326.872 106.566C325.143 106.599 323.964 106.729 323.336 106.957C323.461 101.181 323.329 95.3869 322.939 89.5756C322.549 83.7643 322.099 78.0205 321.588 72.3442C321.138 66.6004 320.725 60.9506 320.35 55.3949C320.035 49.7717 320.014 44.2602 320.288 38.8604L320.278 38.6687C320.594 38.5869 321.202 38.5849 322.104 38.6625C323.066 38.6727 323.771 38.6652 324.218 38.6402C325.372 38.6396 326.687 38.662 328.164 38.7074ZM375.465 90.4774C379.565 90.4399 383.785 90.2354 388.123 89.8641L388.133 90.0558C388.376 92.0934 388.528 94.2322 388.589 96.4723C388.647 98.6485 388.474 100.709 388.07 102.655C381.549 102.956 374.909 103.425 368.15 104.06C361.451 104.628 354.988 104.83 348.761 104.666C348.45 99.1068 348.078 93.615 347.646 88.1907C347.21 82.7025 346.808 77.2445 346.439 71.8166C346.071 66.3887 345.766 60.9572 345.526 55.5221C345.285 50.0871 345.171 44.6129 345.182 39.0996C347.667 38.8321 350.346 38.5859 353.218 38.3608C356.15 38.0682 359.084 37.8076 362.02 37.579C364.955 37.3503 367.795 37.127 370.539 36.9091C373.284 36.6912 375.71 36.5231 377.819 36.4049C379.927 36.2867 381.623 36.2238 382.904 36.216C384.186 36.2083 384.828 36.2364 384.832 36.3003C385.277 38.5189 385.468 40.7837 385.405 43.0949C385.406 45.4024 385.469 47.6744 385.595 49.9109L385.6 50.0068C383.58 50.5687 381.52 50.9726 379.418 51.2186C377.377 51.3971 375.302 51.5455 373.193 51.6637C371.081 51.718 368.971 51.8042 366.862 51.9224C364.753 52.0406 362.65 52.2547 360.552 52.5646L360.264 52.5807L360.174 52.6819C360.342 54.5314 360.353 56.4538 360.209 58.449C360.125 60.3767 360.354 62.1907 360.898 63.8909L361 63.9814C362.924 64.0018 364.876 63.9564 366.857 63.8454C368.838 63.7344 370.821 63.6553 372.805 63.6081L372.811 63.704C373.252 65.8587 373.47 68.0259 373.463 70.2056C373.457 72.3854 373.553 74.6556 373.749 77.0163C372.805 77.3257 371.728 77.5463 370.517 77.6783C369.303 77.7463 368.121 77.8126 366.971 77.877C365.884 77.9379 364.896 78.0254 364.005 78.1394C363.114 78.2535 362.516 78.4473 362.21 78.7208C361.995 80.5918 361.983 82.6757 362.176 84.9725C362.433 87.2657 362.668 89.1755 362.882 90.702L362.983 90.7924C367.201 90.556 371.361 90.451 375.465 90.4774ZM430.637 43.0594C432.474 46.0974 433.079 50.0377 432.453 54.8803L432.357 54.8857C430.142 55.3944 427.76 55.7843 425.211 56.0554C422.659 56.2626 420.247 56.1094 417.974 55.5957C418.261 53.8489 417.829 52.4309 416.678 51.3416C415.527 50.2523 414.176 49.5909 412.625 49.3573C411.073 49.1238 409.581 49.3677 408.147 50.0891C406.777 50.8069 406.014 52.0675 405.859 53.8711C405.756 54.3255 405.717 54.7764 405.742 55.2237C405.828 55.6035 405.915 56.0153 406.004 56.459C406.601 57.9639 407.489 58.9398 408.668 59.3865C409.847 59.8332 411.113 60.1148 412.465 60.2313C415.873 60.4249 419.065 61.3357 422.041 62.9637C425.081 64.5881 427.604 66.7222 429.611 69.366C430.844 70.7713 431.796 72.3204 432.468 74.0135C433.136 75.6426 433.552 77.35 433.716 79.1356C433.945 80.9176 433.919 82.7459 433.639 84.6205C433.42 86.4276 432.974 88.1834 432.3 89.8877C431.644 91.9116 430.717 93.6623 429.518 95.1397C428.318 96.6171 426.913 97.8497 425.302 98.8374C423.755 99.8215 422.035 100.591 420.143 101.146C418.311 101.633 416.403 101.9 414.419 101.947C411.604 102.041 408.765 101.719 405.903 100.982C403.102 100.178 400.569 99.0059 398.303 97.4663C396.037 95.9266 394.199 94.0105 392.788 91.7178C391.374 89.3613 390.677 86.6441 390.697 83.5661L390.681 83.2786L390.665 82.991C392.883 82.5462 395.34 82.3444 398.034 82.3856C400.725 82.363 403.155 82.2588 405.324 82.0732C405.567 84.1108 406.451 85.5996 407.978 86.5396C409.569 87.4761 411.196 87.8977 412.857 87.8046C414.579 87.644 416.016 86.9865 417.169 85.8322C418.386 84.6742 418.741 82.9878 418.232 80.7728C417.954 79.2499 417.311 78.0681 416.302 77.2272C415.29 76.3224 414.097 75.6201 412.723 75.1202C411.413 74.6168 409.984 74.2802 408.436 74.1106C406.884 73.877 405.43 73.6701 404.074 73.4897C402.782 73.3057 401.576 72.9566 400.458 72.4424C399.339 71.9282 398.311 71.3128 397.374 70.5961C394.277 67.9493 392.186 64.9576 391.101 61.6211C390.081 58.281 389.865 54.9919 390.452 51.754C391.04 48.516 392.315 45.528 394.277 42.7899C396.302 40.0482 398.813 37.9524 401.808 36.5025C403.306 35.7775 404.976 35.2673 406.819 34.9717C408.657 34.6122 410.507 34.4445 412.367 34.4684C414.288 34.4249 416.155 34.5766 417.969 34.9236C419.848 35.267 421.573 35.7472 423.146 36.3641C426.303 37.7897 428.8 40.0215 430.637 43.0594Z" fill="#FF9100"/>
<path d="M29.1892 72.5136C29.2371 75.7772 29.4672 78.3661 29.8793 80.2803C30.2915 82.1944 31.1393 83.2701 32.423 83.5073L32.327 83.5087L33.1923 83.592C34.7921 83.5685 35.9713 83.2312 36.7298 82.58C37.4883 81.9288 37.9561 81.0898 38.133 80.0631C38.374 79.0354 38.5768 77.5923 38.7415 75.7337C38.8413 73.812 39.0395 72.0489 39.336 70.4444C40.6826 70.6166 41.9959 70.6934 43.2758 70.6746L47.7859 70.5124C50.2176 70.4767 52.1722 70.64 53.6497 71.0023C53.7824 71.3204 53.8506 71.6075 53.8543 71.8634C53.9212 72.0545 54.0209 72.309 54.1536 72.6271L55.5977 72.8939C56.5302 75.3765 57.0157 77.9297 57.0543 80.5534C57.12 85.0329 56.1219 88.984 54.0599 92.4066C52.0619 95.8283 49.2203 98.4623 45.535 100.309C41.8507 102.219 37.6407 103.209 32.9052 103.278C29.5776 103.327 26.3686 102.734 23.2781 101.499C20.1876 100.265 17.5691 98.4789 15.4226 96.1422C13.3391 93.7405 12.1139 90.9422 11.747 87.7473C11.3331 81.3526 11.0721 74.4757 10.964 67.1165L10.8444 52.4287C10.8943 51.4679 10.9042 49.9636 10.8742 47.9158L10.7627 46.8613C10.7307 44.6855 11.118 42.7276 11.9246 40.9876L11.926 41.0836C13.3377 36.9664 15.4684 33.8628 18.318 31.7728C21.2307 29.6178 25.1828 28.5036 30.1742 28.4304C34.5898 28.3655 38.8627 29.4869 42.993 31.7945C47.1233 34.1022 50.465 37.1894 53.018 41.0564C55.5701 44.8593 56.8772 48.8726 56.9392 53.0961C56.9758 55.5919 56.5029 58.2551 55.5203 61.0858C53.6711 61.561 51.6586 61.8146 49.4828 61.8465C46.6671 61.8879 43.4943 61.5824 39.9644 60.9301L39.7498 59.3971C38.8521 59.2823 38.3048 59.0663 38.1081 58.7492C37.9115 58.432 37.7746 57.826 37.6974 56.931C37.6833 55.9711 37.641 55.2676 37.5704 54.8206C37.4989 54.3096 37.4222 53.4467 37.3404 52.2317C37.3216 50.9519 37.0515 49.9957 36.5302 49.3633C36.0079 48.6669 35.1388 48.3276 33.923 48.3455C33.219 48.3558 32.421 48.4955 31.5289 48.7647C30.7007 49.0328 30.129 49.3293 29.8137 49.6539C29.6876 49.7838 29.5196 51.4184 29.3097 54.5579C29.0988 57.6333 29.0347 61.9867 29.1174 67.6181L29.1892 72.5136ZM32.3449 45.4883C34.0727 45.463 35.3591 45.8921 36.2042 46.7758C37.0483 47.5955 37.6073 48.6114 37.8811 49.8235C38.1549 51.0356 38.3709 52.6646 38.5289 54.7105C38.5345 55.0945 38.5745 55.638 38.6489 56.341C38.7232 57.0439 38.7961 57.6509 38.8676 58.162C41.6927 58.7605 44.5771 59.0382 47.5208 58.995C49.3126 58.9687 51.1016 58.7504 52.8877 58.3402C53.6868 56.0882 54.068 53.7143 54.0313 51.2186C53.9721 47.187 52.8298 43.4914 50.6042 40.1317C48.3786 36.772 45.4275 34.1271 41.7508 32.1968C38.138 30.2657 34.2839 29.3301 30.1883 29.3903C25.8368 29.4541 22.2028 30.4356 19.2864 32.3346C16.369 34.1696 14.2049 37.1777 12.7941 41.3589C12.0535 43.226 11.6953 44.9914 11.7198 46.6552C11.7282 47.2312 11.7659 47.6147 11.8327 47.8057C11.8618 49.7895 11.8514 51.2618 11.8015 52.2226L11.9239 67.1024C12.031 74.3976 12.2915 81.2426 12.7055 87.6372C13.1533 91.9831 15.153 95.2181 18.7046 97.3422C22.2561 99.4662 26.3357 100.494 30.9432 100.427C35.4227 100.361 39.4416 99.438 42.9998 97.6575C46.5571 95.8131 49.3042 93.2765 51.241 90.0478C53.2409 86.754 54.2093 82.9634 54.1464 78.6759C54.1107 76.2441 53.7254 73.9776 52.9904 71.8761C51.7699 71.574 50.1037 71.4384 47.9919 71.4694L42.9059 71.6401C42.202 71.6505 41.2731 71.6001 40.1194 71.489C39.8766 72.3887 39.7057 73.8313 39.6068 75.817C39.5061 77.6747 39.3047 79.2138 39.0026 80.4344C38.7635 81.59 38.1697 82.5588 37.221 83.3408C36.3364 84.1219 34.9662 84.5261 33.1104 84.5533C30.3587 84.5937 28.5142 83.2126 27.577 80.4101C26.7028 77.5426 26.2319 73.8051 26.1642 69.1976L26.1135 65.742C26.0252 59.7266 26.1185 55.1808 26.3933 52.1044C26.6682 49.028 26.9318 47.36 27.184 47.1003C27.6884 46.5808 28.4507 46.1856 29.4708 45.9146C30.4909 45.6436 31.449 45.5015 32.3449 45.4883ZM100.6 100.748C98.0472 101.234 96.0028 101.488 94.4669 101.51C91.5232 101.554 88.6389 101.276 85.8138 100.677C85.5465 99.9132 85.3155 99.4366 85.1207 99.2474C84.9259 99.0583 84.7 98.9336 84.4431 98.8733C84.1872 98.8771 83.9947 98.8479 83.8658 98.7858C83.3304 97.1935 82.5884 94.6121 81.6399 91.0416C81.0969 88.9374 80.6264 87.4081 80.2284 86.4538C79.8943 85.4986 79.5353 85.0239 79.1513 85.0295C78.6394 85.037 78.1919 85.0756 77.8089 85.1452C77.4889 85.1499 77.041 85.1565 76.465 85.165C76.0349 86.3874 75.6156 88.3458 75.2071 91.0401C74.7318 93.5433 74.313 95.5337 73.9507 97.0111C73.5883 98.4886 73.065 99.9045 72.3808 101.259C72.1889 101.261 71.9014 101.298 71.5183 101.367C71.1993 101.436 70.7838 101.474 70.2719 101.482C69.567 101.428 68.0947 101.418 65.855 101.45L61.726 101.415L56.6371 101.394L56.8969 99.4697L54.6892 99.5022L55.9287 92.3792C57.5683 81.986 59.3703 71.7504 61.3346 61.6725C63.2979 51.5306 65.8014 41.1247 68.8451 30.4549C69.9951 30.31 70.6661 30.2362 70.8581 30.2333C71.114 30.2296 71.9464 30.2494 73.3552 30.2927C74.764 30.336 77.7049 30.1008 82.1778 29.5871C82.4498 30.6712 82.6201 31.3728 82.6888 31.6918L84.1258 31.4787C84.7496 34.7339 86.8951 43.5354 90.5621 57.8831C91.919 63.1117 92.6318 65.8856 92.7005 66.2046L100.6 100.748ZM81.4254 30.6543C78.6135 30.9516 75.8316 31.1204 73.0799 31.1608L71.0641 31.1904C70.2962 31.2017 69.8168 31.2407 69.6257 31.3075C66.7053 41.6555 64.2926 51.708 62.3876 61.465C60.5466 71.2211 58.715 81.6171 56.8929 92.6531C56.7187 93.8718 56.5437 95.0264 56.3676 96.1172C56.1907 97.1439 56.0425 97.9461 55.9229 98.5239L56.1163 98.6171L58.4201 98.5833L66.0047 98.5679C66.6455 98.6225 67.4139 98.6433 68.3098 98.6301C69.0137 98.6198 69.4292 98.5817 69.5563 98.5158L69.8428 98.4156C70.4047 97.4472 70.8357 96.2888 71.136 94.9402C71.4362 93.5917 71.7619 91.7947 72.1129 89.5493C72.7003 85.9563 73.273 83.5476 73.831 82.3233C74.535 82.313 75.1109 82.3045 75.5589 82.2979C76.0059 82.2274 76.3574 82.1902 76.6133 82.1865L77.8612 82.1681L79.7838 82.3319C80.3127 83.4763 80.8481 85.0686 81.3901 87.1089C81.9961 89.1482 82.3669 90.4229 82.5024 90.933C83.1865 93.9312 83.8607 96.2576 84.525 97.912L84.621 97.9106C87.1252 98.4499 89.7532 98.6994 92.5049 98.659C94.1047 98.6355 95.7662 98.4511 97.4893 98.1057L97.4879 98.0097L89.7954 64.519L81.4254 30.6543ZM72.9928 71.0064C73.6771 65.2997 73.991 62.7028 73.9346 63.2157C74.3836 58.9207 74.754 55.8109 75.0457 53.8864C75.4006 51.897 75.77 50.8995 76.1539 50.8938C76.6019 50.8872 77.1039 52.384 77.66 55.3842C78.2801 58.3834 79.0921 63.5561 80.0961 70.9021L75.298 71.0686L72.9928 71.0064ZM77.5216 59.0346L76.1464 70L78.9301 69.9591L77.5216 59.0346ZM136.151 32.6351C136.311 34.809 136.403 36.7279 136.428 38.3917C136.471 41.3354 136.266 44.7948 135.812 48.7699C133.759 48.48 132.285 48.3416 131.389 48.3547C129.662 48.3801 127.295 48.5108 124.29 48.747L123.81 48.754C123.755 49.3309 123.748 51.0272 123.789 53.8429C123.878 59.9222 124.328 75.2773 125.137 99.9081C123.669 100.186 121.655 100.343 119.096 100.381L116.312 100.422C112.728 100.474 109.947 100.675 107.968 101.024C107.771 100.707 107.601 100.005 107.457 98.9195L106.02 99.1326C105.692 98.5614 105.514 97.3478 105.487 95.492L105.367 80.8042C105.233 71.6532 104.789 61.0346 104.035 48.9483C103.522 48.8919 102.722 48.8716 101.634 48.8876C101.25 48.8932 100.546 48.9036 99.5222 48.9186C98.5623 48.9327 97.6659 48.9138 96.8331 48.8621C96.0642 48.8093 95.326 48.6602 94.6183 48.4145C94.5524 48.2875 94.4856 48.0964 94.4178 47.8414C94.4141 47.5854 94.2828 47.3633 94.024 47.1751C93.7652 46.9869 93.314 46.7695 92.6703 46.5229C92.4717 46.0778 92.2629 44.9287 92.0436 43.0757C91.8884 41.2218 91.7948 39.207 91.7629 37.0312C91.7121 33.5756 91.708 31.1114 91.7503 29.6386C95.7819 29.5794 98.8211 29.5028 100.868 29.4087L110.082 29.1775C119.361 29.0412 127.109 29.2795 133.327 29.8923L134.203 30.7435L134.217 31.7034L135.275 31.7839L136.151 32.6351ZM92.7243 30.5844L92.8231 30.775C92.7074 31.6088 92.6612 32.8256 92.6847 34.4254C92.7871 41.4006 93.035 45.2054 93.4283 45.8397C93.7502 45.963 94.743 46.0124 96.4068 45.988C98.6466 45.9551 100.407 45.9933 101.689 46.1025C102.97 46.1477 104.062 46.3877 104.964 46.8225L105.061 46.9171C105.744 58.5563 106.169 70.0713 106.337 81.4621C106.409 86.3895 106.407 90.646 106.332 94.2315L106.374 97.1112L106.484 98.0697C107.634 97.8608 108.88 97.7465 110.224 97.7267L114.255 97.6676C118.031 97.6121 120.685 97.4452 122.217 97.1666L122.214 96.9747C121.405 72.4079 120.961 57.4048 120.881 51.9654L120.83 48.5097C120.812 47.2299 120.864 46.461 120.989 46.2032L121.08 45.9138L121.368 45.9096C124.693 45.6687 127.316 45.5342 129.235 45.506C130.771 45.4835 132.052 45.5607 133.079 45.7376C133.422 42.9163 133.569 39.8418 133.52 36.5142C133.5 35.1703 133.408 33.2835 133.245 30.8536C126.9 30.3067 119.184 30.0999 110.097 30.2333L92.7243 30.5844ZM182.475 85.8169C182.631 87.7348 182.717 89.2057 182.732 90.2296C182.777 93.3012 182.438 96.3785 181.715 99.4615C178.9 99.5028 174.677 99.6288 169.048 99.8395L156.57 100.119C150.875 100.202 145.561 100.088 140.628 99.7767L140.601 97.9529L138.68 97.8851C138.631 94.5574 138.542 90.6863 138.413 86.2717C138.284 81.8571 138.171 78.4984 138.073 76.1956C137.78 69.2872 137.582 62.3453 137.479 55.3701C137.361 47.307 137.495 38.9841 137.881 30.4015C142.869 30.0723 148.625 29.7957 155.151 29.5719C161.739 29.2832 167.177 29.1073 171.465 29.0444C176.52 28.9702 179.182 29.3151 179.449 30.0793C179.455 30.5272 179.556 30.8778 179.752 31.1309C180.011 31.3192 180.333 31.4744 180.719 31.5968C181.105 31.7191 181.331 31.8438 181.397 31.9709L181.395 31.8749C181.673 33.343 181.826 35.0369 181.854 36.9567C181.869 37.9806 181.828 39.5174 181.73 41.567C181.634 43.7447 181.594 45.4094 181.611 46.5613C178.359 47.3771 174.237 47.8217 169.245 47.895L165.79 47.9457L162.045 47.9047C160.061 47.9338 158.078 48.0589 156.097 48.28C156.112 49.2399 156.066 50.4887 155.96 52.0264L155.911 55.1955L155.924 56.0594L157.653 56.13L161.395 55.9791C161.715 55.9744 163.316 56.0469 166.199 56.1966C166.266 56.3876 166.334 56.7067 166.405 57.1537C166.474 57.5367 166.606 57.7908 166.8 57.916C167.058 58.0402 167.507 58.0976 168.147 58.0882C168.491 59.7473 168.68 61.6968 168.713 63.9365C168.742 65.9203 168.732 67.4246 168.683 68.4495L168.655 73.0584C166.742 73.5985 164.282 73.8906 161.275 73.9348C158.907 73.9696 157.468 74.0547 156.958 74.1902C156.78 75.1529 156.706 76.6262 156.735 78.6099C156.763 80.5297 156.815 81.9051 156.891 82.7361C164.576 83.0073 170.658 83.11 175.138 83.0443C176.674 83.0217 178.464 82.9314 180.51 82.7734L180.527 83.9253L180.636 84.7877C181.404 84.7765 182.011 84.7356 182.458 84.665L182.475 85.8169ZM179.566 83.8434C178.607 83.9214 177.232 83.9736 175.44 83.9999C173.84 84.0234 171.984 84.0187 169.871 83.9857C167.758 83.9527 166.126 83.9127 164.973 83.8656C161.514 83.7243 157.993 83.68 154.41 83.7326L154.312 83.638C154.033 82.042 153.871 79.7401 153.827 76.7324C153.797 74.6846 153.9 72.9869 154.136 71.6393C154.389 71.4436 154.963 71.3072 155.858 71.23C156.753 71.1529 157.745 71.1063 158.833 71.0903C162.16 71.0415 164.461 70.8157 165.735 70.4129L165.709 62.0604C165.676 59.8207 165.555 58.1583 165.347 57.0732L165.346 56.9772C163.618 57.0026 162.306 56.9898 161.409 56.939C157.889 56.9907 155.265 56.9652 153.535 56.8626L153.438 56.768C153.168 55.8118 153.022 54.5979 153 53.126C152.987 52.2301 153.032 50.9493 153.136 49.2836L153.177 45.5386L153.559 45.437C154.709 45.2921 155.956 45.2098 157.3 45.19C158.644 45.1703 159.54 45.1572 159.988 45.1506L167.571 45.0392C172.243 44.9707 175.949 44.5962 178.692 43.9159L178.69 43.8199L178.72 39.307C178.818 37.2573 178.86 35.7205 178.844 34.6967C178.823 33.2248 178.705 31.7224 178.49 30.1894C178.487 29.9974 176.15 29.9357 171.479 30.0043C161.496 30.1508 150.589 30.599 138.759 31.3487C138.466 37.5617 138.387 45.2437 138.521 54.3947C138.591 59.1302 138.758 66.1685 139.023 75.5096C139.32 82.61 139.521 89.7758 139.627 97.0071C143.407 97.2716 148.049 97.3635 153.552 97.2827C156.304 97.2423 160.559 97.1158 166.316 96.9033L178.986 96.6213C179.589 94.1161 179.869 91.3917 179.826 88.448C179.811 87.4242 179.725 85.9532 179.569 84.0353L179.566 83.8434ZM203.391 62.2753C203.583 62.2725 203.68 62.3351 203.681 62.463L203.871 62.2683C205.012 61.5474 207.599 61.1574 211.63 61.0982C214.062 61.0625 216.944 61.1482 220.275 61.3553L224.021 61.4924L225.175 61.5714C225.179 61.8914 225.252 62.4984 225.393 63.3924L227.123 63.4631C227.195 64.0381 227.381 65.7635 227.679 68.6395C227.977 71.5154 228.144 74.1372 228.178 76.505C228.239 80.6645 228.031 83.9319 227.554 86.3072L227.553 86.2112C227.055 91.5311 224.709 95.2779 220.517 97.4517C216.325 99.6895 211.19 100.853 205.111 100.942C200.887 101.004 197.16 100.003 193.929 97.938C190.763 95.8723 188.289 93.0603 186.509 89.5021C184.792 85.9429 183.902 81.9875 183.838 77.636C183.119 72.2699 182.722 66.9952 182.646 61.8118L182.57 56.6283C182.491 51.2529 182.838 46.6073 183.613 42.6915C184.451 38.7108 186.417 35.3216 189.512 32.5238C192.608 29.7261 197.259 28.2816 203.466 28.1905C207.69 28.1285 211.575 28.9676 215.121 30.7077C218.73 32.3829 221.613 34.8048 223.772 37.9735C225.93 41.0782 227.039 44.7103 227.1 48.8698C227.104 49.1258 227.114 49.7657 227.129 50.7896C227.144 51.8135 226.899 52.5852 226.395 53.1046C225.954 53.6231 225.19 53.8904 224.102 53.9064L220.454 53.9599C220.007 53.9665 219.175 54.0107 217.96 54.0925C216.808 54.1095 215.174 53.9734 213.058 53.6845C212.991 53.4934 212.923 53.2384 212.854 52.9194C212.786 52.6003 212.622 52.3787 212.365 52.2545C212.17 52.0653 211.751 51.9114 211.11 51.7929C210.574 50.2005 210.141 49.0548 209.811 48.3555C209.481 47.6563 208.928 47.0564 208.152 46.5557C207.377 46.055 206.285 45.815 204.878 45.8357C204.75 45.8376 204.366 45.8432 203.726 45.8526C203.086 45.862 202.578 46.1255 202.201 46.6431C201.888 47.0957 201.579 47.8683 201.275 48.9609C200.118 53.0103 199.597 58.9066 199.711 66.6498L199.771 70.7773C199.81 73.4011 199.971 75.6709 200.255 77.587C200.539 79.503 201.076 81.1593 201.864 82.5559L203.02 82.8269L202.924 82.8284C203.181 82.8886 203.598 82.9145 204.174 82.906C205.837 82.8816 207.273 82.5725 208.48 81.9787L208.385 81.9801C209.275 81.583 209.907 81.0617 210.282 80.4161C210.655 79.7065 210.988 78.3895 211.28 76.465L209.456 76.4918C207.856 76.5153 206.606 76.3736 205.705 76.0668C205.567 75.3648 205.401 74.9192 205.206 74.73C205.075 74.5399 204.849 74.4152 204.528 74.3559C204.271 74.2957 204.014 74.2354 203.757 74.1752C203.473 72.2592 203.316 70.2453 203.285 68.1335C203.241 65.1258 203.18 63.1745 203.103 62.2795L203.391 62.2753ZM204.08 63.4173C204.22 64.2473 204.295 65.0463 204.307 65.8142C204.318 66.5821 204.325 67.0621 204.328 67.2541L204.367 69.9418L204.386 71.1897C204.4 72.1496 204.475 72.9165 204.611 73.4906C204.741 73.6167 205.094 73.6755 205.67 73.6671L210.372 73.502L211.044 73.4922C211.428 73.4865 211.686 73.6108 211.818 73.8648C212.013 74.054 212.115 74.5005 212.125 75.2045C212.177 78.7241 211.475 81.0386 210.019 82.1481C208.563 83.2576 206.555 83.8312 203.996 83.8687C201.244 83.9091 199.368 82.5285 198.366 79.7269C197.365 76.9253 196.834 73.4448 196.773 69.2852L196.803 64.7723C196.734 60.1008 196.926 55.7455 197.379 51.7064C197.831 47.6033 198.498 45.0973 199.381 44.1882C199.885 43.6688 200.36 43.3417 200.807 43.2072C201.317 43.0717 201.988 42.9978 202.819 42.9856L205.221 43.0464C206.884 43.0219 208.241 43.8341 209.289 45.4829C210.401 47.1308 211.26 48.9423 211.865 50.9177C213.852 51.1445 215.518 51.2481 216.862 51.2284C221.47 51.1607 223.835 50.966 223.958 50.6441L224.046 50.0668C224.153 48.6571 224.202 47.6322 224.193 46.9923C224.108 41.2329 222.123 36.8136 218.237 33.7343C214.351 30.591 209.432 29.063 203.48 29.1504C197.465 29.2387 192.94 30.5853 189.906 33.1901C187.247 35.1494 185.468 38.2158 184.569 42.3894C183.733 46.4982 183.352 51.0802 183.426 56.1357L183.617 62.5656C183.721 69.6688 184.129 75.6475 184.84 80.5016C185.551 85.2917 187.308 89.4583 190.112 93.0015C192.98 96.4798 197.325 98.1762 203.148 98.0907C208.844 98.0071 213.725 96.9433 217.791 94.8994C221.858 92.8555 224.142 89.3016 224.643 84.2377C225.121 81.8624 225.33 78.659 225.27 74.6274C225.227 71.6838 224.912 67.656 224.325 62.544L224.036 62.4523L220.865 62.3068C217.406 62.1015 214.268 62.0196 211.452 62.0609C207.741 62.1154 205.378 62.4702 204.363 63.1251L204.078 63.3213L204.08 63.4173ZM271.661 40.2468C272.52 42.0263 273.059 43.8746 273.279 45.7916C273.562 47.6436 273.724 49.9135 273.763 52.6012L273.85 58.5526C273.864 59.5125 273.867 61.8487 273.857 65.5612C273.848 69.2738 273.738 72.6998 273.528 75.8392L273.287 79.0111C272.861 84.906 271.647 89.4043 269.644 92.506C267.889 95.028 265.26 96.8908 261.758 98.0944C258.32 99.361 254.777 100.021 251.129 100.075C246.778 100.138 243.024 99.4895 239.868 98.1277C236.712 96.8299 234.277 94.4654 232.563 91.0342L232.564 91.1302C231.515 89.4174 230.814 87.4435 230.461 85.2084C230.108 82.9733 229.877 80.2884 229.767 77.1537C229.745 75.6819 229.697 74.5945 229.623 73.8915C229.223 68.4568 228.989 63.4037 228.92 58.7322L228.868 55.1805C228.784 49.4852 229.223 44.4862 230.184 40.1836C231.145 35.881 233.275 32.7454 236.575 30.7768C240.577 28.7338 244.978 27.6771 249.778 27.6066C253.105 27.5578 256.345 28.0863 259.498 29.1921C262.713 30.233 265.233 31.8282 267.057 33.9777C269.2 36.0584 270.735 38.1801 271.663 40.3427L271.661 40.2468ZM249.793 28.6625C246.849 28.7057 244.007 29.1315 241.267 29.9398C238.526 30.6841 236.398 31.8355 234.885 33.3939C232.682 35.9225 231.255 39.0158 230.605 42.6737C230.017 46.2667 229.758 50.431 229.828 55.1665L229.877 58.5261C229.915 61.0858 230.021 63.9646 230.196 67.1623C230.37 70.2961 230.499 72.5025 230.581 73.7814L230.961 80.0165C231.186 86.6059 232.821 91.1584 235.866 93.674C238.974 96.1246 243.408 97.3076 249.167 97.2231C252.687 97.1714 256.102 96.5452 259.413 95.3445C262.788 94.1428 265.29 92.3779 266.92 90.0497C268.859 86.9489 270.011 82.6115 270.377 77.0376L270.619 73.8657C270.879 69.7654 270.967 64.8996 270.885 59.2682L270.742 49.5733C270.707 47.2055 270.55 45.1916 270.27 43.5315C270.053 41.8705 269.582 40.2773 268.855 38.7518C267.589 35.314 265.183 32.757 261.638 31.0809C258.093 29.4048 254.145 28.5986 249.793 28.6625ZM258.996 66.9316L259.044 70.1952C259.092 73.4589 258.997 75.7645 258.761 77.1121C258.589 78.4588 258.03 79.6511 257.086 80.6891C256.332 81.6602 255.319 82.4112 254.046 82.9419C252.774 83.4727 251.466 83.7479 250.122 83.7676C247.69 83.8033 245.826 83.2226 244.528 82.0256C243.293 80.7635 242.439 79.2399 241.964 77.4547C241.554 75.6685 241.232 73.337 240.998 70.4601C240.84 68.4142 240.69 66.9763 240.55 66.1462C240.39 63.9723 240.302 62.3415 240.286 61.2536C240.098 48.391 243.555 41.9075 250.658 41.8032C253.922 41.7553 256.056 43.2922 257.062 46.4137C258.067 49.4713 258.593 52.5999 258.64 55.7996L258.928 62.324L258.996 66.9316ZM257.675 55.4297C257.603 54.9187 257.489 53.6722 257.332 51.6903C257.238 49.6435 256.797 47.9538 256.009 46.6212C255.286 45.2877 254.188 44.6317 252.716 44.6533C250.732 44.6825 248.92 45.4771 247.279 47.0374C245.637 48.5977 244.576 50.4374 244.095 52.5567L244.094 52.4607C243.495 55.2858 243.227 58.8422 243.29 63.1297C243.321 65.2415 243.377 66.8408 243.457 67.9278L243.455 67.8318C243.738 69.6198 243.956 71.4088 244.11 73.1987C244.18 73.5818 244.291 74.6362 244.445 76.3622C244.662 78.0872 245.006 79.7143 245.476 81.2436L245.379 81.149L245.675 81.7207C246.967 82.4698 248.444 82.8322 250.108 82.8077C252.732 82.7692 254.83 81.8423 256.404 80.027L256.309 80.1244C257.189 79.0234 257.718 77.9595 257.894 76.9328C258.071 75.8421 258.136 73.7609 258.091 70.6892L258.036 66.9456L257.968 62.3381L257.68 55.8137L257.675 55.4297ZM275.163 27.618C279.761 26.9104 283.401 26.3769 286.084 26.0175C288.831 25.6571 291.645 25.4558 294.524 25.4135C299.708 25.3374 304.164 25.8801 307.894 27.0415C311.687 28.2019 314.885 30.2352 317.488 33.1413C322.179 38.769 324.561 44.0146 324.632 48.8781C324.673 51.6298 324.106 54.4544 322.932 57.352C321.758 60.1855 320.034 62.6431 317.76 64.7247C315.486 66.8063 312.784 68.0301 309.653 68.3961C310.835 70.427 312.897 73.533 315.838 77.7143C318.453 81.3883 320.58 84.5894 322.22 87.3177C323.86 90.0459 325.279 92.9694 326.477 96.0881L327.072 97.3275L325.728 97.3472C324.704 97.3623 322.977 97.4516 320.547 97.6153C317.733 97.7846 315.59 97.8801 314.119 97.9017C312.775 97.9215 311.078 97.8824 309.028 97.7844C308.898 97.5943 308.765 97.3082 308.632 96.9262C308.499 96.6081 308.303 96.3549 308.044 96.1667C307.85 95.9775 307.528 95.8862 307.08 95.8928C303.637 88.0705 300.116 81.4655 296.516 76.0778L296.553 78.5735C296.579 80.3653 296.795 84.1385 297.199 89.8932C297.431 92.5781 297.56 94.8165 297.586 96.6083C296.251 97.2679 294.754 97.706 293.093 97.9224C291.496 98.1378 289.577 98.262 287.337 98.2949L283.113 98.2609L277.545 98.3426C277.462 97.0637 277.41 95.6883 277.389 94.2165L277.164 85.4828L277.05 77.7077C276.904 67.7248 276.625 57.4877 276.215 46.9966C275.869 36.5046 275.518 30.045 275.163 27.618ZM306.636 65.6561C309.896 65.3522 312.665 64.2554 314.941 62.3658C317.217 60.4122 318.91 58.0511 320.022 55.2825C321.133 52.5139 321.669 49.7537 321.628 47.002C321.578 43.6104 320.667 40.3594 318.893 37.2491C317.183 34.1379 314.778 31.6129 311.677 29.6742C308.64 27.7346 305.265 26.728 301.551 26.6545C299.436 26.4296 297.066 26.3363 294.443 26.3748C291.563 26.4171 288.845 26.617 286.29 26.9746C283.798 27.2672 280.477 27.732 276.326 28.369C276.673 30.2201 277.013 35.9117 277.345 45.4439C277.677 54.976 277.922 65.1495 278.081 75.9644L278.226 85.8513C278.271 88.923 278.27 91.0672 278.224 92.284L278.268 95.2597C278.461 95.3209 278.685 95.3496 278.941 95.3458C279.773 95.3336 280.446 95.3557 280.958 95.4122L284.799 95.4518C287.167 95.4171 289.15 95.324 290.748 95.1725C292.345 94.957 293.652 94.6178 294.67 94.1548C294.065 87.827 293.724 82.0394 293.647 76.792C293.611 74.3602 293.677 72.343 293.846 70.7404L294.042 71.0255C296.517 73.9335 298.972 77.6419 301.406 82.1506C303.84 86.5954 305.95 90.8529 307.738 94.9231L307.834 94.9217C310.012 95.0177 311.677 95.0573 312.828 95.0404C314.236 95.0197 316.219 94.9266 318.777 94.761C321.079 94.5992 322.71 94.5112 323.67 94.4972C322.473 91.4424 320.989 88.4879 319.219 85.6335C317.448 82.7152 315.288 79.4506 312.739 75.8396C312.084 74.8251 311.037 73.3043 309.599 71.2772C308.224 69.1852 307.077 67.3458 306.158 65.7591L306.636 65.6561ZM297.33 39.9659C299.506 39.934 301.308 40.5796 302.735 41.9028C304.162 43.162 304.892 44.9115 304.925 47.1512C304.958 49.455 304.31 51.0967 302.981 52.0763C301.715 53.055 299.61 53.5659 296.667 53.6091C294.683 53.6383 292.89 53.5686 291.287 53.4001L291.191 53.4015C290.983 52.3164 290.854 50.0781 290.804 46.6864L290.538 41.6018C292.826 40.5441 295.091 39.9988 297.33 39.9659ZM299.292 42.8174C297.501 42.8437 295.555 43.2883 293.455 44.1513C293.608 45.8132 293.693 47.2841 293.712 48.564L293.657 51.3491L293.773 52.6915L296.652 52.6492C298.124 52.6276 299.531 52.511 300.872 52.2993L300.776 52.3007C301.86 52.0287 302.683 51.4406 303.246 50.5362C303.808 49.5679 304.08 48.4438 304.061 47.1639C304.018 44.2202 302.428 42.7714 299.292 42.8174ZM345.118 27.9351L347.038 27.9069L347.058 29.2508C347.132 34.3063 347.165 38.7542 347.158 42.5948C347.15 46.4353 347.133 49.6359 347.107 52.1966C347.003 62.5672 346.991 70.4402 347.069 75.8156C347.172 82.7909 347.464 89.6033 347.946 96.253C346.937 97.2919 344.608 97.8381 340.961 97.8917L336.64 97.8591C335.679 97.8092 334.335 97.797 332.607 97.8223C331.199 97.843 329.826 98.0232 328.486 98.3629L328.549 96.0577C327.463 96.2017 326.793 96.3395 326.538 96.4713C326.89 89.8734 327.025 83.8547 326.945 78.4153C326.892 74.7677 326.813 71.5685 326.709 68.8178C326.603 66.003 326.505 63.7002 326.415 61.9093C326.052 54.6179 325.843 49.0844 325.787 45.3088C325.695 39.0374 325.921 32.6014 326.464 26.0008C327.358 25.8596 327.933 25.7872 328.189 25.7834C329.981 25.7571 331.838 25.7938 333.759 25.8937C335.234 26.064 337.155 26.1318 339.523 26.0971L345.09 26.0153L345.118 27.9351ZM339.633 27.0556C338.097 27.0781 335.6 27.0188 332.141 26.8775C330.22 26.7777 328.747 26.7353 327.723 26.7504L327.339 26.756L327.342 26.948C326.842 32.1399 326.643 38.2234 326.746 45.1987C326.8 48.9103 326.88 52.1415 326.984 54.8922C327.089 57.643 327.186 59.9458 327.278 61.8007C327.644 69.3481 327.856 75.0736 327.914 78.9772C327.993 84.3526 327.88 89.7308 327.575 95.1119C328.469 94.9708 329.204 94.896 329.78 94.8875C330.547 94.8762 331.956 94.9196 334.006 95.0175C336.312 95.1116 338.104 95.1493 339.384 95.1305C342.456 95.0854 344.338 94.7058 345.032 93.9915C344.547 87.0859 344.252 80.1135 344.149 73.0742C344.072 67.8268 344.087 60.1457 344.195 50.0311C344.221 47.4704 344.239 44.3018 344.247 40.5253C344.256 36.7487 344.223 32.3647 344.15 27.3733L344.144 26.9893L339.633 27.0556ZM395.921 82.6833C396.077 84.6012 396.163 86.0721 396.178 87.096C396.223 90.1676 395.884 93.245 395.161 96.3279C392.346 96.3692 388.123 96.4952 382.493 96.7059L370.016 96.9851C364.321 97.0687 359.007 96.9547 354.073 96.6431L354.047 94.8193L352.125 94.7515C352.077 91.4238 351.988 87.5527 351.859 83.1381C351.73 78.7235 351.617 75.3648 351.519 73.062C351.226 66.1536 351.028 59.2118 350.925 52.2365C350.807 44.1734 350.941 35.8505 351.327 27.2679C356.314 26.9387 362.071 26.6621 368.596 26.4383C375.185 26.1496 380.623 25.9737 384.91 25.9108C389.966 25.8366 392.627 26.1815 392.895 26.9457C392.901 27.3936 393.002 27.7442 393.198 27.9974C393.457 28.1856 393.779 28.3409 394.165 28.4632C394.551 28.5856 394.777 28.7103 394.842 28.8373L394.841 28.7413C395.119 30.2094 395.272 31.9033 395.3 33.8231C395.315 34.847 395.273 36.3838 395.175 38.4335C395.079 40.6111 395.04 42.2759 395.057 43.4277C391.804 44.2436 387.682 44.6881 382.691 44.7614L379.235 44.8121L375.49 44.7711C373.507 44.8002 371.524 44.9253 369.543 45.1464C369.557 46.1063 369.512 47.3551 369.406 48.8929L369.357 52.0619L369.369 52.9258L371.099 52.9965L374.841 52.8455C375.161 52.8408 376.762 52.9133 379.644 53.063C379.711 53.2541 379.78 53.5731 379.851 54.0201C379.92 54.4031 380.052 54.6572 380.246 54.7824C380.504 54.9066 380.953 54.964 381.592 54.9546C381.937 56.6137 382.125 58.5632 382.158 60.8029C382.187 62.7867 382.178 64.291 382.129 65.3159L382.1 69.9248C380.188 70.4649 377.728 70.7571 374.72 70.8012C372.353 70.836 370.914 70.9211 370.404 71.0566C370.226 72.0193 370.151 73.4926 370.18 75.4764C370.209 77.3961 370.261 78.7715 370.337 79.6025C378.022 79.8737 384.104 79.9764 388.584 79.9107C390.119 79.8881 391.91 79.7978 393.956 79.6398L393.973 80.7917L394.082 81.6542C394.85 81.6429 395.457 81.602 395.904 81.5314L395.921 82.6833ZM393.012 80.7098C392.053 80.7879 390.677 80.84 388.886 80.8664C387.286 80.8898 385.43 80.8851 383.317 80.8521C381.204 80.8191 379.571 80.7791 378.418 80.732C374.96 80.5907 371.439 80.5464 367.855 80.599L367.758 80.5045C367.479 78.9084 367.317 76.6065 367.273 73.5988C367.243 71.5511 367.346 69.8534 367.582 68.5057C367.835 68.31 368.409 68.1736 369.304 68.0964C370.199 68.0193 371.19 67.9727 372.278 67.9567C375.606 67.9079 377.907 67.6821 379.181 67.2793L379.154 58.9268C379.122 56.6871 379.001 55.0247 378.793 53.9396L378.792 53.8436C377.064 53.869 375.752 53.8562 374.855 53.8054C371.335 53.8571 368.711 53.8316 366.981 53.729L366.883 53.6344C366.613 52.6783 366.468 51.4643 366.446 49.9924C366.433 49.0965 366.478 47.8157 366.582 46.15L366.623 42.405L367.005 42.3034C368.155 42.1585 369.402 42.0762 370.746 42.0564C372.09 42.0367 372.986 42.0236 373.434 42.017L381.017 41.9057C385.688 41.8371 389.395 41.4626 392.138 40.7823L392.136 40.6863L392.166 36.1734C392.264 34.1237 392.305 32.587 392.29 31.5631C392.269 30.0912 392.151 28.5888 391.936 27.0558C391.933 26.8638 389.596 26.8021 384.925 26.8707C374.942 27.0172 364.035 27.4654 352.205 28.2151C351.912 34.4281 351.833 42.1101 351.967 51.2611C352.037 55.9966 352.204 63.0349 352.469 72.376C352.765 79.4764 352.967 86.6422 353.073 93.8735C356.853 94.138 361.495 94.2299 366.998 94.1491C369.75 94.1087 374.005 93.9822 379.762 93.7697L392.431 93.4877C393.035 90.9825 393.315 88.2581 393.271 85.3145C393.256 84.2906 393.171 82.8197 393.015 80.9017L393.012 80.7098ZM440.807 50.4369C437.998 50.9262 435.378 51.1887 432.946 51.2244C429.938 51.2685 427.31 50.9871 425.061 50.38C425.122 50.1871 425.147 49.7067 425.136 48.9388C424.238 48.824 423.564 48.6738 423.113 48.4884C423.174 48.2955 423.2 47.8791 423.19 47.2392C423.171 45.8953 422.838 45.0041 422.191 44.5655C421.545 44.127 420.645 43.9162 419.493 43.9331C418.214 43.9519 417.131 44.3518 416.247 45.1329C415.362 45.9139 414.931 47.0404 414.952 48.5122C414.967 49.5361 415.201 50.2048 415.654 50.5181C416.105 50.7675 416.652 50.9195 417.293 50.9741C417.933 51.0287 418.382 51.0862 418.639 51.1464C422.615 51.6641 426.381 53.145 429.938 55.589C433.557 57.9681 436.448 60.902 438.612 64.3906C440.838 67.8143 441.978 71.318 442.031 74.9016C442.093 79.1891 441.189 82.9788 439.317 86.2706C437.445 89.5625 434.922 92.0958 431.748 93.8706C428.639 95.7084 425.228 96.6546 421.516 96.7091C417.293 96.7711 413.119 95.8722 408.995 94.0126C404.873 92.2169 401.475 89.7065 398.804 86.4814C396.195 83.1913 394.862 79.5945 394.805 75.6909L394.883 74.4416L394.863 73.0978C396.587 72.8164 398.441 72.6612 400.425 72.6321L405.994 72.6463C407.274 72.6915 409.099 72.6968 411.466 72.662C411.477 73.3659 411.582 74.0044 411.782 74.5776L413.414 74.5536C413.438 76.1534 413.806 77.2681 414.52 77.8977C415.232 78.4633 416.292 78.7358 417.7 78.7151C419.108 78.6945 420.286 78.2931 421.235 77.5111C422.183 76.7291 422.647 75.6342 422.627 74.2263C422.597 72.2426 421.841 70.8775 420.358 70.1312C418.875 69.3849 417.364 68.895 415.824 68.6616C414.284 68.3642 413.289 68.1868 412.84 68.1293L411.396 67.8625C409.47 67.5067 407.862 66.9223 406.57 66.1092C405.277 65.2321 403.883 64.0684 402.39 62.6182C397.847 58.3964 395.533 53.3418 395.447 47.4544C395.388 43.4869 396.327 39.8247 398.262 36.4679C400.197 33.1112 402.846 30.448 406.209 28.4784C409.636 26.4439 413.429 25.3961 417.588 25.335C421.876 25.2721 425.855 26.0138 429.526 27.56C433.261 29.1054 436.271 31.3654 438.555 34.3402C440.839 37.315 442.011 40.8502 442.071 44.9458C442.094 46.5456 441.929 48.3722 441.575 50.4256L440.807 50.4369ZM438.749 47.5868C439.043 45.7903 439.181 44.2841 439.163 43.0682C439.079 37.3729 436.969 33.1474 432.832 30.3918C428.758 27.5713 423.682 26.2057 417.602 26.2949C413.571 26.3541 409.937 27.3356 406.7 29.2393C403.464 31.143 400.909 33.7088 399.037 36.9366C397.228 40.1635 396.351 43.6648 396.406 47.4404C396.439 49.6801 396.955 52.1048 397.953 54.7144C398.951 57.2601 400.456 59.5102 402.469 61.4649C404.482 63.4195 406.868 64.6006 409.626 65.0082C410.204 65.1277 411.873 65.4553 414.633 65.9908C417.392 66.4623 419.55 67.3908 421.106 68.7761C422.727 70.1604 423.554 71.9725 423.586 74.2123C423.613 76.0041 423.057 77.3564 421.918 78.2692C420.779 79.182 419.378 79.6506 417.714 79.675C415.858 79.7023 414.219 79.2143 412.796 78.2111C411.436 77.1429 410.678 75.6179 410.521 73.636C408.537 73.6651 407.032 73.6552 406.008 73.6062L400.823 73.5863C399.031 73.6126 397.369 73.7331 395.836 73.9476L395.859 75.5794C395.915 79.355 397.115 82.6337 399.46 85.4156C401.805 88.1975 404.781 90.33 408.387 91.8133C412.056 93.2316 415.811 93.9125 419.65 93.8561C423.17 93.8045 426.422 92.9886 429.407 91.4087C432.392 89.7647 434.757 87.3937 436.504 84.2957C438.314 81.1328 439.187 77.4076 439.124 73.1201C439.072 69.6004 438.096 66.3184 436.195 63.274C434.293 60.1656 431.76 57.6105 428.594 55.6087C425.492 53.6061 422.147 52.439 418.557 52.1077C414.263 51.7227 412.092 49.8664 412.043 46.5387C412.018 44.8109 412.542 43.4911 413.617 42.5792C414.691 41.6033 415.996 41.1041 417.531 41.0816C419.323 41.0553 420.899 41.5442 422.257 42.5483C423.616 43.5525 424.308 44.8865 424.332 46.5503C424.341 47.1263 424.315 47.5107 424.253 47.7036C426.374 48.2485 428.586 48.5041 430.889 48.4703C432.873 48.4412 435.461 48.1471 438.653 47.5882L438.749 47.5868Z" fill="black"/>
</svg>
