<svg width="534" height="127" viewBox="0 0 534 127" fill="none" xmlns="http://www.w3.org/2000/svg">
<path d="M23.2684 70.4787C22.3846 70.7206 21.7014 71.1114 21.2189 71.6513C21.0982 71.7862 20.983 72.017 20.8731 72.3437C20.8235 72.6029 20.7703 72.7982 20.7136 72.9295C20.5965 73.1284 20.5314 74.2538 20.5182 76.3058C20.569 78.3541 20.6412 80.7859 20.7349 83.6011C20.8286 86.4163 20.9614 89.3574 21.1333 92.4246C21.3016 95.4279 21.5443 98.0424 21.8614 100.268C22.157 102.111 22.7383 103.905 23.6054 105.651C24.5328 107.33 25.9374 108.373 27.8191 108.78C29.2321 108.829 30.5313 108.564 31.7167 107.985C32.9625 107.338 33.869 106.358 34.4364 105.044C35.0569 103.535 35.2585 101.985 35.0411 100.395C34.8841 98.7369 34.9206 97.1003 35.1505 95.4849C36.0523 95.5626 37.0445 95.539 38.1272 95.4142C39.2739 95.2859 40.4223 95.1894 41.5725 95.125C42.7226 95.0605 43.8427 95.0298 44.9326 95.0328C46.0863 95.0322 47.1177 95.1347 48.0266 95.3401C49.2992 98.602 49.7729 101.909 49.448 105.26C49.1195 108.548 48.166 111.55 46.5875 114.266C45.0091 116.983 42.8624 119.283 40.1476 121.166C37.493 122.981 34.4103 124.019 30.8994 124.28C28.6169 124.728 26.2526 124.861 23.8065 124.678C21.364 124.558 19.0615 124.078 16.8991 123.238C14.7331 122.334 12.8651 121.028 11.2951 119.321C9.78905 117.611 8.833 115.421 8.42697 112.752C8.17022 110.458 7.94006 108.067 7.73647 105.579C7.53288 103.09 7.31318 100.314 7.07736 97.2508C6.90185 94.1197 6.70486 90.6052 6.48637 86.7074C6.3282 82.742 6.13601 78.1696 5.90979 72.9901C5.7211 71.911 5.69216 70.8229 5.82297 69.7259C6.0141 68.5613 6.2745 67.4891 6.60417 66.5091C7.08614 64.8155 7.70308 63.2425 8.45497 61.7901C9.27077 60.3342 10.2553 59.0291 11.4085 57.8747C12.0827 57.3241 12.8262 56.8658 13.639 56.4997C14.4482 56.0698 15.293 55.7019 16.1732 55.3962C19.0589 54.2729 21.9448 53.7265 24.8311 53.7571C27.7173 53.7876 30.4387 54.3081 32.9953 55.3186C35.6121 56.2616 37.9949 57.6024 40.1436 59.3409C42.2922 61.0793 44.0417 63.1286 45.3919 65.4888C46.7385 67.785 47.6184 70.3318 48.0316 73.129C48.4448 75.9263 48.2226 78.8233 47.3649 81.8199C45.0293 82.4637 42.7077 82.7861 40.4001 82.7872C38.1529 82.7209 35.8027 82.5321 33.3494 82.221C33.0896 81.0176 32.8848 79.6509 32.735 78.1209C32.649 76.5873 32.4105 75.1905 32.0193 73.9304C31.6246 72.6064 30.9567 71.5541 30.0155 70.7736C29.1383 69.9895 27.7749 69.6813 25.9254 69.849C25.1018 70.0234 24.2162 70.2333 23.2684 70.4787ZM83.1948 82.1192C83.746 83.9472 84.1798 85.3972 84.4963 86.4692L93.5654 119.614L93.5708 119.709C91.6753 120.2 89.5738 120.446 87.2662 120.447C84.9623 120.512 82.7753 120.379 80.7055 120.046L80.6096 120.051C80.1689 119.05 79.7175 117.858 79.2553 116.474C78.857 115.086 78.4249 113.668 77.9592 112.219C77.5573 110.768 77.127 109.382 76.6684 108.061C76.2098 106.741 75.73 105.614 75.229 104.68C74.3911 104.599 73.7485 104.571 73.3012 104.596C72.8539 104.621 72.4386 104.644 72.0552 104.666C71.7357 104.684 71.3541 104.737 70.9104 104.826C70.527 104.848 69.9838 104.878 69.2809 104.918C68.8909 105.965 68.5756 107.201 68.3349 108.624C68.1545 109.981 67.9475 111.434 67.714 112.986C67.5408 114.47 67.3338 115.924 67.0931 117.348C66.8524 118.771 66.475 120.042 65.9608 121.161C65.8969 121.164 65.8348 121.2 65.7744 121.267C65.7744 121.267 65.7425 121.269 65.6786 121.273C65.1746 121.429 63.8966 121.501 61.8446 121.488C59.7927 121.475 56.5959 121.622 52.2543 121.929C52.1904 121.933 52.1247 121.904 52.0572 121.844C52.1599 121.39 52.3137 120.131 52.5186 118.068C52.7235 116.006 53.0222 113.329 53.4146 110.038C53.807 106.746 54.2684 102.971 54.7988 98.7104C55.3896 94.3825 56.0937 89.7919 56.9114 84.9386C57.7291 80.0852 58.6318 75.0348 59.6197 69.7873C60.6076 64.5397 61.7251 59.317 62.9721 54.1191C63.4158 54.0301 63.8933 53.9713 64.4045 53.9426C64.9157 53.914 65.5866 53.8764 66.4173 53.8298C67.248 53.7833 68.3024 53.7242 69.5804 53.6525C70.9187 53.5134 72.6368 53.2889 74.7347 52.979C74.973 53.799 75.3322 55.0608 75.8123 56.7646C76.3527 58.401 76.9075 60.2929 77.4765 62.4404C78.1059 64.5204 78.7443 66.7602 79.3916 69.1597C80.1028 71.5557 80.7767 73.8576 81.4132 76.0654C82.0498 78.2733 82.6437 80.2912 83.1948 82.1192ZM71.432 93.5474C72.6425 93.4155 73.8548 93.3155 75.0689 93.2474C74.1218 87.7879 73.3068 83.5388 72.6237 80.5003C72.0044 77.4582 71.4727 75.4047 71.0284 74.3399C70.648 73.2715 70.284 73.0676 69.9364 73.7281C69.6492 74.3211 69.3977 75.5531 69.1821 77.4241C69.0304 79.2915 68.8416 81.6417 68.6158 84.4748C68.4539 87.3043 68.2406 90.361 67.976 93.645C69.0659 93.648 70.2179 93.6155 71.432 93.5474ZM106.144 51.2184C113.106 50.7641 119.897 50.704 126.518 51.0379C126.764 53.1395 126.932 55.5659 127.022 58.3171C127.176 61.0648 127.158 63.5978 126.967 65.9161C125.739 65.7286 124.232 65.7169 122.446 65.8811C120.661 66.0453 118.27 66.2754 115.274 66.5716L115.082 66.5823L114.986 66.5877C114.99 66.6516 114.961 66.7173 114.901 66.7848C114.901 66.7848 114.903 66.8167 114.906 66.8806C114.86 67.2037 114.825 67.7185 114.801 68.4249C114.837 69.0639 114.896 70.1183 114.978 71.588C115.057 72.9938 115.162 74.8788 115.295 77.2431C115.488 79.5399 115.72 82.5396 115.992 86.2422C116.26 89.8809 116.571 94.2864 116.925 99.4587C117.275 104.567 117.71 110.6 118.228 117.558L118.233 117.654L118.239 117.75C117.099 118.006 115.828 118.205 114.426 118.348C113.084 118.423 111.71 118.5 110.305 118.579C108.963 118.654 107.621 118.73 106.279 118.805C104.937 118.88 103.696 119.046 102.557 119.302C102.479 119.05 102.414 117.9 102.363 115.851C102.313 113.803 102.175 110.766 101.949 106.74C101.784 102.647 101.46 97.441 100.977 91.1221C100.559 84.7996 99.9071 77.1762 99.0223 68.2517L98.9211 68.1612C98.1328 67.8208 97.1617 67.6509 96.008 67.6515C94.8506 67.5881 93.6968 67.5887 92.5466 67.6532C91.3929 67.6537 90.3367 67.6809 89.3782 67.7346C88.4197 67.7883 87.7452 67.7621 87.3547 67.6557C87.2125 67.4073 87.0489 66.7755 86.8638 65.7602C86.7426 64.7414 86.6106 63.5309 86.4679 62.1287C86.3856 60.659 86.2978 59.0935 86.2047 57.4321C86.1116 55.7707 86.0859 54.1696 86.1278 52.6289C86.1242 52.565 86.0904 52.5348 86.0265 52.5384C86.0265 52.5384 86.0247 52.5064 86.0212 52.4425C92.5353 52.0133 99.243 51.6053 106.144 51.2184ZM162.331 102.683C166.431 102.645 170.65 102.441 174.988 102.069L174.999 102.261C175.242 104.299 175.394 106.437 175.455 108.678C175.513 110.854 175.34 112.915 174.936 114.86C168.415 115.162 161.775 115.63 155.016 116.265C148.317 116.833 141.854 117.035 135.627 116.871C135.316 111.312 134.944 105.82 134.511 100.396C134.076 94.9077 133.673 89.4497 133.305 84.0218C132.937 78.5939 132.632 73.1624 132.392 67.7274C132.151 62.2923 132.037 56.8181 132.048 51.3049C134.533 51.0374 137.211 50.7911 140.083 50.566C143.016 50.2735 145.95 50.0129 148.885 49.7842C151.821 49.5555 154.661 49.3322 157.405 49.1143C160.149 48.8964 162.576 48.7284 164.684 48.6102C166.793 48.492 168.488 48.429 169.77 48.4213C171.051 48.4135 171.694 48.4416 171.698 48.5055C172.142 50.7241 172.334 52.989 172.271 55.3001C172.272 57.6076 172.335 59.8797 172.461 62.1161L172.466 62.212C170.446 62.7739 168.386 63.1779 166.284 63.4239C164.243 63.6024 162.168 63.7507 160.059 63.8689C157.947 63.9232 155.836 64.0095 153.728 64.1277C151.619 64.2459 149.516 64.4599 147.418 64.7698L147.13 64.7859L147.04 64.8872C147.208 66.7367 147.219 68.659 147.075 70.6542C146.99 72.582 147.22 74.396 147.764 76.0962L147.865 76.1867C149.79 76.207 151.742 76.1617 153.723 76.0506C155.704 75.9396 157.687 75.8605 159.671 75.8134L159.676 75.9092C160.118 78.0639 160.335 80.2311 160.329 82.4109C160.323 84.5906 160.418 86.8609 160.615 89.2216C159.671 89.5309 158.593 89.7515 157.383 89.8835C156.169 89.9515 154.987 90.0178 153.836 90.0823C152.75 90.1432 151.761 90.2306 150.87 90.3447C149.979 90.4587 149.381 90.6525 149.076 90.926C148.861 92.797 148.849 94.8809 149.042 97.1777C149.299 99.4709 149.534 101.381 149.748 102.907L149.849 102.998C154.066 102.761 158.227 102.656 162.331 102.683ZM198.723 80.4511C198.723 80.4511 198.785 80.4156 198.909 80.3445C199.711 79.7868 201.037 79.424 202.886 79.2563C204.796 79.021 206.807 78.8762 208.919 78.8219C211.032 78.7676 212.988 78.7862 214.788 78.8776C216.648 78.9015 217.898 78.8956 218.537 78.8598L218.728 78.849L218.829 78.9395C219.403 82.3047 219.861 85.9007 220.203 89.7275C220.542 93.4904 220.489 97.1151 220.044 100.601C219.907 103.878 219.056 106.426 217.491 108.244C215.927 110.063 213.955 111.487 211.577 112.518C210.005 113.055 208.365 113.531 206.658 113.948C204.954 114.428 203.211 114.782 201.429 115.01C199.65 115.302 197.893 115.4 196.157 115.305C194.485 115.207 192.864 114.881 191.295 114.328C188.678 113.385 186.647 112.024 185.201 110.247C183.755 108.469 182.572 106.227 181.651 103.523C181.42 102.831 181.142 101.885 180.819 100.685C180.556 99.4176 180.324 98.1485 180.125 96.8777C179.818 94.8437 179.555 92.9995 179.334 91.3453C179.113 89.6911 178.894 88.0688 178.676 86.4785C178.519 84.8207 178.359 83.0989 178.195 81.3133C178.091 79.4602 178.004 77.3498 177.936 74.9819C177.885 72.9335 177.865 70.8514 177.874 68.7355C177.88 66.5558 177.986 64.4346 178.191 62.3719C178.392 60.2453 178.82 58.17 179.476 56.1462C180.196 54.1187 181.446 52.4141 183.228 51.0322C184.445 49.8743 185.838 48.9949 187.407 48.3942C188.976 47.7934 190.615 47.3169 192.326 46.9646C195.816 46.3203 199.178 46.2601 202.412 46.7839C205.643 47.2438 208.457 48.2719 210.854 49.8683C213.251 51.4646 215.105 53.6683 216.417 56.4793C217.724 59.2264 218.264 62.5615 218.035 66.4844L217.972 67.0649C217.854 67.2638 217.572 67.3757 217.125 67.4008C216.678 67.4259 215.945 67.499 214.926 67.6202C213.967 67.6739 213.138 67.7525 212.439 67.8558C211.8 67.8916 211.129 67.9292 210.426 67.9686C209.787 68.0044 209.115 68.0101 208.408 67.9856C207.702 67.9611 206.866 67.9118 205.9 67.8377C205.672 67.2094 205.342 66.4588 204.908 65.5857C204.535 64.6451 204.039 63.8075 203.421 63.0729C202.864 62.2709 202.217 61.602 201.482 61.0663C200.743 60.4667 199.895 60.1938 198.936 60.2475C197.846 60.2445 196.79 60.2717 195.768 60.329C194.745 60.3863 193.872 60.8198 193.148 61.6296C193.028 61.7646 192.856 62.1268 192.632 62.7162C192.469 63.2381 192.338 63.7583 192.239 64.2766C191.878 65.8353 191.598 67.7099 191.401 69.9004C191.267 72.0873 191.206 74.4304 191.218 76.9296C191.226 79.365 191.336 81.8908 191.546 84.5071C191.757 87.1234 192.025 89.6083 192.349 91.9619C192.555 93.3605 192.897 94.8798 193.373 96.5197C193.85 98.1596 194.722 99.4248 195.99 100.315C196.587 100.666 197.337 100.913 198.243 101.054C199.208 101.128 200.197 101.041 201.209 100.792C202.284 100.539 203.26 100.228 204.137 99.8585C204.822 99.4996 205.406 99.0503 205.888 98.5104C206.367 97.9067 206.71 97.1503 206.915 96.2414C206.965 95.9822 207.005 95.5633 207.037 94.9846C207.129 94.3385 207.157 93.6959 207.121 93.0569C207.149 92.4143 207.117 91.8392 207.024 91.3316C206.996 90.8204 206.884 90.5382 206.689 90.4851C206.302 90.4426 205.758 90.4731 205.059 90.5764C204.42 90.6122 203.719 90.6836 202.956 90.7904C202.253 90.8298 201.582 90.8674 200.943 90.9033C200.364 90.8716 199.912 90.8008 199.585 90.6909C199.4 89.6757 199.254 88.7865 199.147 88.0233C199.104 87.2565 199.063 86.5216 199.023 85.8187C199.044 85.0483 199.033 84.2798 198.99 83.513C198.947 82.7462 198.83 81.7912 198.637 80.6482L198.632 80.5524C198.628 80.4885 198.659 80.4547 198.723 80.4511ZM258.082 47.7018C260.028 49.2593 261.447 51.1349 262.339 53.3284C262.84 54.2618 263.215 55.2343 263.464 56.246C263.773 57.1901 264.021 58.1698 264.206 59.1851C264.423 60.7754 264.577 62.3693 264.666 63.9668C264.816 65.4968 264.904 67.0624 264.929 68.6634C264.927 72.0609 265.048 75.3553 265.291 78.5467C265.534 81.7381 265.621 85.0023 265.551 88.3395L265.441 91.5186C265.439 93.7623 265.215 96.0504 264.768 98.383C264.319 100.652 263.571 102.745 262.524 104.662C261.524 106.257 260.156 107.584 258.421 108.642C256.745 109.634 254.932 110.44 252.979 111.063C251.219 111.674 249.416 112.096 247.57 112.327C245.788 112.555 243.967 112.658 242.106 112.634C240.757 112.581 239.437 112.463 238.144 112.279C236.919 112.155 235.718 111.87 234.539 111.423C233.424 110.973 232.398 110.389 231.46 109.673C230.519 108.892 229.725 107.879 229.078 106.633C228.094 105.086 227.392 103.427 226.972 101.655C226.613 99.8166 226.349 97.9725 226.181 96.123C225.71 91.1496 225.207 86.1779 224.672 81.2081C224.198 76.1707 223.979 71.1191 224.015 66.0531C223.918 63.174 224.108 60.2788 224.586 57.3675C225.124 54.3887 226.321 51.7256 228.176 49.3781C228.78 48.7032 229.482 48.087 230.284 47.5292C232.336 46.3886 234.563 45.5266 236.966 44.9432C239.429 44.2923 241.879 43.9627 244.314 43.9544C246.813 43.9425 249.235 44.2555 251.578 44.8934C253.982 45.4637 256.15 46.3999 258.082 47.7018ZM253.652 81.8913L253.394 77.2905L252.837 70.7835C252.833 70.7196 252.734 70.0842 252.538 68.8772C252.402 67.6028 252.272 66.4243 252.147 65.3416C251.919 63.5595 251.317 61.9587 250.34 60.5392C249.427 59.1161 248.216 58.0942 246.707 57.4737C245.4 57.0342 244.085 57.0117 242.761 57.4065C241.437 57.8012 240.285 58.4106 239.306 59.2347C237.166 61.0853 235.788 63.374 235.171 66.1008C234.796 68.5577 234.62 71.1316 234.643 73.8225C234.729 76.5099 234.912 79.1919 235.19 81.8685C235.635 84.0871 235.987 86.3749 236.248 88.7321C236.504 91.0253 237.011 93.2083 237.768 95.2812C238.479 96.5234 239.461 97.4619 240.715 98.0967C241.968 98.7316 243.301 99.0735 244.714 99.1225C246.124 99.1076 247.519 98.8371 248.899 98.311C250.277 97.721 251.414 96.856 252.312 95.716C252.844 94.9169 253.225 94.2866 253.456 93.825C253.682 93.2995 253.812 92.7474 253.843 92.1687C253.875 91.59 253.838 90.9191 253.731 90.1559C253.684 89.3252 253.687 88.2353 253.74 86.8862C253.732 85.6046 253.701 84.4846 253.647 83.5261C253.658 82.564 253.659 82.0191 253.652 81.8913ZM315.438 99.3889C316.98 101.738 318.304 104.196 319.409 106.762L319.505 106.757C317.269 106.882 314.782 107.118 312.045 107.463C309.304 107.745 306.491 107.871 303.605 107.84L303.509 107.846C302.788 106.412 301.89 104.699 300.817 102.708C299.744 100.717 298.57 98.6357 297.294 96.4637C296.019 94.2917 294.649 92.157 293.185 90.0596C291.722 87.9623 290.272 86.1205 288.837 84.5343L288.629 84.2575C288.52 85.7379 288.526 87.5645 288.648 89.737C288.766 91.8457 288.922 94.0485 289.115 96.3453C289.368 98.5746 289.616 100.708 289.858 102.746C290.1 104.783 290.288 106.407 290.42 107.618C289.358 108.126 287.937 108.494 286.155 108.722C284.437 108.947 282.715 109.107 280.99 109.204C279.268 109.365 277.702 109.453 276.293 109.467C274.948 109.479 274.117 109.525 273.801 109.607C273.929 109.6 273.976 108.732 273.943 107.003C273.907 105.21 273.808 102.876 273.647 100.001C273.486 97.1252 273.301 93.8343 273.094 90.1282C272.882 86.3581 272.634 82.4939 272.348 78.5357C272.122 74.5101 271.836 70.5519 271.49 66.6611C271.204 62.7029 270.938 59.0962 270.691 55.8409C270.441 52.5217 270.187 49.7155 269.931 47.4222C269.734 45.0615 269.549 43.4694 269.375 42.6459C272.924 41.9341 276.827 41.2346 281.083 40.5473C285.34 39.86 289.814 39.6413 294.508 39.891C298.289 39.8714 301.736 40.7678 304.85 42.5804C307.965 44.3929 310.435 46.7223 312.261 49.5686C314.087 52.4149 315.133 55.6254 315.397 59.2002C315.722 62.7075 314.987 66.1781 313.192 69.6119C312.107 71.9803 310.585 73.9887 308.626 75.6369C306.731 77.2815 304.256 78.2856 301.199 78.6493L300.816 78.6707L300.72 78.6761L300.725 78.772C302.2 81.061 303.802 83.3429 305.532 85.6177C307.259 87.8285 308.955 90.0731 310.621 92.3515C312.287 94.6298 313.893 96.9756 315.438 99.3889ZM290.654 53.472C288.485 53.6576 286.307 54.2605 284.121 55.2804C284.231 56.1075 284.317 57.0642 284.378 58.1505C284.499 59.1693 284.59 60.2219 284.651 61.3082C284.712 62.3945 284.771 63.4488 284.828 64.4712C284.949 65.49 285.094 66.3473 285.261 67.0431L285.357 67.0377C286.833 67.0831 288.436 67.0894 290.165 67.0566C291.894 67.0238 293.518 66.8366 295.037 66.495C296.237 66.1714 297.13 65.5124 297.715 64.5181C298.361 63.4563 298.715 62.3467 298.778 61.1894C298.838 59.9681 298.644 58.7931 298.196 57.6644C297.745 56.4718 297.052 55.5491 296.118 54.8964C294.641 53.6972 292.819 53.2224 290.654 53.472ZM328.164 38.966C329.701 38.9439 331.906 38.8203 334.778 38.5953L337.078 38.4663L337.1 38.8497C337.408 44.3451 337.622 49.8778 337.742 55.4478C337.925 61.0143 338.111 66.6126 338.298 72.243C338.546 77.8058 338.858 83.3651 339.233 88.9208C339.609 94.4765 340.108 99.9611 340.732 105.375C340.25 105.915 339.18 106.263 337.522 106.42C335.932 106.637 334.176 106.768 332.256 106.811C330.399 106.851 328.604 106.856 326.872 106.825C325.143 106.857 323.964 106.988 323.336 107.215C323.461 101.439 323.329 95.6454 322.939 89.8341C322.549 84.0228 322.099 78.279 321.588 72.6027C321.138 66.8589 320.725 61.2091 320.35 55.6535C320.035 50.0303 320.014 44.5188 320.288 39.119L320.278 38.9273C320.594 38.8455 321.202 38.8434 322.104 38.9211C323.066 38.9312 323.771 38.9238 324.218 38.8987C325.372 38.8981 326.687 38.9206 328.164 38.966ZM375.465 90.7359C379.565 90.6984 383.785 90.494 388.123 90.1226L388.133 90.3143C388.376 92.3519 388.528 94.4908 388.589 96.7309C388.647 98.907 388.474 100.968 388.07 102.914C381.549 103.215 374.909 103.683 368.15 104.319C361.451 104.886 354.988 105.088 348.761 104.925C348.45 99.3654 348.078 93.8736 347.646 88.4493C347.21 82.9611 346.808 77.503 346.439 72.0751C346.071 66.6472 345.766 61.2157 345.526 55.7807C345.285 50.3456 345.171 44.8715 345.182 39.3582C347.667 39.0907 350.346 38.8444 353.218 38.6193C356.15 38.3268 359.084 38.0662 362.02 37.8375C364.955 37.6088 367.795 37.3856 370.539 37.1676C373.284 36.9497 375.71 36.7817 377.819 36.6635C379.927 36.5453 381.623 36.4823 382.904 36.4746C384.186 36.4668 384.828 36.4949 384.832 36.5588C385.277 38.7774 385.468 41.0423 385.405 43.3534C385.406 45.661 385.469 47.933 385.595 50.1695L385.6 50.2653C383.58 50.8272 381.52 51.2312 379.418 51.4772C377.377 51.6557 375.302 51.804 373.193 51.9222C371.081 51.9765 368.971 52.0628 366.862 52.181C364.753 52.2992 362.65 52.5132 360.552 52.8231L360.264 52.8392L360.174 52.9405C360.342 54.79 360.353 56.7123 360.209 58.7076C360.125 60.6353 360.354 62.4493 360.898 64.1495L361 64.24C362.924 64.2603 364.876 64.215 366.857 64.1039C368.838 63.9929 370.821 63.9138 372.805 63.8667L372.811 63.9625C373.252 66.1172 373.47 68.2844 373.463 70.4642C373.457 72.6439 373.553 74.9142 373.749 77.2749C372.805 77.5842 371.728 77.8048 370.517 77.9368C369.303 78.0049 368.121 78.0711 366.971 78.1356C365.884 78.1965 364.896 78.2839 364.005 78.398C363.114 78.512 362.516 78.7058 362.21 78.9793C361.995 80.8503 361.983 82.9342 362.176 85.231C362.433 87.5242 362.668 89.4341 362.882 90.9605L362.983 91.051C367.201 90.8146 371.361 90.7096 375.465 90.7359ZM430.637 43.318C432.474 46.3559 433.079 50.2962 432.453 55.1388L432.357 55.1442C430.142 55.653 427.76 56.0429 425.211 56.314C422.659 56.5211 420.247 56.3679 417.974 55.8543C418.261 54.1075 417.829 52.6894 416.678 51.6001C415.527 50.5108 414.176 49.8494 412.625 49.6159C411.073 49.3823 409.581 49.6262 408.147 50.3476C406.777 51.0654 406.014 52.3261 405.859 54.1296C405.756 54.5841 405.717 55.0349 405.742 55.4822C405.828 55.8621 405.915 56.2738 406.004 56.7175C406.601 58.2225 407.489 59.1983 408.668 59.645C409.847 60.0918 411.113 60.3734 412.465 60.4898C415.873 60.6834 419.065 61.5942 422.041 63.2222C425.081 64.8466 427.604 66.9808 429.611 69.6246C430.844 71.0298 431.796 72.579 432.468 74.272C433.136 75.9012 433.552 77.6085 433.716 79.3942C433.945 81.1762 433.919 83.0045 433.639 84.8791C433.42 86.6862 432.974 88.4419 432.3 90.1463C431.644 92.1702 430.717 93.9208 429.518 95.3982C428.318 96.8757 426.913 98.1082 425.302 99.096C423.755 100.08 422.035 100.85 420.143 101.404C418.311 101.892 416.403 102.159 414.419 102.206C411.604 102.3 408.765 101.978 405.903 101.241C403.102 100.436 400.569 99.2644 398.303 97.7248C396.037 96.1852 394.199 94.269 392.788 91.9764C391.374 89.6198 390.677 86.9026 390.697 83.8247L390.681 83.5371L390.665 83.2496C392.883 82.8047 395.34 82.6029 398.034 82.6442C400.725 82.6215 403.155 82.5174 405.324 82.3317C405.567 84.3693 406.451 85.8582 407.978 86.7982C409.569 87.7346 411.196 88.1563 412.857 88.0631C414.579 87.9025 416.016 87.2451 417.169 86.0907C418.386 84.9328 418.741 83.2463 418.232 81.0313C417.954 79.5085 417.311 78.3266 416.302 77.4857C415.29 76.581 414.097 75.8786 412.723 75.3788C411.413 74.8753 409.984 74.5387 408.436 74.3691C406.884 74.1356 405.43 73.9286 404.074 73.7482C402.782 73.5643 401.576 73.2152 400.458 72.701C399.339 72.1868 398.311 71.5713 397.374 70.8547C394.277 68.2079 392.186 65.2162 391.101 61.8796C390.081 58.5395 389.865 55.2505 390.452 52.0125C391.04 48.7745 392.315 45.7865 394.277 43.0484C396.302 40.3068 398.813 38.211 401.808 36.7611C403.306 36.0361 404.976 35.5258 406.819 35.2303C408.657 34.8708 410.507 34.703 412.367 34.727C414.288 34.6834 416.155 34.8351 417.969 35.1821C419.848 35.5256 421.573 36.0057 423.146 36.6227C426.303 38.0482 428.8 40.28 430.637 43.318Z" fill="#712626"/>
<path d="M29.1892 72.7721C29.2371 76.0358 29.4672 78.6247 29.8793 80.5388C30.2915 82.453 31.1393 83.5286 32.423 83.7658L32.327 83.7672L33.1923 83.8505C34.7921 83.8271 35.9713 83.4897 36.7298 82.8385C37.4883 82.1873 37.9561 81.3483 38.133 80.3216C38.374 79.294 38.5768 77.8509 38.7415 75.9922C38.8413 74.0706 39.0395 72.3075 39.336 70.7029C40.6826 70.8752 41.9959 70.9519 43.2758 70.9331L47.7859 70.7709C50.2176 70.7352 52.1722 70.8985 53.6497 71.2609C53.7824 71.579 53.8506 71.866 53.8543 72.122C53.9212 72.313 54.0209 72.5676 54.1536 72.8857L55.5977 73.1525C56.5302 75.6351 57.0157 78.1882 57.0543 80.8119C57.12 85.2915 56.1219 89.2425 54.0599 92.6652C52.0619 96.0869 49.2203 98.7209 45.535 100.567C41.8507 102.477 37.6407 103.467 32.9052 103.537C29.5776 103.586 26.3686 102.993 23.2781 101.758C20.1876 100.523 17.5691 98.7375 15.4226 96.4007C13.3391 93.9991 12.1139 91.2008 11.747 88.0058C11.3331 81.6112 11.0721 74.7343 10.964 67.3751L10.8444 52.6872C10.8943 51.7264 10.9042 50.2221 10.8742 48.1743L10.7627 47.1198C10.7307 44.9441 11.118 42.9862 11.9246 41.2461L11.926 41.3421C13.3377 37.225 15.4684 34.1214 18.318 32.0313C21.2307 29.8763 25.1828 28.7622 30.1742 28.6889C34.5898 28.6241 38.8627 29.7455 42.993 32.0531C47.1233 34.3607 50.465 37.448 53.018 41.3149C55.5701 45.1179 56.8772 49.1311 56.9392 53.3547C56.9758 55.8504 56.5029 58.5136 55.5203 61.3444C53.6711 61.8196 51.6586 62.0731 49.4828 62.1051C46.6671 62.1464 43.4943 61.8409 39.9644 61.1887L39.7498 59.6557C38.8521 59.5408 38.3048 59.3249 38.1081 59.0077C37.9115 58.6906 37.7746 58.0845 37.6974 57.1895C37.6833 56.2296 37.641 55.5262 37.5704 55.0792C37.4989 54.5682 37.4222 53.7052 37.3404 52.4903C37.3216 51.2104 37.0515 50.2543 36.5302 49.6219C36.0079 48.9255 35.1388 48.5862 33.923 48.604C33.219 48.6144 32.421 48.7541 31.5289 49.0232C30.7007 49.2914 30.129 49.5878 29.8137 49.9125C29.6876 50.0423 29.5196 51.677 29.3097 54.8164C29.0988 57.8918 29.0347 62.2452 29.1174 67.8766L29.1892 72.7721ZM32.3449 45.7469C34.0727 45.7215 35.3591 46.1507 36.2042 47.0344C37.0483 47.8541 37.6073 48.87 37.8811 50.0821C38.1549 51.2942 38.3709 52.9232 38.5289 54.9691C38.5345 55.3531 38.5745 55.8965 38.6489 56.5995C38.7232 57.3025 38.7961 57.9095 38.8676 58.4205C41.6927 59.0191 44.5771 59.2968 47.5208 59.2536C49.3126 59.2273 51.1016 59.009 52.8877 58.5987C53.6868 56.3467 54.068 53.9729 54.0313 51.4772C53.9721 47.4456 52.8298 43.75 50.6042 40.3903C48.3786 37.0306 45.4275 34.3856 41.7508 32.4554C38.138 30.5242 34.2839 29.5887 30.1883 29.6488C25.8368 29.7127 22.2028 30.6941 19.2864 32.5932C16.369 34.4282 14.2049 37.4363 12.7941 41.6174C12.0535 43.4845 11.6953 45.2499 11.7198 46.9138C11.7282 47.4897 11.7659 47.8732 11.8327 48.0642C11.8618 50.048 11.8514 51.5203 11.8015 52.4812L11.9239 67.361C12.031 74.6562 12.2915 81.5011 12.7055 87.8957C13.1533 92.2416 15.153 95.4766 18.7046 97.6007C22.2561 99.7248 26.3357 100.753 30.9432 100.685C35.4227 100.62 39.4416 99.6965 42.9998 97.9161C46.5571 96.0717 49.3042 93.5351 51.241 90.3063C53.2409 87.0126 54.2093 83.222 54.1464 78.9344C54.1107 76.5027 53.7254 74.2361 52.9904 72.1347C51.7699 71.8325 50.1037 71.697 47.9919 71.728L42.9059 71.8987C42.202 71.909 41.2731 71.8586 40.1194 71.7476C39.8766 72.6472 39.7057 74.0899 39.6068 76.0755C39.5061 77.9332 39.3047 79.4723 39.0026 80.6929C38.7635 81.8485 38.1697 82.8174 37.221 83.5994C36.3364 84.3804 34.9662 84.7846 33.1104 84.8119C30.3587 84.8522 28.5142 83.4712 27.577 80.6686C26.7028 77.8012 26.2319 74.0637 26.1642 69.4562L26.1135 66.0005C26.0252 59.9852 26.1185 55.4393 26.3933 52.363C26.6682 49.2866 26.9318 47.6185 27.184 47.3588C27.6884 46.8394 28.4507 46.4441 29.4708 46.1731C30.4909 45.9021 31.449 45.76 32.3449 45.7469ZM100.6 101.007C98.0472 101.492 96.0028 101.746 94.4669 101.769C91.5232 101.812 88.6389 101.535 85.8138 100.936C85.5465 100.172 85.3155 99.6951 85.1207 99.506C84.9259 99.3168 84.7 99.1921 84.4431 99.1319C84.1872 99.1356 83.9947 99.1064 83.8658 99.0443C83.3304 97.452 82.5884 94.8706 81.6399 91.3002C81.0969 89.1959 80.6264 87.6667 80.2284 86.7124C79.8943 85.7572 79.5353 85.2824 79.1513 85.2881C78.6394 85.2956 78.1919 85.3341 77.8089 85.4038C77.4889 85.4085 77.041 85.415 76.465 85.4235C76.0349 86.6459 75.6156 88.6043 75.2071 91.2986C74.7318 93.8018 74.313 95.7922 73.9507 97.2697C73.5883 98.7472 73.065 100.163 72.3808 101.517C72.1889 101.52 71.9014 101.556 71.5183 101.626C71.1993 101.695 70.7838 101.733 70.2719 101.74C69.567 101.687 68.0947 101.676 65.855 101.709L61.726 101.674L56.6371 101.652L56.8969 99.7283L54.6892 99.7607L55.9287 92.6377C57.5683 82.2445 59.3703 72.009 61.3346 61.9311C63.2979 51.7892 65.8014 41.3833 68.8451 30.7135C69.9951 30.5686 70.6661 30.4947 70.8581 30.4919C71.114 30.4881 71.9464 30.5079 73.3552 30.5512C74.764 30.5946 77.7049 30.3594 82.1778 29.8456C82.4498 30.9298 82.6201 31.6313 82.6888 31.9504L84.1258 31.7373C84.7496 34.9924 86.8951 43.7939 90.5621 58.1416C91.919 63.3703 92.6318 66.1441 92.7005 66.4631L100.6 101.007ZM81.4254 30.9128C78.6135 31.2101 75.8316 31.379 73.0799 31.4194L71.0641 31.449C70.2962 31.4602 69.8168 31.4993 69.6257 31.5661C66.7053 41.9141 64.2926 51.9666 62.3876 61.7236C60.5466 71.4797 58.715 81.8757 56.8929 92.9116C56.7187 94.1303 56.5437 95.285 56.3676 96.3757C56.1907 97.4024 56.0425 98.2047 55.9229 98.7825L56.1163 98.8757L58.4201 98.8418L66.0047 98.8265C66.6455 98.8811 67.4139 98.9018 68.3098 98.8887C69.0137 98.8783 69.4292 98.8402 69.5563 98.7744L69.8428 98.6741C70.4047 97.7058 70.8357 96.5473 71.136 95.1988C71.4362 93.8502 71.7619 92.0533 72.1129 89.8079C72.7003 86.2148 73.273 83.8062 73.831 82.5819C74.535 82.5715 75.1109 82.5631 75.5589 82.5565C76.0059 82.4859 76.3574 82.4488 76.6133 82.445L77.8612 82.4267L79.7838 82.5905C80.3127 83.7348 80.8481 85.3271 81.3901 87.3674C81.9961 89.4067 82.3669 90.6814 82.5024 91.1915C83.1865 94.1898 83.8607 96.5161 84.525 98.1706L84.621 98.1691C87.1252 98.7084 89.7532 98.9579 92.5049 98.9175C94.1047 98.894 95.7662 98.7096 97.4893 98.3643L97.4879 98.2683L89.7954 64.7776L81.4254 30.9128ZM72.9928 71.2649C73.6771 65.5583 73.991 62.9614 73.9346 63.4743C74.3836 59.1792 74.754 56.0695 75.0457 54.145C75.4006 52.1555 75.77 51.158 76.1539 51.1524C76.6019 51.1458 77.1039 52.6426 77.66 55.6427C78.2801 58.642 79.0921 63.8146 80.0961 71.1607L75.298 71.3271L72.9928 71.2649ZM77.5216 59.2932L76.1464 70.2585L78.9301 70.2177L77.5216 59.2932ZM136.151 32.8937C136.311 35.0676 136.403 36.9864 136.428 38.6502C136.471 41.5939 136.266 45.0533 135.812 49.0284C133.759 48.7385 132.285 48.6001 131.389 48.6133C129.662 48.6386 127.295 48.7694 124.29 49.0055L123.81 49.0126C123.755 49.5894 123.748 51.2857 123.789 54.1014C123.878 60.1808 124.328 75.5358 125.137 100.167C123.669 100.444 121.655 100.602 119.096 100.639L116.312 100.68C112.728 100.733 109.947 100.934 107.968 101.283C107.771 100.966 107.601 100.264 107.457 99.178L106.02 99.3912C105.692 98.8199 105.514 97.6064 105.487 95.7506L105.367 81.0628C105.233 71.9118 104.789 61.2931 104.035 49.2069C103.522 49.1504 102.722 49.1302 101.634 49.1461C101.25 49.1518 100.546 49.1621 99.5222 49.1771C98.5623 49.1912 97.6659 49.1724 96.8331 49.1206C96.0642 49.0679 95.326 48.9187 94.6183 48.6731C94.5524 48.546 94.4856 48.355 94.4178 48.0999C94.4141 47.844 94.2828 47.6219 94.024 47.4337C93.7652 47.2454 93.314 47.028 92.6703 46.7814C92.4717 46.3363 92.2629 45.1873 92.0436 43.3343C91.8884 41.4804 91.7948 39.4655 91.7629 37.2897C91.7121 33.8341 91.708 31.3699 91.7503 29.8971C95.7819 29.8379 98.8211 29.7613 100.868 29.6673L110.082 29.436C119.361 29.2998 127.109 29.5381 133.327 30.1508L134.203 31.0021L134.217 31.962L135.275 32.0425L136.151 32.8937ZM92.7243 30.8429L92.8231 31.0335C92.7074 31.8673 92.6612 33.0841 92.6847 34.6839C92.7871 41.6592 93.035 45.464 93.4283 46.0983C93.7502 46.2215 94.743 46.271 96.4068 46.2465C98.6466 46.2137 100.407 46.2518 101.689 46.361C102.97 46.4062 104.062 46.6462 104.964 47.081L105.061 47.1756C105.744 58.8148 106.169 70.3298 106.337 81.7206C106.409 86.6481 106.407 90.9046 106.332 94.49L106.374 97.3697L106.484 98.3282C107.634 98.1193 108.88 98.005 110.224 97.9853L114.255 97.9261C118.031 97.8707 120.685 97.7037 122.217 97.4252L122.214 97.2332C121.405 72.6664 120.961 57.6633 120.881 52.2239L120.83 48.7683C120.812 47.4884 120.864 46.7196 120.989 46.4617L121.08 46.1723L121.368 46.1681C124.693 45.9273 127.316 45.7928 129.235 45.7646C130.771 45.742 132.052 45.8192 133.079 45.9962C133.422 43.1749 133.569 40.1004 133.52 36.7727C133.5 35.4289 133.408 33.542 133.245 31.1122C126.9 30.5652 119.184 30.3585 110.097 30.4919L92.7243 30.8429ZM182.475 86.0754C182.631 87.9933 182.717 89.4642 182.732 90.4881C182.777 93.5598 182.438 96.6371 181.715 99.72C178.9 99.7614 174.677 99.8874 169.048 100.098L156.57 100.377C150.875 100.461 145.561 100.347 140.628 100.035L140.601 98.2114L138.68 98.1436C138.631 94.816 138.542 90.9448 138.413 86.5303C138.284 82.1157 138.171 78.757 138.073 76.4542C137.78 69.5457 137.582 62.6039 137.479 55.6286C137.361 47.5655 137.495 39.2426 137.881 30.66C142.869 30.3308 148.625 30.0543 155.151 29.8305C161.739 29.5417 167.177 29.3659 171.465 29.3029C176.52 29.2287 179.182 29.5737 179.449 30.3378C179.455 30.7858 179.556 31.1363 179.752 31.3895C180.011 31.5777 180.333 31.733 180.719 31.8553C181.105 31.9777 181.331 32.1024 181.397 32.2294L181.395 32.1334C181.673 33.6015 181.826 35.2955 181.854 37.2153C181.869 38.2391 181.828 39.7759 181.73 41.8256C181.634 44.0032 181.594 45.668 181.611 46.8199C178.359 47.6357 174.237 48.0802 169.245 48.1535L165.79 48.2043L162.045 48.1632C160.061 48.1924 158.078 48.3175 156.097 48.5386C156.112 49.4985 156.066 50.7473 155.96 52.285L155.911 55.4541L155.924 56.318L157.653 56.3886L161.395 56.2376C161.715 56.2329 163.316 56.3054 166.199 56.4551C166.266 56.6462 166.334 56.9652 166.405 57.4122C166.474 57.7952 166.606 58.0493 166.8 58.1745C167.058 58.2987 167.507 58.3561 168.147 58.3468C168.491 60.0059 168.68 61.9553 168.713 64.1951C168.742 66.1789 168.732 67.6832 168.683 68.708L168.655 73.3169C166.742 73.857 164.282 74.1492 161.275 74.1933C158.907 74.2281 157.468 74.3132 156.958 74.4487C156.78 75.4114 156.706 76.8847 156.735 78.8685C156.763 80.7883 156.815 82.1637 156.891 82.9946C164.576 83.2659 170.658 83.3686 175.138 83.3028C176.674 83.2803 178.464 83.19 180.51 83.0319L180.527 84.1838L180.636 85.0463C181.404 85.035 182.011 84.9941 182.458 84.9235L182.475 86.0754ZM179.566 84.1019C178.607 84.18 177.232 84.2322 175.44 84.2585C173.84 84.282 171.984 84.2772 169.871 84.2442C167.758 84.2112 166.126 84.1712 164.973 84.1241C161.514 83.9829 157.993 83.9386 154.41 83.9912L154.312 83.8966C154.033 82.3005 153.871 79.9986 153.827 76.991C153.797 74.9432 153.9 73.2455 154.136 71.8979C154.389 71.7021 154.963 71.5657 155.858 71.4886C156.753 71.4114 157.745 71.3648 158.833 71.3489C162.16 71.3 164.461 71.0742 165.735 70.6715L165.709 62.319C165.676 60.0792 165.555 58.4168 165.347 57.3317L165.346 57.2357C163.618 57.2611 162.306 57.2484 161.409 57.1975C157.889 57.2492 155.265 57.2237 153.535 57.1211L153.438 57.0265C153.168 56.0704 153.022 54.8564 153 53.3846C152.987 52.4887 153.032 51.2079 153.136 49.5422L153.177 45.7971L153.559 45.6955C154.709 45.5506 155.956 45.4683 157.3 45.4486C158.644 45.4288 159.54 45.4157 159.988 45.4091L167.571 45.2978C172.243 45.2292 175.949 44.8548 178.692 44.1744L178.69 44.0784L178.72 39.5655C178.818 37.5159 178.86 35.9791 178.844 34.9552C178.823 33.4834 178.705 31.9809 178.49 30.4479C178.487 30.2559 176.15 30.1942 171.479 30.2628C161.496 30.4094 150.589 30.8575 138.759 31.6073C138.466 37.8202 138.387 45.5022 138.521 54.6532C138.591 59.3887 138.758 66.427 139.023 75.7681C139.32 82.8686 139.521 90.0344 139.627 97.2656C143.407 97.5301 148.049 97.622 153.552 97.5412C156.304 97.5008 160.559 97.3743 166.316 97.1618L178.986 96.8798C179.589 94.3747 179.869 91.6503 179.826 88.7066C179.811 87.6827 179.725 86.2118 179.569 84.2939L179.566 84.1019ZM203.391 62.5338C203.583 62.531 203.68 62.5936 203.681 62.7216L203.871 62.5268C205.012 61.806 207.599 61.416 211.63 61.3568C214.062 61.3211 216.944 61.4068 220.275 61.6139L224.021 61.7509L225.175 61.83C225.179 62.15 225.252 62.757 225.393 63.651L227.123 63.7216C227.195 64.2966 227.381 66.0221 227.679 68.898C227.977 71.7739 228.144 74.3958 228.178 76.7635C228.239 80.9231 228.031 84.1905 227.554 86.5657L227.553 86.4697C227.055 91.7896 224.709 95.5365 220.517 97.7102C216.325 99.948 211.19 101.112 205.111 101.201C200.887 101.263 197.16 100.261 193.929 98.1966C190.763 96.1308 188.289 93.3188 186.509 89.7606C184.792 86.2014 183.902 82.2461 183.838 77.8945C183.119 72.5285 182.722 67.2538 182.646 62.0703L182.57 56.8869C182.491 51.5115 182.838 46.8658 183.613 42.9501C184.451 38.9693 186.417 35.5801 189.512 32.7824C192.608 29.9846 197.259 28.5402 203.466 28.4491C207.69 28.3871 211.575 29.2261 215.121 30.9663C218.73 32.6415 221.613 35.0634 223.772 38.232C225.93 41.3367 227.039 44.9688 227.1 49.1284C227.104 49.3843 227.114 50.0243 227.129 51.0481C227.144 52.072 226.899 52.8437 226.395 53.3632C225.954 53.8817 225.19 54.1489 224.102 54.1649L220.454 54.2185C220.007 54.225 219.175 54.2692 217.96 54.3511C216.808 54.368 215.174 54.232 213.058 53.943C212.991 53.752 212.923 53.4969 212.854 53.1779C212.786 52.8589 212.622 52.6373 212.365 52.513C212.17 52.3239 211.751 52.17 211.11 52.0514C210.574 50.4591 210.141 49.3133 209.811 48.6141C209.481 47.9149 208.928 47.3149 208.152 46.8142C207.377 46.3136 206.285 46.0736 204.878 46.0942C204.75 46.0961 204.366 46.1018 203.726 46.1112C203.086 46.1206 202.578 46.384 202.201 46.9016C201.888 47.3543 201.579 48.1269 201.275 49.2195C200.118 53.2689 199.597 59.1652 199.711 66.9083L199.771 71.0359C199.81 73.6596 199.971 75.9295 200.255 77.8455C200.539 79.7616 201.076 81.4179 201.864 82.8144L203.02 83.0855L202.924 83.0869C203.181 83.1471 203.598 83.173 204.174 83.1646C205.837 83.1401 207.273 82.831 208.48 82.2373L208.385 82.2387C209.275 81.8415 209.907 81.3202 210.282 80.6746C210.655 79.9651 210.988 78.6481 211.28 76.7236L209.456 76.7503C207.856 76.7738 206.606 76.6322 205.705 76.3254C205.567 75.6233 205.401 75.1777 205.206 74.9885C205.075 74.7984 204.849 74.6737 204.528 74.6144C204.271 74.5542 204.014 74.494 203.757 74.4337C203.473 72.5177 203.316 70.5038 203.285 68.392C203.241 65.3844 203.18 63.433 203.103 62.5381L203.391 62.5338ZM204.08 63.6759C204.22 64.5059 204.295 65.3049 204.307 66.0728C204.318 66.8407 204.325 67.3206 204.328 67.5126L204.367 70.2003L204.386 71.4482C204.4 72.4081 204.475 73.1751 204.611 73.7491C204.741 73.8752 205.094 73.9341 205.67 73.9256L210.372 73.7606L211.044 73.7507C211.428 73.7451 211.686 73.8693 211.818 74.1234C212.013 74.3125 212.115 74.7591 212.125 75.463C212.177 78.9826 211.475 81.2972 210.019 82.4067C208.563 83.5162 206.555 84.0897 203.996 84.1273C201.244 84.1677 199.368 82.7871 198.366 79.9855C197.365 77.1839 196.834 73.7033 196.773 69.5437L196.803 65.0308C196.734 60.3593 196.926 56.004 197.379 51.965C197.831 47.8619 198.498 45.3558 199.381 44.4468C199.885 43.9273 200.36 43.6003 200.807 43.4657C201.317 43.3302 201.988 43.2564 202.819 43.2441L205.221 43.3049C206.884 43.2805 208.241 44.0927 209.289 45.7415C210.401 47.3893 211.26 49.2009 211.865 51.1762C213.852 51.4031 215.518 51.5066 216.862 51.4869C221.47 51.4193 223.835 51.2245 223.958 50.9027L224.046 50.3253C224.153 48.9156 224.202 47.8908 224.193 47.2508C224.108 41.4915 222.123 37.0721 218.237 33.9928C214.351 30.8495 209.432 29.3216 203.48 29.409C197.465 29.4973 192.94 30.8438 189.906 33.4486C187.247 35.4079 185.468 38.4743 184.569 42.648C183.733 46.7567 183.352 51.3388 183.426 56.3942L183.617 62.8241C183.721 69.9274 184.129 75.906 184.84 80.7601C185.551 85.5502 187.308 89.7169 190.112 93.2601C192.98 96.7384 197.325 98.4348 203.148 98.3493C208.844 98.2656 213.725 97.2019 217.791 95.158C221.858 93.1141 224.142 89.5601 224.643 84.4962C225.121 82.121 225.33 78.9176 225.27 74.886C225.227 71.9423 224.912 67.9145 224.325 62.8026L224.036 62.7108L220.865 62.5653C217.406 62.3601 214.268 62.2781 211.452 62.3195C207.741 62.374 205.378 62.7287 204.363 63.3837L204.078 63.5799L204.08 63.6759ZM271.661 40.5053C272.52 42.2849 273.059 44.1332 273.279 46.0502C273.562 47.9022 273.724 50.1721 273.763 52.8598L273.85 58.8111C273.864 59.771 273.867 62.1073 273.857 65.8198C273.848 69.5323 273.738 72.9583 273.528 76.0977L273.287 79.2696C272.861 85.1645 271.647 89.6628 269.644 92.7645C267.889 95.2866 265.26 97.1494 261.758 98.3529C258.32 99.6195 254.777 100.28 251.129 100.333C246.778 100.397 243.024 99.7481 239.868 98.3862C236.712 97.0884 234.277 94.7239 232.563 91.2927L232.564 91.3887C231.515 89.6759 230.814 87.702 230.461 85.4669C230.108 83.2319 229.877 80.547 229.767 77.4123C229.745 75.9404 229.697 74.853 229.623 74.15C229.223 68.7153 228.989 63.6622 228.92 58.9907L228.868 55.4391C228.784 49.7437 229.223 44.7447 230.184 40.4422C231.145 36.1396 233.275 33.004 236.575 31.0353C240.577 28.9924 244.978 27.9356 249.778 27.8652C253.105 27.8163 256.345 28.3448 259.498 29.4507C262.713 30.4916 265.233 32.0868 267.057 34.2362C269.2 36.317 270.735 38.4387 271.663 40.6013L271.661 40.5053ZM249.793 28.9211C246.849 28.9643 244.007 29.39 241.267 30.1984C238.526 30.9427 236.398 32.094 234.885 33.6524C232.682 36.181 231.255 39.2743 230.605 42.9322C230.017 46.5253 229.758 50.6895 229.828 55.425L229.877 58.7846C229.915 61.3444 230.021 64.2231 230.196 67.4209C230.37 70.5547 230.499 72.761 230.581 74.0399L230.961 80.275C231.186 86.8645 232.821 91.4169 235.866 93.9325C238.974 96.3831 243.408 97.5662 249.167 97.4816C252.687 97.43 256.102 96.8038 259.413 95.603C262.788 94.4014 265.29 92.6364 266.92 90.3083C268.859 87.2075 270.011 82.8701 270.377 77.2961L270.619 74.1242C270.879 70.024 270.967 65.1581 270.885 59.5268L270.742 49.8318C270.707 47.4641 270.55 45.4501 270.27 43.7901C270.053 42.1291 269.582 40.5358 268.855 39.0103C267.589 35.5726 265.183 33.0156 261.638 31.3394C258.093 29.6633 254.145 28.8572 249.793 28.9211ZM258.996 67.1901L259.044 70.4537C259.092 73.7174 258.997 76.023 258.761 77.3706C258.589 78.7173 258.03 79.9096 257.086 80.9476C256.332 81.9188 255.319 82.6697 254.046 83.2005C252.774 83.7312 251.466 84.0064 250.122 84.0262C247.69 84.0619 245.826 83.4812 244.528 82.2841C243.293 81.0221 242.439 79.4985 241.964 77.7132C241.554 75.9271 241.232 73.5956 240.998 70.7187C240.84 68.6728 240.69 67.2348 240.55 66.4048C240.39 64.2309 240.302 62.6 240.286 61.5121C240.098 48.6495 243.555 42.1661 250.658 42.0618C253.922 42.0139 256.056 43.5507 257.062 46.6723C258.067 49.7298 258.593 52.8585 258.64 56.0581L258.928 62.5826L258.996 67.1901ZM257.675 55.6882C257.603 55.1772 257.489 53.9308 257.332 51.9489C257.238 49.902 256.797 48.2123 256.009 46.8797C255.286 45.5462 254.188 44.8903 252.716 44.9119C250.732 44.941 248.92 45.7357 247.279 47.296C245.637 48.8562 244.576 50.696 244.095 52.8153L244.094 52.7193C243.495 55.5444 243.227 59.1007 243.29 63.3882C243.321 65.5 243.377 67.0994 243.457 68.1863L243.455 68.0903C243.738 69.8784 243.956 71.6674 244.11 73.4573C244.18 73.8403 244.291 74.8948 244.445 76.6207C244.662 78.3457 245.006 79.9728 245.476 81.5021L245.379 81.4075L245.675 81.9792C246.967 82.7284 248.444 83.0907 250.108 83.0663C252.732 83.0278 254.83 82.1009 256.404 80.2856L256.309 80.383C257.189 79.2819 257.718 78.2181 257.894 77.1913C258.071 76.1006 258.136 74.0195 258.091 70.9478L258.036 67.2042L257.968 62.5967L257.68 56.0722L257.675 55.6882ZM275.163 27.8765C279.761 27.169 283.401 26.6355 286.084 26.276C288.831 25.9157 291.645 25.7144 294.524 25.6721C299.708 25.596 304.164 26.1386 307.894 27.3C311.687 28.4604 314.885 30.4937 317.488 33.3998C322.179 39.0276 324.561 44.2732 324.632 49.1367C324.673 51.8884 324.106 54.713 322.932 57.6105C321.758 60.4441 320.034 62.9016 317.76 64.9832C315.486 67.0648 312.784 68.2886 309.653 68.6546C310.835 70.6855 312.897 73.7916 315.838 77.9728C318.453 81.6469 320.58 84.848 322.22 87.5762C323.86 90.3044 325.279 93.2279 326.477 96.3467L327.072 97.5861L325.728 97.6058C324.704 97.6208 322.977 97.7102 320.547 97.8739C317.733 98.0432 315.59 98.1387 314.119 98.1603C312.775 98.18 311.078 98.1409 309.028 98.043C308.898 97.8529 308.765 97.5668 308.632 97.1847C308.499 96.8666 308.303 96.6135 308.044 96.4252C307.85 96.2361 307.528 96.1448 307.08 96.1514C303.637 88.3291 300.116 81.724 296.516 76.3363L296.553 78.832C296.579 80.6238 296.795 84.3971 297.199 90.1518C297.431 92.8367 297.56 95.075 297.586 96.8668C296.251 97.5265 294.754 97.9645 293.093 98.1809C291.496 98.3964 289.577 98.5206 287.337 98.5534L283.113 98.5195L277.545 98.6012C277.462 97.3223 277.41 95.9469 277.389 94.475L277.164 85.7414L277.05 77.9662C276.904 67.9833 276.625 57.7463 276.215 47.2552C275.869 36.7631 275.518 30.3036 275.163 27.8765ZM306.636 65.9146C309.896 65.6107 312.665 64.514 314.941 62.6244C317.217 60.6708 318.91 58.3096 320.022 55.541C321.133 52.7724 321.669 50.0122 321.628 47.2605C321.578 43.8689 320.667 40.6179 318.893 37.5076C317.183 34.3964 314.778 31.8714 311.677 29.9328C308.64 27.9931 305.265 26.9866 301.551 26.9131C299.436 26.6881 297.066 26.5949 294.443 26.6334C291.563 26.6757 288.845 26.8756 286.29 27.2331C283.798 27.5257 280.477 27.9905 276.326 28.6275C276.673 30.4787 277.013 36.1703 277.345 45.7024C277.677 55.2346 277.922 65.4081 278.081 76.2229L278.226 86.1099C278.271 89.1815 278.27 91.3258 278.224 92.5426L278.268 95.5182C278.461 95.5794 278.685 95.6081 278.941 95.6044C279.773 95.5922 280.446 95.6143 280.958 95.6708L284.799 95.7104C287.167 95.6756 289.15 95.5825 290.748 95.431C292.345 95.2156 293.652 94.8763 294.67 94.4134C294.065 88.0856 293.724 82.2979 293.647 77.0505C293.611 74.6188 293.677 72.6016 293.846 70.9989L294.042 71.2841C296.517 74.1921 298.972 77.9004 301.406 82.4092C303.84 86.8539 305.95 91.1114 307.738 95.1816L307.834 95.1802C310.012 95.2762 311.677 95.3158 312.828 95.2989C314.236 95.2782 316.219 95.1851 318.777 95.0195C321.079 94.8577 322.71 94.7698 323.67 94.7557C322.473 91.7009 320.989 88.7464 319.219 85.8921C317.448 82.9738 315.288 79.7091 312.739 76.0981C312.084 75.0837 311.037 73.5628 309.599 71.5357C308.224 69.4437 307.077 67.6043 306.158 66.0177L306.636 65.9146ZM297.33 40.2245C299.506 40.1925 301.308 40.8381 302.735 42.1613C304.162 43.4205 304.892 45.17 304.925 47.4098C304.958 49.7135 304.31 51.3552 302.981 52.3348C301.715 53.3135 299.61 53.8245 296.667 53.8677C294.683 53.8968 292.89 53.8271 291.287 53.6586L291.191 53.66C290.983 52.575 290.854 50.3366 290.804 46.945L290.538 41.8604C292.826 40.8026 295.091 40.2573 297.33 40.2245ZM299.292 43.076C297.501 43.1023 295.555 43.5469 293.455 44.4098C293.608 46.0717 293.693 47.5426 293.712 48.8225L293.657 51.6076L293.773 52.9501L296.652 52.9078C298.124 52.8862 299.531 52.7695 300.872 52.5578L300.776 52.5592C301.86 52.2873 302.683 51.6991 303.246 50.7948C303.808 49.8264 304.08 48.7023 304.061 47.4224C304.018 44.4788 302.428 43.0299 299.292 43.076ZM345.118 28.1937L347.038 28.1655L347.058 29.5093C347.132 34.5648 347.165 39.0128 347.158 42.8533C347.15 46.6938 347.133 49.8944 347.107 52.4551C347.003 62.8257 346.991 70.6988 347.069 76.0742C347.172 83.0494 347.464 89.8619 347.946 96.5115C346.937 97.5505 344.608 98.0967 340.961 98.1502L336.64 98.1177C335.679 98.0678 334.335 98.0555 332.607 98.0809C331.199 98.1015 329.826 98.2817 328.486 98.6214L328.549 96.3162C327.463 96.4602 326.793 96.5981 326.538 96.7298C326.89 90.1319 327.025 84.1133 326.945 78.6739C326.892 75.0263 326.813 71.8271 326.709 69.0763C326.603 66.2616 326.505 63.9588 326.415 62.1679C326.052 54.8764 325.843 49.3429 325.787 45.5673C325.695 39.296 325.921 32.86 326.464 26.2593C327.358 26.1182 327.933 26.0457 328.189 26.0419C329.981 26.0156 331.838 26.0524 333.759 26.1522C335.234 26.3226 337.155 26.3904 339.523 26.3556L345.09 26.2739L345.118 28.1937ZM339.633 27.3141C338.097 27.3366 335.6 27.2773 332.141 27.136C330.22 27.0362 328.747 26.9939 327.723 27.0089L327.339 27.0145L327.342 27.2065C326.842 32.3984 326.643 38.482 326.746 45.4572C326.8 49.1688 326.88 52.4 326.984 55.1508C327.089 57.9015 327.186 60.2044 327.278 62.0592C327.644 69.6066 327.856 75.3321 327.914 79.2357C327.993 84.6111 327.88 89.9894 327.575 95.3704C328.469 95.2293 329.204 95.1545 329.78 95.146C330.547 95.1348 331.956 95.1781 334.006 95.276C336.312 95.3702 338.104 95.4079 339.384 95.3891C342.456 95.344 344.338 94.9643 345.032 94.2501C344.547 87.3444 344.252 80.372 344.149 73.3328C344.072 68.0853 344.087 60.4043 344.195 50.2896C344.221 47.7289 344.239 44.5603 344.247 40.7838C344.256 37.0073 344.223 32.6233 344.15 27.6318L344.144 27.2479L339.633 27.3141ZM395.921 82.9418C396.077 84.8597 396.163 86.3306 396.178 87.3545C396.223 90.4262 395.884 93.5035 395.161 96.5864C392.346 96.6278 388.123 96.7538 382.493 96.9644L370.016 97.2436C364.321 97.3272 359.007 97.2132 354.073 96.9016L354.047 95.0778L352.125 95.01C352.077 91.6824 351.988 87.8113 351.859 83.3967C351.73 78.9821 351.617 75.6234 351.519 73.3206C351.226 66.4121 351.028 59.4703 350.925 52.495C350.807 44.4319 350.941 36.1091 351.327 27.5265C356.314 27.1972 362.071 26.9207 368.596 26.6969C375.185 26.4081 380.623 26.2323 384.91 26.1693C389.966 26.0951 392.627 26.4401 392.895 27.2042C392.901 27.6522 393.002 28.0027 393.198 28.2559C393.457 28.4441 393.779 28.5994 394.165 28.7218C394.551 28.8441 394.777 28.9688 394.842 29.0958L394.841 28.9999C395.119 30.4679 395.272 32.1619 395.3 34.0817C395.315 35.1056 395.273 36.6423 395.175 38.692C395.079 40.8696 395.04 42.5344 395.057 43.6863C391.804 44.5021 387.682 44.9467 382.691 45.0199L379.235 45.0707L375.49 45.0296C373.507 45.0588 371.524 45.1839 369.543 45.405C369.557 46.3649 369.512 47.6137 369.406 49.1514L369.357 52.3205L369.369 53.1844L371.099 53.255L374.841 53.104C375.161 53.0994 376.762 53.1719 379.644 53.3216C379.711 53.5126 379.78 53.8316 379.851 54.2786C379.92 54.6617 380.052 54.9157 380.246 55.0409C380.504 55.1651 380.953 55.2226 381.592 55.2132C381.937 56.8723 382.125 58.8217 382.158 61.0615C382.187 63.0453 382.178 64.5496 382.129 65.5744L382.1 70.1833C380.188 70.7235 377.728 71.0156 374.72 71.0598C372.353 71.0945 370.914 71.1796 370.404 71.3151C370.226 72.2779 370.151 73.7511 370.18 75.7349C370.209 77.6547 370.261 79.0301 370.337 79.861C378.022 80.1323 384.104 80.235 388.584 80.1692C390.119 80.1467 391.91 80.0564 393.956 79.8983L393.973 81.0502L394.082 81.9127C394.85 81.9014 395.457 81.8605 395.904 81.7899L395.921 82.9418ZM393.012 80.9683C392.053 81.0464 390.677 81.0986 388.886 81.1249C387.286 81.1484 385.43 81.1436 383.317 81.1106C381.204 81.0777 379.571 81.0376 378.418 80.9905C374.96 80.8493 371.439 80.805 367.855 80.8576L367.758 80.763C367.479 79.1669 367.317 76.8651 367.273 73.8574C367.243 71.8096 367.346 70.1119 367.582 68.7643C367.835 68.5686 368.409 68.4321 369.304 68.355C370.199 68.2778 371.19 68.2313 372.278 68.2153C375.606 68.1664 377.907 67.9406 379.181 67.5379L379.154 59.1854C379.122 56.9456 379.001 55.2832 378.793 54.1981L378.792 54.1022C377.064 54.1275 375.752 54.1148 374.855 54.0639C371.335 54.1156 368.711 54.0901 366.981 53.9875L366.883 53.8929C366.613 52.9368 366.468 51.7228 366.446 50.251C366.433 49.3551 366.478 48.0743 366.582 46.4086L366.623 42.6636L367.005 42.5619C368.155 42.417 369.402 42.3347 370.746 42.315C372.09 42.2953 372.986 42.2821 373.434 42.2755L381.017 42.1642C385.688 42.0956 389.395 41.7212 392.138 41.0408L392.136 40.9449L392.166 36.4319C392.264 34.3823 392.305 32.8455 392.29 31.8216C392.269 30.3498 392.151 28.8473 391.936 27.3143C391.933 27.1223 389.596 27.0606 384.925 27.1292C374.942 27.2758 364.035 27.7239 352.205 28.4737C351.912 34.6866 351.833 42.3686 351.967 51.5196C352.037 56.2551 352.204 63.2934 352.469 72.6346C352.765 79.735 352.967 86.9008 353.073 94.132C356.853 94.3965 361.495 94.4884 366.998 94.4076C369.75 94.3672 374.005 94.2408 379.762 94.0282L392.431 93.7462C393.035 91.2411 393.315 88.5167 393.271 85.573C393.256 84.5491 393.171 83.0782 393.015 81.1603L393.012 80.9683ZM440.807 50.6954C437.998 51.1847 435.378 51.4472 432.946 51.4829C429.938 51.5271 427.31 51.2456 425.061 50.6386C425.122 50.4457 425.147 49.9652 425.136 49.1973C424.238 49.0825 423.564 48.9324 423.113 48.747C423.174 48.5541 423.2 48.1376 423.19 47.4977C423.171 46.1538 422.838 45.2626 422.191 44.8241C421.545 44.3855 420.645 44.1747 419.493 44.1916C418.214 44.2104 417.131 44.6103 416.247 45.3914C415.362 46.1725 414.931 47.2989 414.952 48.7708C414.967 49.7947 415.201 50.4633 415.654 50.7767C416.105 51.0261 416.652 51.1781 417.293 51.2327C417.933 51.2873 418.382 51.3447 418.639 51.4049C422.615 51.9226 426.381 53.4035 429.938 55.8476C433.557 58.2267 436.448 61.1606 438.612 64.6492C440.838 68.0729 441.978 71.5765 442.031 75.1601C442.093 79.4477 441.189 83.2373 439.317 86.5292C437.445 89.821 434.922 92.3543 431.748 94.1291C428.639 95.967 425.228 96.9131 421.516 96.9676C417.293 97.0296 413.119 96.1308 408.995 94.2711C404.873 92.4754 401.475 89.965 398.804 86.7399C396.195 83.4498 394.862 79.853 394.805 75.9494L394.883 74.7002L394.863 73.3563C396.587 73.075 398.441 72.9197 400.425 72.8906L405.994 72.9049C407.274 72.9501 409.099 72.9553 411.466 72.9205C411.477 73.6245 411.582 74.263 411.782 74.8361L413.414 74.8122C413.438 76.412 413.806 77.5267 414.52 78.1563C415.232 78.7219 416.292 78.9944 417.7 78.9737C419.108 78.953 420.286 78.5517 421.235 77.7697C422.183 76.9877 422.647 75.8927 422.627 74.4849C422.597 72.5011 421.841 71.1361 420.358 70.3897C418.875 69.6434 417.364 69.1536 415.824 68.9201C414.284 68.6227 413.289 68.4453 412.84 68.3879L411.396 68.1211C409.47 67.7653 407.862 67.1808 406.57 66.3677C405.277 65.4906 403.883 64.3269 402.39 62.8767C397.847 58.6549 395.533 53.6004 395.447 47.713C395.388 43.7454 396.327 40.0832 398.262 36.7265C400.197 33.3697 402.846 30.7065 406.209 28.737C409.636 26.7024 413.429 25.6546 417.588 25.5936C421.876 25.5306 425.855 26.2723 429.526 27.8186C433.261 29.3639 436.271 31.624 438.555 34.5988C440.839 37.5736 442.011 41.1087 442.071 45.2043C442.094 46.8041 441.929 48.6308 441.575 50.6842L440.807 50.6954ZM438.749 47.8453C439.043 46.0488 439.181 44.5427 439.163 43.3268C439.079 37.6314 436.969 33.4059 432.832 30.6504C428.758 27.8298 423.682 26.4642 417.602 26.5535C413.571 26.6127 409.937 27.5941 406.7 29.4978C403.464 31.4015 400.909 33.9673 399.037 37.1952C397.228 40.4221 396.351 43.9233 396.406 47.6989C396.439 49.9387 396.955 52.3633 397.953 54.973C398.951 57.5186 400.456 59.7687 402.469 61.7234C404.482 63.6781 406.868 64.8592 409.626 65.2667C410.204 65.3863 411.873 65.7138 414.633 66.2493C417.392 66.7209 419.55 67.6493 421.106 69.0346C422.727 70.419 423.554 72.231 423.586 74.4708C423.613 76.2626 423.057 77.6149 421.918 78.5277C420.779 79.4405 419.378 79.9092 417.714 79.9336C415.858 79.9608 414.219 79.4728 412.796 78.4696C411.436 77.4015 410.678 75.8764 410.521 73.8945C408.537 73.9237 407.032 73.9137 406.008 73.8648L400.823 73.8449C399.031 73.8712 397.369 73.9916 395.836 74.2061L395.859 75.838C395.915 79.6136 397.115 82.8923 399.46 85.6742C401.805 88.456 404.781 90.5886 408.387 92.0718C412.056 93.4901 415.811 94.1711 419.65 94.1147C423.17 94.063 426.422 93.2472 429.407 91.6672C432.392 90.0232 434.757 87.6522 436.504 84.5543C438.314 81.3914 439.187 77.6661 439.124 73.3786C439.072 69.859 438.096 66.577 436.195 63.5325C434.293 60.4241 431.76 57.869 428.594 55.8673C425.492 53.8646 422.147 52.6976 418.557 52.3662C414.263 51.9812 412.092 50.1249 412.043 46.7973C412.018 45.0695 412.542 43.7496 413.617 42.8377C414.691 41.8619 415.996 41.3627 417.531 41.3401C419.323 41.3138 420.899 41.8027 422.257 42.8069C423.616 43.8111 424.308 45.145 424.332 46.8089C424.341 47.3848 424.315 47.7692 424.253 47.9621C426.374 48.5071 428.586 48.7626 430.889 48.7288C432.873 48.6997 435.461 48.4057 438.653 47.8468L438.749 47.8453Z" fill="black"/>
</svg>
