<svg width="184" height="259" viewBox="0 0 184 259" fill="none" xmlns="http://www.w3.org/2000/svg">
<path d="M37.1918 227.659L44.6091 178.692L64.4499 179.981L49.73 169.45C49.7355 165.635 49.8428 162.407 50.0519 159.767C50.2892 156.941 50.5491 154.595 50.8317 152.73C52.6966 140.418 56.523 129.644 62.311 120.407C68.2855 111.199 75.7976 103.177 84.8473 96.3431L52.1859 87.1022L26.3243 68.8733C30.1957 49.6146 38.1654 34.793 50.2334 24.4086C62.3014 14.0243 78.1767 9.36872 97.8593 10.442C99.1934 10.4533 100.42 10.5437 101.539 10.7132C102.658 10.8827 103.778 11.0523 104.897 11.2218C112.545 12.3803 119.091 14.5168 124.534 17.6312C130.193 20.5873 136.499 24.3094 143.452 28.7973C154.785 35.8571 163.095 43.9853 168.381 53.182C173.881 62.2204 175.628 73.3617 173.622 86.6059C171.983 97.4252 168.377 107.374 162.804 116.452C157.231 125.531 148.808 133.891 137.537 141.534C131.365 145.751 126.263 151.085 122.233 157.535C118.232 163.798 115.694 170.474 114.62 177.562C114.394 179.054 114.233 180.747 114.137 182.641C114.041 184.535 114.126 187.124 114.392 190.408L101.071 189.535L115.833 199.786L108.416 248.752L63.0533 245.888L37.1918 227.659ZM85.2739 169.11C85.2229 165.667 85.4517 162.267 85.9603 158.909C87.1188 151.261 89.7273 144.119 93.7856 137.483C98.0305 130.875 103.44 125.397 110.014 121.05C121.042 113.752 129.235 105.643 134.593 96.7228C139.952 87.8027 143.408 78.2128 144.962 67.9532C147.11 53.7763 144.529 41.8408 137.22 32.1467C130.125 22.2944 119.116 16.238 104.193 13.9775C103.074 13.808 101.955 13.6384 100.836 13.4689C99.9029 13.3276 98.8628 13.2655 97.7153 13.2825C78.8071 12.1357 63.5479 16.5029 51.9377 26.3842C40.5424 36.1072 33.0503 49.6654 29.4615 67.0587L62.9623 76.4267C67.4668 58.0272 76.6124 49.2991 90.3993 50.2426L92.9176 50.6241C98.1407 51.4153 102.033 53.436 104.593 56.6861C107.154 59.9363 108.095 63.7999 107.417 68.2768C106.626 73.4999 104.809 78.5676 101.966 83.4798C99.3376 88.2338 95.3667 92.4028 90.0534 95.9868C80.6306 102.765 72.6381 110.809 66.0757 120.119C59.6998 129.457 55.5512 140.469 53.6298 153.153C53.0081 157.257 52.5956 161.87 52.3923 166.991L85.2739 169.11ZM105.179 67.9377C101.075 67.3161 97.6015 69.4614 94.7584 74.3737C91.9153 79.2859 89.6714 85.9109 88.0268 94.2486C91.9214 91.213 95.4485 87.4539 98.6082 82.9712C101.954 78.5168 104.145 73.5056 105.179 67.9377ZM47.0257 181.635L40.4137 225.285L80.0954 227.861L86.7074 184.211L47.0257 181.635Z" fill="white"/>
</svg>
