<svg width="161" height="161" viewBox="0 0 161 161" fill="none" xmlns="http://www.w3.org/2000/svg">
<path d="M92.4781 34.4699C92.3896 31.6846 91.6731 34.7355 92.0756 35.5566C92.0898 35.5816 92.1088 35.6034 92.1315 35.621C92.1542 35.6385 92.1801 35.6514 92.2078 35.6589C92.2355 35.6664 92.2644 35.6683 92.2928 35.6646C92.3213 35.6609 92.3487 35.6515 92.3735 35.6372C92.406 35.6167 92.4335 35.5892 92.454 35.5566C92.5223 35.1976 92.5223 34.8289 92.454 34.4699H92.4781ZM84.8628 45.8043C84.3235 45.8043 78.5114 45.5065 78.5436 45.9492C78.1813 45.8446 78.5436 48.4447 78.5436 48.7506C78.5436 49.0565 79.1634 49.0082 79.3486 49.0243C80.9586 49.1451 85.4183 49.1129 85.7886 49.1129C86.1589 49.1129 85.9415 46.0539 85.9335 46.0458C85.9254 45.7077 85.056 45.8124 84.8628 45.8043ZM85.5632 48.7265C84.1866 48.7265 80.2582 48.6299 78.9541 48.7265C78.8575 47.841 78.7609 46.9555 78.6724 46.07L85.5873 46.2068C85.531 47.044 85.5632 47.8893 85.5632 48.7265ZM74.752 49.8052C74.7829 49.8017 74.8116 49.7879 74.8336 49.7659C74.8555 49.744 74.8693 49.7152 74.8728 49.6844V47.6317C74.8728 47.3258 74.3817 47.2694 74.3978 47.5834C74.3978 48.2918 74.4864 48.9921 74.5427 49.6925C74.5433 49.7166 74.5503 49.7401 74.5629 49.7607C74.5756 49.7813 74.5934 49.7981 74.6147 49.8096C74.6359 49.821 74.6598 49.8266 74.6839 49.8259C74.7081 49.8251 74.7316 49.8179 74.752 49.8052ZM92.1722 44.9188C92.1409 44.9231 92.1117 44.9371 92.0886 44.9587C92.0656 44.9803 92.0498 45.0086 92.0434 45.0396C92.0434 45.3777 91.8261 47.3097 92.2286 47.3499C92.7277 47.3499 92.3896 45.4743 92.3413 45.0235C92.3318 44.9877 92.309 44.957 92.2775 44.9376C92.2461 44.9181 92.2084 44.9114 92.1722 44.9188ZM92.3896 49.3946C92.3091 48.8392 92.0273 48.8794 91.9951 49.6361V50.5377C91.9951 51.1173 92.6874 51.5762 92.3896 49.3946ZM92.2125 53.0091C91.7778 53.0493 92.1159 55.0538 92.1722 55.4241C92.1722 55.5609 92.4218 55.5931 92.4298 55.4241C92.4298 54.6996 92.4298 53.9751 92.4781 53.2506C92.4796 53.2163 92.4736 53.1822 92.4604 53.1505C92.4473 53.1189 92.4273 53.0906 92.4019 53.0675C92.3766 53.0445 92.3465 53.0273 92.3137 53.0172C92.281 53.0071 92.2464 53.0043 92.2125 53.0091ZM92.4298 37.3599C92.4298 37.1908 92.132 37.215 92.0998 37.3599C92.0676 37.5048 91.8261 40.0969 92.3896 39.4529C92.5106 38.7577 92.5106 38.0469 92.3896 37.3518L92.4298 37.3599ZM91.9871 41.6747V43.2847C91.9871 43.6067 92.4942 43.5584 92.4781 43.2847C92.4781 42.7534 92.4781 42.2221 92.3976 41.6747C92.3493 40.8214 92.0032 40.7731 91.9871 41.6747ZM92.0998 57.4044C91.9788 58.1022 91.9788 58.8156 92.0998 59.5135C92.0998 59.6906 92.3976 59.6584 92.4298 59.5135C92.462 59.3686 92.6633 56.7604 92.0998 57.4044ZM113.658 35.1622C114.115 35.2368 114.535 35.4571 114.857 35.7901C115.034 35.9753 115.26 35.6533 114.6 35.122C113.505 34.2606 113.046 35.0495 113.658 35.1622ZM113.07 38.2776C113.786 38.0763 113.191 36.5871 112.973 37.7382C112.949 37.8348 112.877 38.3339 113.07 38.2776ZM113.617 43.341C116.032 43.3893 115.316 39.638 114.857 40.443C113.795 42.2543 111.991 41.8679 111.863 42.053C111.734 42.2382 112.482 43.3249 113.617 43.341ZM114.978 40.8616C115.517 43.0834 113.126 43.7677 112.176 42.2543C112.723 42.2794 113.268 42.1647 113.758 41.921C114.248 41.6773 114.668 41.3127 114.978 40.8616ZM92.3332 31.7812C92.3648 31.7665 92.3925 31.7444 92.4137 31.7168C92.5466 31.0146 92.5466 30.2938 92.4137 29.5916C92.4137 29.4628 92.1803 29.4225 92.14 29.5916C92.0142 30.2931 91.9952 31.0096 92.0837 31.7168C92.1101 31.7564 92.1501 31.7848 92.1961 31.7967C92.2422 31.8086 92.291 31.8031 92.3332 31.7812ZM110.027 40.1693C110.188 40.8938 112.088 40.1049 110.422 40.0244C110.526 38.9839 110.745 37.9581 111.074 36.9654C111.202 36.5307 110.502 36.7239 110.092 39.6139C110.038 39.7938 110.016 39.9818 110.027 40.1693ZM74.422 51.8096C74.439 52.5212 74.5008 53.231 74.6071 53.9348C74.6071 53.969 74.6207 54.0017 74.6449 54.0259C74.669 54.05 74.7018 54.0636 74.7359 54.0636C74.7701 54.0636 74.8029 54.05 74.827 54.0259C74.8512 54.0017 74.8647 53.969 74.8647 53.9348C75.1384 50.3526 74.422 51.7613 74.422 51.8096ZM108.908 36.7561C108.618 37.1425 108.675 37.8429 108.997 37.5611C109.319 37.2794 109.109 36.4824 108.908 36.7561ZM74.4703 60.2138C74.0758 61.0832 74.9613 64.2388 74.9211 60.7693C74.913 60.2138 74.6554 59.8194 74.4703 60.2138ZM74.4864 58.0484C74.4864 58.2174 74.7923 58.1933 74.8245 58.0484C74.8567 57.9035 75.0901 55.3114 74.5347 55.9473C74.3977 56.6424 74.3814 57.3558 74.4864 58.0564V58.0484Z" fill="#C4E4ED"/>
<path d="M105.978 30.9842C106.503 31.4603 107.098 31.8539 107.741 32.1514C106.727 35.5083 104.569 46.2872 110.277 46.9312C110.277 47.4464 110.228 47.9616 110.204 48.4849C108.441 49.0305 106.747 49.7787 105.157 50.7147C104.505 51.7773 103.853 52.848 103.241 53.9347C102.435 55.4341 101.712 56.9766 101.076 58.5554C102.207 58.9693 103.263 59.5677 104.199 60.3264C105.165 61.0509 103.442 62.1538 102.75 63.0312C104.71 66.6263 107.272 69.8583 110.325 72.5866C110.51 71.4757 110.728 70.5258 110.816 70.1716C108.965 66.9516 106.55 54.8766 106.831 50.3686C107.314 50.1271 107.797 49.9097 108.28 49.7085C108.28 50.6262 109.158 52.8399 110.092 53.0653C110.196 53.3873 110.615 52.7433 110.897 52.4616C111.05 53.017 111.259 53.5886 111.355 54.0072C112.024 53.864 112.72 53.9171 113.36 54.1601C113.698 53.6932 114.27 53.0251 114.551 52.7111C114.688 52.8963 114.914 53.2907 115.155 53.2505C117.079 52.8882 119.985 51.0528 120.975 49.2657C121.571 49.4187 122.15 49.5877 122.73 49.7809C117.473 55.5447 112.265 65.3899 110.913 72.9166C114.39 70.405 120.114 66.219 122.827 63.635C120.726 60.3586 118.971 60.6001 123.189 59.771C123.994 59.618 124.759 59.4651 125.548 59.3524C125.338 56.2075 124.984 53.0787 124.485 49.9661C122.687 49.1938 120.791 48.6763 118.85 48.4285C118.802 47.1808 118.85 45.925 118.85 44.6772C118.85 44.6772 124.59 37.8267 123.913 33.2945C123.648 31.4833 122.231 31.3464 120.758 31.8214C121.893 30.7346 123.253 30.9037 123.173 30.2114C123.052 29.189 120.468 29.8008 119.631 31.2981C117.256 26.3957 111.581 25.003 114.704 28.6899C112.651 27.3375 110.357 26.1542 107.83 26.1542C104.054 26.0978 103.603 28.8268 105.978 30.9842ZM110.212 52.7192C109.73 52.3337 109.33 51.8562 109.034 51.3145C108.738 50.7727 108.553 50.1775 108.49 49.5636C109.077 49.3221 109.665 49.1047 110.269 48.9035C110.962 49.5306 111.688 50.1217 112.442 50.6745C111.561 51.1985 110.801 51.9037 110.212 52.7433V52.7192ZM118.866 48.7586C119.446 48.8793 120.017 49.0001 120.589 49.145C119.179 50.8684 117.325 52.1739 115.227 52.9204C114.626 52.1197 113.934 51.3904 113.167 50.7469C115.192 50.5371 117.142 49.8651 118.866 48.7827V48.7586ZM108.015 32.2722C109.818 33.0289 115.372 33.8339 117.377 33.7534C116.202 36.7319 117.562 39.6379 118.399 38.2614C118.633 37.8669 119.035 37.2471 119.687 37.7623C120.066 38.0682 120.21 38.8088 119.55 39.9841C118.853 41.1417 118.496 42.4726 118.52 43.8239C118.414 45.3914 118.392 46.9634 118.456 48.5332C116.73 49.5012 114.847 50.1553 112.893 50.4652L110.478 48.6781C110.558 47.6557 110.84 46.5046 110.478 46.5046C110.018 46.4773 109.57 46.3518 109.163 46.1365C108.756 45.9213 108.4 45.6213 108.119 45.2568C105.873 42.5601 107.202 35.46 108.015 32.2722Z" fill="#C4E4ED"/>
<path d="M108.506 35.6209C108.7 35.4692 108.923 35.3588 109.161 35.2965C109.399 35.2342 109.647 35.2213 109.891 35.2586C109.925 35.2544 109.958 35.239 109.983 35.2147C110.008 35.1904 110.025 35.1585 110.03 35.1239C110.036 35.0893 110.03 35.0539 110.013 35.023C109.997 34.9921 109.971 34.9675 109.939 34.9527C108.49 34.6146 108.031 36.0154 108.506 35.6209ZM111.396 54.4257C110.752 57.6028 110.111 60.7852 109.472 63.973C109.842 65.7355 110.381 67.4582 111.082 69.117C111.716 67.2018 112.45 65.3209 113.28 63.482C113.086 61.2441 112.974 55.7781 113.062 54.7557C112.565 54.4476 111.973 54.3303 111.396 54.4257ZM53.13 34.4617C53.8062 34.3732 52.6228 30.4367 52.8321 33.866C52.8563 34.0753 52.8321 34.502 53.13 34.4617ZM52.8402 67.7646C52.8402 68.0061 52.7758 68.8272 53.1622 68.7789C53.8384 68.6903 52.7114 65.0598 52.8402 67.7646ZM53.2507 43.4697C53.2431 43.438 53.2251 43.4099 53.1995 43.3897C53.174 43.3696 53.1424 43.3587 53.1099 43.3587C53.0773 43.3587 53.0457 43.3696 53.0202 43.3897C52.9946 43.4099 52.9766 43.438 52.969 43.4697C52.8415 44.1684 52.8252 44.8829 52.9207 45.5868C52.9432 45.6326 52.983 45.6676 53.0312 45.6842C53.0795 45.7008 53.1324 45.6976 53.1783 45.6754C53.2085 45.6585 53.2357 45.6367 53.2588 45.611C53.3871 44.9027 53.3844 44.1769 53.2507 43.4697ZM52.8643 72.4497C52.9126 72.7797 53.3715 72.7556 53.3554 72.1599C53.2829 70.2762 52.8563 70.244 52.8482 71.1778C52.816 71.6011 52.816 72.0263 52.8482 72.4497H52.8643ZM52.8402 48.3721C52.8065 48.723 52.8338 49.077 52.9207 49.4186C52.9523 49.468 53.0013 49.5036 53.0579 49.5186C53.1146 49.5335 53.1748 49.5265 53.2266 49.4991L53.3071 49.4186C53.3071 49.3381 53.3071 46.8024 52.9448 47.3256C52.7597 47.5752 52.8402 48.0743 52.8402 48.3721ZM53.1944 58.9256C53.1915 58.9065 53.1847 58.8881 53.1746 58.8716C53.1645 58.8551 53.1511 58.8408 53.1354 58.8296C53.1196 58.8183 53.1017 58.8103 53.0828 58.8061C53.0639 58.8019 53.0444 58.8015 53.0253 58.8049C52.9945 58.8084 52.9657 58.8222 52.9438 58.8441C52.9219 58.8661 52.908 58.8948 52.9046 58.9256C52.9046 59.2637 52.6792 61.1958 53.0817 61.236C53.5808 61.3004 53.2427 59.3845 53.1944 58.9256ZM53.1702 55.0295C53.1702 54.9953 53.1567 54.9625 53.1325 54.9384C53.1083 54.9142 53.0756 54.9006 53.0414 54.9006C53.0073 54.9006 52.9745 54.9142 52.9504 54.9384C52.9262 54.9625 52.9126 54.9953 52.9126 55.0295C52.6389 58.6198 53.3554 57.203 53.3554 57.1547C53.3387 56.443 53.2768 55.7332 53.1702 55.0295ZM53.2749 51.254C53.2749 51.0769 52.977 51.1091 52.9448 51.254C52.9126 51.3989 52.6792 53.991 53.2346 53.347C53.3691 52.6515 53.3827 51.938 53.2749 51.2379V51.254ZM52.8563 63.5222V64.3997C52.8563 64.9793 53.5486 65.4381 53.2507 63.2566C53.1702 62.7253 52.8885 62.7897 52.8563 63.5222ZM98.9425 95.9476C97.7138 95.6802 96.516 95.2864 95.3683 94.7723C95.4247 96.0442 95.4891 97.2758 95.5535 98.4994C97.6787 98.4431 98.7091 98.1533 98.9425 95.9637V95.9476ZM128.977 100.81L129.186 97.1148C127.295 97.2906 125.395 97.3658 123.495 97.3402C124.276 100.431 125.886 100.729 128.977 100.81ZM132.471 151.09C131.899 139.772 131.601 109.158 131.956 96.7848C131.231 96.8975 130.442 96.9941 129.621 97.0746C129.066 115.59 128.816 132.575 129.983 151.307C130.819 151.348 131.655 151.275 132.471 151.09ZM74.6879 75.1867L38.8332 74.6231C37.3842 74.6231 35.911 74.5346 34.454 74.6231C34.2849 74.6231 34.3091 74.8888 34.454 74.9049C36.233 75.074 40.3063 75.082 42.3108 75.1223L74.6476 75.6697C74.9616 75.6697 75.0099 75.1867 74.6879 75.1867Z" fill="#C4E4ED"/>
<path d="M123.366 151.211C125.376 151.383 127.396 151.42 129.411 151.324C128.606 134.708 128.3 118.085 128.952 101.414C127.198 101.414 124.3 100.979 123.438 99.1838C123.135 98.6098 122.993 97.9644 123.028 97.3162C117.835 97.1793 112.957 96.1972 111.653 93.7661C111.364 94.3313 110.902 94.7886 110.333 95.0702C110.333 96.0201 110.188 100.544 110.574 101.261C110.872 101.832 111.532 101.752 112.072 101.848C112.125 101.863 112.17 101.899 112.197 101.947C112.224 101.995 112.231 102.053 112.217 102.106C112.206 102.14 112.188 102.171 112.162 102.197C112.137 102.222 112.106 102.24 112.072 102.251C110.574 102.492 109.906 101.615 109.826 100.222C109.693 98.5881 109.693 96.9459 109.826 95.3117C107.523 96.3985 103.434 96.8332 99.3607 96.0362C99.3607 98.5156 97.6782 99.1435 95.5369 99.1999C96.9054 123.777 100.19 138.911 104.336 151.283C104.472 151.678 112.981 151.589 112.965 151.211C112.337 137.349 111.999 125.185 113.521 113.054L112.716 106.614C110.542 105.68 110.945 105.004 111.307 105.237L112.627 106.042C112.925 106.179 113.174 106.163 113.158 106.541C115.34 121.474 118.842 135.731 123.366 151.211ZM45.5786 69.1331C43.2698 69.0444 40.9578 69.0982 38.6556 69.2941C38.1404 69.3505 38.0116 69.4068 38.0116 69.922C38.0116 70.6465 38.0116 72.1519 38.3417 71.9587C38.39 72.1519 43.7996 72.1116 45.2969 72.0311C45.7074 72.0311 45.7879 71.7655 45.5545 71.6689C45.7396 71.6447 45.804 69.2297 45.5786 69.1331ZM38.398 71.7896C38.4383 71.0684 38.4383 70.3454 38.398 69.6242C40.6279 69.5678 43.1073 69.6242 45.2727 69.4712C45.2727 69.7691 45.152 71.4837 45.3613 71.6447C44.4999 71.5884 38.5349 71.7252 38.398 71.7896Z" fill="#C4E4ED"/>
<path d="M125.008 50.2078C125.571 52.8989 125.943 55.6267 126.119 58.3705C126.256 60.3266 126.546 59.8275 123.31 60.4071C122.682 60.5198 122.062 60.6647 121.434 60.7452C121.78 61.1638 124.155 63.9652 123.189 64.0618C121.885 65.8006 113.07 72.2165 110.776 73.4964C110.655 74.3014 110.566 75.0501 110.518 75.839C110.407 75.8435 110.299 75.8708 110.199 75.9193C110.099 75.9678 110.011 76.0364 109.939 76.1207C109.947 75.1767 110.027 74.2348 110.18 73.3032C106.397 70.6226 102.798 64.577 102.219 63.0636C101.945 62.3552 103.386 61.3812 103.829 60.9465C102.863 60.1415 100.383 59.0789 100.504 58.6844C101.37 56.112 102.545 53.6548 104.006 51.367C103.096 51.9229 102.205 52.5081 101.333 53.1219C100.995 40.1614 101.003 26.7984 100.222 13.8942H102.307C102.669 13.8942 102.645 12.9604 102.307 12.9604H100.134C95.1507 12.0749 90.1677 11.1975 85.2089 10.1671C77.489 8.55706 69.6322 6.59286 61.9203 5.15191V4.19396C61.9203 3.98466 61.067 3.96051 61.067 4.19396V5.08751C50.1109 7.93721 39.018 10.32 27.9895 12.7592C26.5791 12.9948 25.1818 13.3038 23.8035 13.6849L21.1229 13.7413C20.825 13.7413 20.8331 14.5463 21.1229 14.5463H23.9082C23.5057 36.1042 23.4654 57.646 23.2964 79.1878C23.2964 79.6547 23.0871 83.3094 23.4976 83.3094C28.1344 83.406 60.7369 83.3094 60.7369 83.3094C60.7369 104.594 60.7101 125.88 60.6564 147.17C54.0957 150.64 45.0797 155.478 43.5743 156.371C43.3006 156.444 20.0442 156.371 17.0576 156.444C16.8805 156.444 16.8805 156.782 17.0576 156.782C20.9619 156.919 137.107 156.975 137.107 156.975C137.429 156.975 137.494 156.436 137.172 156.436H131.843C131.663 154.888 131.353 153.359 130.917 151.863C129.083 152.048 127.236 152.048 125.403 151.863C124.123 152.322 119.067 154.278 118.866 156.411H113.126C112.989 154.919 112.703 153.444 112.273 152.008C110.299 152.465 108.252 152.511 106.26 152.145C105.398 152.451 100.488 154.23 100.126 156.428H80.1052C79.6222 155.945 62.355 147.516 62.0652 147.42V83.3335H94.3135C94.0237 87.3585 93.9029 93.6697 94.0881 93.7502C102.388 97.2842 110.373 95.8674 111.388 93.2028C109.439 90.5222 109.592 83.414 109.608 82.0777C109.763 82.3246 109.944 82.5541 110.148 82.762C110.043 85.177 110.043 92.6313 113.295 94.7806C116.741 97.0668 127.979 97.2842 132.849 96.0525C132.897 93.7502 132.784 90.7717 132.68 89.2181C128.397 88.8776 124.147 88.2047 119.969 87.2056C119.526 87.109 116.475 86.5455 116.427 86.1832C116.379 85.821 116.322 85.3299 116.29 84.8952L114.68 84.533C114.673 82.486 114.878 80.4439 115.292 78.4391L116.531 78.3908C116.596 77.9722 116.531 77.2075 117.023 77.2075C118.208 76.8163 119.418 76.5043 120.645 76.2737C122.7 75.839 124.751 75.423 126.795 75.0259C126.266 72.858 125.916 70.6502 125.749 68.4249C125.749 68.1673 126.119 68.1029 126.143 68.3605C126.407 70.5757 126.821 72.7704 127.383 74.9293C129.732 74.4387 132.108 74.0919 134.499 73.8909C134.541 73.8997 134.578 73.9225 134.605 73.9554C134.631 73.9884 134.646 74.0296 134.646 74.072C134.646 74.1144 134.631 74.1556 134.605 74.1885C134.578 74.2215 134.541 74.2443 134.499 74.2531C128.751 74.712 122.827 76.2737 117.192 77.61C116.7 80.3582 116.556 83.1576 116.765 85.9417C120.354 86.884 123.993 87.6231 127.665 88.1555C133.654 88.888 142.517 90.3451 143.765 82.0777C145.745 69.7532 136.045 55.2149 125.008 50.2078ZM60.6564 156.387H45.8847C50.7871 153.707 55.7459 151.3 60.6967 148.514L60.6564 156.387ZM97.453 12.9443L62.033 13.3066C62.033 10.6903 61.9766 8.47656 61.9283 5.84421C73.3996 8.47656 85.8127 10.8916 97.453 12.9443ZM61.0428 5.90056C60.9945 8.50876 60.9462 10.7306 60.914 13.3227C49.0242 13.4354 37.8427 13.4676 25.9529 13.6849C37.9071 11.3504 61.0428 5.90056 61.0428 5.90056ZM77.7546 156.436H61.9847V148.595C66.6617 151.276 72.7958 154.157 77.7546 156.395V156.436ZM99.6748 60.8821C96.4548 67.5797 94.9333 75.4365 94.3457 82.8505C71.0007 82.8505 47.2049 82.287 23.9243 82.7942C24.0611 81.0473 23.8035 78.1654 23.8196 76.2898C23.9806 55.6979 24.6649 35.2348 24.5844 14.6107C34.1478 14.6107 99.5299 13.9184 99.5299 13.9184C99.9726 26.1222 100.834 52.9045 100.89 53.4841C96.3178 56.7539 92.2051 60.623 88.6624 64.9876C90.1848 65.2635 91.6879 65.6373 93.1623 66.1065C93.2116 66.1279 93.2508 66.1674 93.2718 66.2168C93.2928 66.2663 93.2939 66.3219 93.275 66.3722C93.2571 66.4169 93.2236 66.4537 93.1807 66.4759C93.1379 66.4981 93.0885 66.5041 93.0416 66.4929C89.9906 65.7684 78.8253 63.4017 73.7216 63.9572C73.6008 63.9572 73.625 64.1665 73.6652 64.416C73.1886 64.3185 72.6996 64.2968 72.2162 64.3516C70.8075 62.4518 69.3182 60.3266 66.8791 61.9366C65.7923 59.8919 56.4704 42.0612 56.1082 42.029C55.6574 41.3689 55.1341 42.029 55.432 42.5844L65.8567 63.5949C65.0517 64.2872 64.931 65.3579 65.6152 65.5833C65.1966 66.4527 65.7762 67.4831 66.066 67.3623C65.7521 68.9723 68.1429 70.4616 69.2136 70.2603C69.3585 70.534 70.0186 71.9428 70.3003 71.9267C70.4554 72.0482 70.6478 72.1124 70.8448 72.1082C71.0418 72.104 71.2313 72.0318 71.3811 71.9038C71.5309 71.7758 71.6318 71.5999 71.6666 71.406C71.7015 71.2121 71.6681 71.0121 71.5722 70.8399L72.2484 71.2022C72.0552 71.5242 71.9425 71.6932 71.9989 71.7576C75.3235 75.6377 83.5828 80.4436 86.7465 80.9346C89.3064 81.3291 92.3171 81.4096 93.8224 80.9829C94.5147 74.3578 96.1006 66.5734 99.2964 60.6486C99.3085 60.6236 99.3253 60.6013 99.346 60.5829C99.3668 60.5645 99.3909 60.5504 99.4171 60.5414C99.4433 60.5325 99.4711 60.5288 99.4987 60.5306C99.5264 60.5324 99.5534 60.5397 99.5782 60.552C99.6042 60.564 99.6275 60.5812 99.6466 60.6025C99.6657 60.6238 99.6802 60.6488 99.6893 60.676C99.6983 60.7031 99.7017 60.7319 99.6992 60.7604C99.6967 60.7889 99.6884 60.8166 99.6748 60.8418V60.8821ZM69.4712 65.8972C69.4196 65.7996 69.3435 65.7171 69.2503 65.6578C69.1572 65.5985 69.0502 65.5645 68.9399 65.5591C69.0299 65.5025 69.1067 65.4272 69.1651 65.3383C69.2234 65.2494 69.2619 65.149 69.278 65.0439C69.5839 65.374 69.6724 65.1566 69.5839 65.0439C69.1653 64.4402 68.7789 62.7658 68.4408 62.9187C68.1268 62.806 67.1608 63.128 66.6295 63.0797C66.4202 63.0797 66.2592 62.9429 66.4202 62.7175C67.0282 62.0548 67.866 61.6489 68.7628 61.5824C69.9542 61.7917 71.4273 63.7881 72.0552 64.6897C72.7556 66.5573 71.5722 69.4151 71.0892 69.89L69.3907 66.5815C69.4658 66.4859 69.5131 66.3714 69.5273 66.2507C69.5415 66.1299 69.5221 66.0076 69.4712 65.8972ZM66.058 63.0314L55.6493 42.2463C55.6493 41.7633 55.9955 42.1819 56.1484 42.4315C57.05 44.2427 66.6134 62.154 66.6134 62.154C66.4568 62.2444 66.3245 62.3715 66.2278 62.5243C66.131 62.6772 66.0728 62.8512 66.058 63.0314ZM66.3236 63.7076C66.7986 63.4581 68.159 63.0475 68.4971 63.6593C68.5374 63.8525 68.5776 64.0377 68.6098 64.2309C68.077 64.1327 67.5272 64.1863 67.0233 64.3855C66.5194 64.5848 66.0817 64.9217 65.7601 65.3579C65.2691 64.7944 65.7521 63.9894 66.3236 63.7076ZM65.8406 65.8731C66.1385 65.0681 67.8612 64.1182 68.642 64.5931C69.4229 65.0681 68.4247 65.3981 68.2798 65.5994C67.8053 65.6315 67.3503 65.8008 66.9702 66.0866C66.5901 66.3724 66.3011 66.7624 66.1385 67.2094C65.9666 67.0382 65.8472 66.8215 65.7944 66.5847C65.7417 66.3479 65.7577 66.101 65.8406 65.8731ZM67.6197 66.0904C67.9578 65.9616 69.6563 65.5511 69.0928 66.4527C68.2878 66.5251 67.6036 67.1369 68.0061 67.9258C68.3442 68.5859 68.6903 69.246 69.0445 69.8981C66.7664 69.6485 65.0839 67.0323 67.6197 66.0904ZM68.1832 67.314C68.2643 67.1624 68.379 67.0313 68.5185 66.9309C68.658 66.8304 68.8187 66.7632 68.9882 66.7344C69.286 67.314 71.3066 71.0734 71.3066 71.3712C71.3066 71.6691 70.6465 71.9186 70.5016 71.6449C69.6859 70.2227 68.9077 68.7791 68.1671 67.314H68.1832ZM71.218 70.0993C72.4658 69.1816 72.828 66.34 72.4658 64.6173L73.794 64.8105C73.9848 66.9266 73.5151 69.0499 72.4497 70.8882C72.1921 70.7272 71.3227 70.3408 71.2019 70.0993H71.218ZM114.438 83.567C113.352 83.5026 112.257 83.728 111.082 83.0357C110.212 82.5205 109.319 81.4257 109.608 80.4033C109.93 80.838 110.091 80.4597 109.971 80.3228C109.75 80.083 109.6 79.7873 109.536 79.4679C109.472 79.1485 109.497 78.8177 109.608 78.5116C109.874 79.0509 110.132 78.737 110.035 78.5679C109.641 77.8354 109.552 76.5232 110.494 76.1529C110.422 78.0044 112.45 78.2701 112.305 77.7629C112.305 77.7629 111.5 74.2451 112.41 74.4222C112.853 75.6136 113.456 78.2137 114.825 78.576C114.513 80.2205 114.378 81.8937 114.422 83.567H114.438Z" fill="#C4E4ED"/>
<path d="M33.2784 73.6008C39.4608 64.7458 47.3578 51.262 52.5259 41.8999C52.721 42.0205 52.9461 42.0838 53.1754 42.0826C53.4047 42.0815 53.6291 42.0159 53.823 41.8934C54.0169 41.7709 54.1724 41.5963 54.2719 41.3896C54.3713 41.183 54.4107 40.9525 54.3855 40.7246C60.6484 42.3346 67.1769 43.2764 73.5042 44.6852C73.625 46.3676 75.9917 45.7236 75.6294 44.3471C80.878 39.0502 86.5291 33.4152 91.657 28.1666L91.8502 28.2471C92.1523 28.3468 92.4816 28.3233 92.7665 28.1816C93.0514 28.0399 93.2689 27.7915 93.3716 27.4904C93.4764 27.2077 93.4686 26.8955 93.3498 26.6184C93.2309 26.3414 93.0102 26.1206 92.7331 26.0017C92.456 25.8828 92.1439 25.8749 91.8612 25.9797C91.5785 26.0845 91.3469 26.2939 91.2142 26.5646C91.1001 26.7795 91.0522 27.0235 91.0765 27.2656C91.1009 27.5077 91.1964 27.7372 91.3511 27.9251C86.1669 33.1817 80.4031 38.5913 75.4845 44.0251C75.3545 43.8466 75.1755 43.7096 74.9693 43.6306C74.6937 43.5311 74.3901 43.5437 74.1237 43.6656C73.8573 43.7875 73.6493 44.0091 73.5445 44.2827C70.3245 43.6306 55.8345 40.4589 54.3211 40.4026C53.7334 38.6638 50.9964 40.1691 52.1798 41.6181C46.1181 52.6144 39.6298 62.7896 33.0047 73.4156C32.7416 73.2889 32.4437 73.2542 32.1585 73.317C31.8734 73.3798 31.6176 73.5364 31.432 73.7619C31.2465 73.9873 31.1419 74.2685 31.1352 74.5604C31.1284 74.8523 31.2198 75.138 31.3947 75.3718C32.4653 76.8932 34.7274 74.9129 33.2784 73.6008ZM92.1883 20.5835C91.8904 20.6237 91.9951 21.0343 92.0112 21.2355C92.3493 24.6326 92.9128 20.511 92.1883 20.5835Z" fill="#C4E4ED"/>
<path d="M74.6954 36.1522C74.2044 36.1039 74.5344 38.0198 74.5827 38.4706C74.5857 38.4898 74.5924 38.5081 74.6025 38.5246C74.6127 38.5411 74.626 38.5554 74.6418 38.5667C74.6575 38.578 74.6754 38.5859 74.6943 38.5902C74.7132 38.5944 74.7327 38.5948 74.7518 38.5914C74.7826 38.5879 74.8114 38.5741 74.8333 38.5521C74.8552 38.5302 74.8691 38.5015 74.8725 38.4706C74.8645 38.1245 75.0979 36.2247 74.6954 36.1522ZM74.8645 42.399C75.1382 38.8168 74.4217 40.2255 74.4217 40.2738C74.4391 40.9827 74.5009 41.6898 74.6069 42.391C74.6058 42.4251 74.6184 42.4583 74.6418 42.4832C74.6652 42.5081 74.6975 42.5227 74.7317 42.5238C74.7658 42.5249 74.799 42.5123 74.8239 42.4889C74.8488 42.4655 74.8634 42.4332 74.8645 42.399ZM74.6149 28.553C74.3171 28.5933 74.4217 29.0038 74.4459 29.2051C74.8081 32.6022 75.3394 28.4806 74.6149 28.553ZM92.0351 23.7874C91.8258 25.7597 92.5745 25.9368 92.4779 24.4797C92.4779 24.1658 92.3813 23.8518 92.341 23.5379C92.341 23.401 92.0834 23.2883 92.0351 23.7874ZM84.1783 24.7534C85.6756 24.9064 88.8795 24.8098 89.0727 24.8017C90.2802 24.8017 90.1595 24.8017 90.0709 23.6425C90.0709 23.0307 89.9904 22.3626 89.7087 22.4431L83.6631 22.3143C83.1882 22.1855 83.3653 22.9744 83.3894 23.4815C83.4377 24.3992 83.1157 24.6407 84.1783 24.7534ZM83.7839 22.6524L89.6845 22.8295L89.7328 24.3751H83.7758L83.7839 22.6524ZM74.5344 22.7973C74.5456 22.8332 74.5704 22.8634 74.6034 22.8815C74.6365 22.8995 74.6752 22.9039 74.7115 22.8939C74.7352 22.8869 74.757 22.8745 74.7751 22.8578C74.7933 22.841 74.8073 22.8203 74.8162 22.7973C74.9393 22.0981 74.9555 21.3842 74.8645 20.6801C74.8541 20.6557 74.8388 20.6337 74.8196 20.6155C74.8004 20.5972 74.7776 20.5831 74.7527 20.574C74.7277 20.565 74.7012 20.5612 74.6748 20.5628C74.6483 20.5644 74.6224 20.5715 74.5988 20.5835C74.5696 20.5985 74.5447 20.6206 74.5264 20.6479C74.4094 21.3515 74.4094 22.0696 74.5264 22.7731L74.5344 22.7973ZM74.6874 24.6246C74.2929 24.6246 74.4459 25.3894 74.462 25.6067C74.6069 28.5611 75.4441 24.6407 74.6874 24.6246ZM42.4552 39.493C42.4552 39.6137 42.6725 39.6298 43.0026 39.6298C44.4113 39.6298 49.4989 40.0323 49.5875 39.4688C49.8773 39.4688 49.7726 37.722 49.7324 37.3839C50.0946 36.5225 43.2119 37.1585 42.7128 37.1182C42.4874 37.0538 42.3827 37.3034 42.423 37.6737C42.4874 38.3016 42.423 39.2032 42.4552 39.493ZM42.8013 37.4644C44.9748 37.4644 47.2852 37.5207 49.4506 37.4644V39.3239C47.1805 39.4125 44.9829 39.3239 42.7691 39.3883C42.8124 38.748 42.8232 38.1058 42.8013 37.4644ZM31.9982 22.9583C31.8775 29.2614 31.9258 62.2181 31.9419 72.3933C31.9419 72.7153 32.449 72.7556 32.449 72.3933C32.449 65.8567 32.5215 32.8678 32.3122 22.91C32.5537 22.91 33.3989 22.8697 33.568 22.596C33.737 22.3223 32.5537 19.1909 32.3766 18.724C32.3122 18.563 32.1029 18.6757 32.0707 18.7884C31.6843 20.0683 31.2657 21.3241 30.9276 22.6202C30.831 23.0146 31.7487 22.9663 31.9982 22.9583ZM74.9208 33.8097V32.9242C74.9208 32.3526 74.2285 31.8857 74.5264 34.0753C74.6069 34.6147 74.8645 34.6147 74.9208 33.8097ZM52.8558 38.1647C52.9041 38.4948 53.371 38.4626 53.3468 37.8669C53.2744 35.9832 52.8477 35.951 52.8397 36.8928C52.8075 37.3162 52.8075 37.7414 52.8397 38.1647H52.8558ZM53.1295 23.0871C53.5722 23.0468 53.2261 21.0424 53.1295 20.6721C53.1295 20.5352 52.8799 20.503 52.8719 20.6721C52.8719 21.3966 52.8558 22.1211 52.8236 22.8456C52.8222 22.8835 52.8298 22.9212 52.8457 22.9557C52.8616 22.9902 52.8855 23.0204 52.9153 23.0439C52.9451 23.0674 52.98 23.0836 53.0172 23.0911C53.0544 23.0986 53.0929 23.0972 53.1295 23.0871ZM52.8477 29.2212V30.1228C52.8477 30.6943 53.54 31.1451 53.2422 28.9716C53.1295 28.4162 52.8799 28.4645 52.8477 29.2212ZM53.0731 26.9269C53.5722 26.9752 53.2341 25.0593 53.1858 24.6005C53.1858 24.562 53.1706 24.5252 53.1434 24.498C53.1162 24.4708 53.0794 24.4556 53.0409 24.4556C53.0025 24.4556 52.9656 24.4708 52.9385 24.498C52.9113 24.5252 52.896 24.562 52.896 24.6005C52.896 24.9547 52.6706 26.8867 53.0731 26.9269Z" fill="#C4E4ED"/>
</svg>
