<svg width="120" height="120" viewBox="0 0 120 120" fill="none" xmlns="http://www.w3.org/2000/svg">
<path fill-rule="evenodd" clip-rule="evenodd" d="M107.701 43.8989C109.789 45.9173 111.46 48.3533 112.713 50.9981H112.713C116.122 58.8821 113.602 68.3933 109.72 76.0553C109.646 76.2401 109.474 76.2485 109.35 76.1633C109.299 76.2629 109.248 76.3619 109.197 76.4609C108.368 76.0901 107.517 75.7133 106.679 75.3431H106.678L106.677 75.3425L106.674 75.3407C104.92 74.5649 103.226 73.8161 101.925 73.2017H101.924C101.361 72.9359 100.741 72.7145 100.045 72.6449C99.9254 72.6449 99.8102 72.6533 99.6986 72.6689L97.1216 71.3219V71.3225C96.6572 71.0129 96.2288 71.0729 95.7296 71.3225C95.5118 71.4365 95.3 71.5589 95.0936 71.6891L93.3626 70.4867V70.4873C92.945 70.2089 92.597 69.7913 92.597 69.2345C91.7618 66.1721 89.813 63.4577 87.0986 61.7171C86.1194 60.9989 85.0484 60.4031 83.921 59.9302C84.0788 50.7475 83.8754 41.5048 82.6442 32.6231C68.2364 30.6047 53.2718 29.9087 39.0032 32.9711C37.9704 40.6504 37.4591 50.5604 37.9553 60.6449C37.3296 60.9833 36.7261 61.3637 36.149 61.7867C33.4346 63.5267 31.4858 66.2411 30.6506 69.3035C30.6506 69.5819 30.5114 69.8603 30.3722 70.0691L30.323 70.1183C30.2842 70.1579 30.252 70.1903 30.2189 70.2215C30.0618 70.3697 29.882 70.4939 28.85 71.2079L28.8473 71.2097L28.8439 71.2121C28.6386 71.3537 28.3997 71.5193 28.1209 71.7125C27.9034 71.5739 27.6793 71.4443 27.449 71.3231V71.3225C27.053 71.0591 26.5718 71.0261 26.1266 71.3225L23.5516 72.6683C23.4391 72.6527 23.3234 72.6443 23.2034 72.6443C22.5074 72.7139 21.887 72.9353 21.3242 73.2011C20.129 73.7651 18.3136 74.7635 16.3583 75.8651C16.9499 71.8139 17.3741 68.5745 16.3124 63.7361C15.3686 59.4335 13.253 55.2437 10.5356 52.0427C9.57803 50.9147 8.63243 49.7627 7.82123 48.5627C4.66403 43.8923 5.24603 37.7045 7.68203 32.8325C11.3492 25.4981 19.4192 19.6313 26.4746 17.5895C28.8623 16.8998 31.0397 16.6756 33.2657 16.4462C36.6616 16.0964 40.1704 15.7349 44.7104 13.6919C48.1462 12.0694 49.9403 10.7743 51.7085 9.49788C52.7716 8.73048 53.8253 7.96986 55.2206 7.14894C58.352 5.38734 63.3374 4.24914 66.7748 3.80814C72.4124 2.97294 78.2588 2.48574 83.8274 3.87774C91.757 5.88654 98.4824 11.8811 98.9312 19.9559C98.996 21.4413 98.7758 22.8967 98.5562 24.35C98.3024 26.0291 98.0486 27.7053 98.2352 29.4215C98.765 34.5422 102.431 38.3692 105.865 41.9541C106.492 42.6083 107.11 43.2545 107.701 43.8989ZM93.7112 83.0153C94.6856 84.1475 96.9104 86.6429 99.3008 89.2253C95.684 92.0921 91.4 93.9467 86.2526 94.3421C86.822 93.8543 87.0956 93.2981 86.9594 92.4821V92.4815C86.2904 88.1351 84.6914 83.3111 82.7156 79.3589C78.1046 77.8337 72.2846 76.5251 67.5674 75.6605C73.2254 75.4919 78.341 75.5111 83.4098 75.8465L83.4356 75.1931C83.465 74.4425 83.4944 73.6901 83.5238 72.9353V72.9359C83.9012 73.3847 84.2762 73.8311 84.6626 74.2451C85.2194 74.8715 85.9154 75.3587 86.6114 75.7763C86.9996 76.0091 87.323 76.0259 87.6662 76.0427C87.938 76.0565 88.2218 76.0709 88.5602 76.1939C88.5932 76.2101 88.6298 76.2269 88.6688 76.2443C88.7942 76.3001 88.9412 76.3661 89.0474 76.4723C89.6702 76.9391 90.3146 77.4281 90.944 77.9261C90.9038 78.1817 90.875 78.4397 90.8576 78.7001C90.8576 79.1831 90.878 79.6421 91.3448 79.9529C91.9616 80.6171 92.6108 81.2489 93.2924 81.8267C93.2918 82.4345 93.3842 82.5611 93.572 82.8179C93.6134 82.8749 93.6602 82.9385 93.7112 83.0153ZM19.7646 93.7661C20.4148 94.2743 21.1268 94.7075 21.8804 95.0573C25.1975 96.5411 28.7326 96.0143 31.9589 95.5199C31.8627 95.1797 31.9208 94.7957 32.1818 94.3607C33.9224 90.3935 36.08 86.7047 38.7248 83.2937C38.838 83.1431 38.932 83.0123 39.0149 82.8971L39.0157 82.8959L39.0162 82.8953L39.0164 82.8947C39.5242 82.1879 39.6177 82.0583 41.1722 81.4067C45.4073 79.6103 50.5625 77.7125 55.1045 76.2269C52.9573 76.3457 50.7178 76.4753 48.3689 76.6109H48.3685H48.3667L48.3613 76.6115H48.3593H48.3529L48.3479 76.6121C45.6418 76.7681 42.7907 76.9331 39.7688 77.0993C39.5611 75.9539 39.3713 74.7953 39.1986 73.6265C38.9959 73.8623 38.792 74.0933 38.585 74.3153C38.0282 74.9417 37.3322 75.4289 36.6362 75.8465C36.2478 76.0793 35.9244 76.0961 35.5814 76.1129C35.3097 76.1267 35.0258 76.1411 34.6874 76.2641C34.6546 76.2803 34.6178 76.2971 34.5791 76.3145C34.4536 76.3703 34.3066 76.4363 34.2002 76.5425C33.5273 77.0171 32.8769 77.5145 32.2491 78.0221C32.2817 78.2459 32.3058 78.4727 32.321 78.7007C32.321 79.2167 32.297 79.5449 31.9034 79.9535C31.2968 80.5829 30.6758 81.1967 30.0248 81.7613V81.7619C30.0383 82.4855 29.9493 82.6073 29.7466 82.8863L29.7463 82.8869L29.7459 82.8875C29.7045 82.9445 29.6583 83.0075 29.6072 83.0843C28.0469 84.8963 23.2828 90.2033 19.7646 93.7661ZM83.8604 62.8307L83.8592 62.8631C83.9426 62.9207 84.0248 62.9795 84.1064 63.0395C84.0254 62.9687 83.9432 62.8997 83.8604 62.8307ZM46.9376 20.5817C47.2442 20.8883 51.2366 26.8643 51.4328 27.2507V27.2501C51.9602 28.2887 51.152 28.2827 50.633 27.8177C49.9862 27.2381 46.2416 22.2515 45.824 21.2081C45.6152 20.5121 46.4504 20.1641 46.9376 20.5817ZM61.9718 26.9855C62.3432 24.2609 62.5226 18.7757 62.3198 17.6585C62.1806 17.1017 61.2662 17.1005 61.2062 17.6585C61.19 17.8067 61.394 25.9163 61.4846 26.9159C61.415 27.2639 61.9022 27.3335 61.9718 26.9855ZM76.658 23.1569C76.2248 24.0239 73.9838 27.0977 72.6338 28.3751C72.179 28.8053 71.8748 28.4021 72.1598 27.9449C72.8216 26.8841 75.4436 23.2085 75.8924 22.6697C76.1708 22.4609 76.7972 22.6697 76.658 23.1569Z" fill="#C4E4ED"/>
<path d="M67.4012 110.369C66.371 111.193 65.9768 111.156 64.9652 111.831C64.8218 111.974 64.892 112.2 65.2922 112.074C65.9354 111.871 66.9314 111.386 67.6796 110.787C67.9082 110.673 67.7786 110.18 67.4012 110.369Z" fill="#C4E4ED"/>
<path d="M67.3589 112.069C65.5463 113.278 65.2811 113.277 64.8443 113.458C64.7645 113.491 64.7975 113.939 65.1605 113.879C66.2501 113.702 67.2077 112.91 67.5869 112.657C68.6459 111.951 68.0219 111.405 67.3583 112.068L67.3589 112.069Z" fill="#C4E4ED"/>
<path d="M63.4698 77.1869C63.4002 81.7823 63.3654 85.7309 63.8526 90.2549C63.8526 90.5333 64.5882 90.4859 64.5186 90.1379C64.101 85.5443 64.185 81.7577 64.1502 77.1635C64.146 76.5755 63.48 76.5047 63.4698 77.1869Z" fill="#C4E4ED"/>
<path fill-rule="evenodd" clip-rule="evenodd" d="M54.2723 76.2737C48.9333 78.1157 41.2315 81.1199 39.5866 81.8321C39.2353 81.9839 39.1449 82.1165 39.0402 82.2701C39.021 82.2977 39.0013 82.3265 38.9794 82.3565C36.1108 85.8599 33.9922 89.8565 32.0428 93.9437C31.708 94.6463 31.3468 95.4053 31.9036 96.1013C32.4604 96.6581 33.0868 97.0757 33.8524 97.3541C33.8524 97.3541 38.089 99.5069 38.9212 99.9197C39.1786 101.91 39.4719 103.161 39.697 104.121C39.7479 104.337 39.7953 104.54 39.838 104.732C39.9076 105.428 40.3252 106.055 40.8124 106.472C41.6476 106.959 42.4828 107.377 43.318 107.725C44.0225 108.065 44.6943 108.39 45.3397 108.702C51.7791 111.818 55.6051 113.669 63.2938 116.982C63.487 117.047 63.6208 116.933 63.6946 116.75C69.4516 114.108 74.767 110.659 79.72 106.682C79.933 106.511 80.1478 106.34 80.3638 106.168C81.3256 105.404 82.3048 104.625 83.2 103.758C84.1318 102.855 84.172 101.55 84.211 100.302C84.2188 100.034 84.2272 99.7697 84.244 99.5123C84.2638 99.2141 84.2842 98.9153 84.3052 98.6165C84.3616 97.7951 84.4192 96.9713 84.4528 96.1433C84.994 95.7659 85.5286 95.3819 86.0536 94.9883C86.68 94.6403 87.1672 94.0835 87.376 93.3875C87.4456 92.6219 87.376 91.7867 87.1672 91.0211L87.1684 91.0199C86.431 87.1319 85.2634 83.2625 83.344 79.7357C83.0362 79.1693 82.8304 78.9791 82.4704 78.8771C79.129 77.9285 73.2934 76.5599 68.4016 75.6371C67.4662 75.6623 66.5164 75.6923 65.5498 75.7277C65.6332 75.7439 65.7166 75.7601 65.8 75.7769C71.6854 76.7579 76.6444 77.7821 82.372 79.4549C77.5108 82.9907 72.3802 86.0567 66.9136 88.6535C65.8672 89.1539 64.5844 89.5865 63.355 90.0011C62.8042 90.1865 62.2642 90.3689 61.7608 90.5519C61.4554 90.3209 55.461 88.1915 51.2313 86.6891C50.6131 86.4695 50.0326 86.2631 49.513 86.0783C48.8607 85.8461 48.2001 85.6193 47.5362 85.3919C44.9304 84.4985 42.2722 83.5865 39.8464 82.2425C45.9886 79.7489 48.5112 78.8771 51.2862 77.9177C52.5422 77.4839 53.8498 77.0315 55.5682 76.4033H55.5688C55.7941 76.3211 56.0203 76.2413 56.2472 76.1645C55.5975 76.1999 54.9394 76.2359 54.2723 76.2737ZM32.2516 94.8479C31.9732 95.8919 32.815 96.2957 33.574 96.6575C36.0207 97.8245 38.0707 98.8439 39.8692 99.7385C43.3509 101.471 45.8899 102.734 48.5386 103.688C48.8452 103.798 49.1538 103.922 49.4596 104.045C49.9799 104.255 50.4925 104.461 50.9746 104.592C51.1511 104.64 51.3387 104.703 51.5322 104.768C52.1784 104.985 52.8911 105.224 53.4802 105.01C54.0883 104.789 54.389 104.172 54.6613 103.614C54.732 103.47 54.8006 103.329 54.8722 103.2C55.4382 101.974 56.5684 99.9323 57.8447 97.6259C58.9997 95.5391 60.274 93.2357 61.3582 91.1261C61.0912 90.9749 55.8862 89.0591 47.5642 86.1479C47.1063 85.9877 46.6444 85.8305 46.181 85.6727C43.8577 84.8819 41.4949 84.0779 39.3964 82.8227C37.0594 85.7969 34.9798 88.9811 33.3652 92.4119C32.9476 93.1775 32.53 94.0127 32.2516 94.8479ZM42.2458 106.562C42.4003 106.625 42.5512 106.686 42.6922 106.75L42.7058 106.757C49.4315 110.017 56.1579 113.278 63.013 116.15C62.1304 109.389 61.5664 100.638 61.699 91.8767C60.7624 93.6407 59.8018 95.3921 58.8409 97.1435C57.7617 99.1103 56.6826 101.077 55.6384 103.061C55.2904 103.896 54.8728 104.592 54.316 105.219C53.7592 105.706 52.924 105.845 52.228 105.636C48.1906 104.394 43.2088 102.034 39.4468 100.178C39.6304 101.317 40.1104 104.216 40.5346 105.288C40.8063 105.975 41.5612 106.283 42.2458 106.562ZM83.5072 99.9581C83.5282 99.3803 83.5516 98.7155 83.6188 97.9109C83.6464 97.4981 83.6698 97.0841 83.6902 96.6695C83.068 97.0943 82.4392 97.5137 81.8104 97.9331L81.7396 97.9805C76.3588 101.567 70.2886 104.166 67.7494 104.801C67.123 104.94 66.4966 104.523 66.3574 103.896C66.3142 103.767 66.2248 103.422 66.0934 102.918C65.5078 100.664 64.096 95.2283 62.3224 91.6727C62.3362 91.8467 62.3338 92.3015 62.3296 93.0095C62.3104 96.2585 62.2594 104.84 63.6418 116.064C70.3144 113.117 75.9094 109.233 81.5308 104.314C82.1572 103.896 82.714 103.34 83.1316 102.713C83.4388 101.868 83.467 101.076 83.5072 99.9581ZM82.0876 96.9365C83.4796 96.0317 84.8218 95.1509 86.0548 94.0829V94.0823C86.6968 93.5261 86.6326 92.8343 86.563 92.0873C86.5558 92.0105 86.5486 91.9331 86.542 91.8551C86.3626 89.6981 84.9694 84.6119 82.696 80.0531C80.9536 81.4061 75.355 85.2797 70.5982 87.7769C68.2318 89.0843 65.4628 90.1817 62.8126 91.0463C64.675 94.0349 66.6334 102.09 66.9118 103.235C66.9328 103.32 66.9442 103.367 66.9454 103.371C67.144 103.932 67.3318 104.244 67.8886 104.105C68.3062 104.036 68.6542 103.896 69.0022 103.757C73.7434 102.034 78.46 99.4481 82.0876 96.9365Z" fill="#C4E4ED"/>
<path fill-rule="evenodd" clip-rule="evenodd" d="M31.5548 66.3117C32.9639 63.7359 35.2895 61.6689 37.9387 60.3009C37.9476 60.4905 37.9568 60.6801 37.9664 60.8697C34.9441 62.5185 32.5001 64.9581 31.2068 68.1909C31.1255 68.4147 31.0679 68.6559 31.0098 68.8995C30.869 69.4899 30.7251 70.0935 30.2324 70.4877C29.602 70.9725 28.9716 71.4237 28.3177 71.8413C28.2023 71.7633 28.085 71.6883 27.9658 71.6157C28.8528 70.9557 29.0916 70.7931 29.2762 70.6671C29.4094 70.5759 29.5145 70.5045 29.8148 70.2789C30.0932 70.0701 30.302 69.7221 30.3716 69.3741C30.65 68.3301 30.998 67.2861 31.5548 66.3117ZM32.2966 78.4077C32.6989 78.0771 33.0994 77.7519 33.5042 77.4483C33.8522 77.1003 34.2698 76.8219 34.6874 76.6131C34.9658 76.5201 35.2442 76.4895 35.5226 76.4583C35.6618 76.4427 35.801 76.4277 35.9402 76.4043C36.7754 76.1955 37.4714 75.7779 38.0978 75.1515C38.4898 74.7597 38.8817 74.3673 39.2488 73.9629C39.2139 73.7319 39.1797 73.4997 39.1461 73.2675C37.7704 74.8041 36.8246 75.8475 35.1746 75.8475C34.3394 76.0563 33.5738 76.4739 32.9474 77.1003C32.6899 77.2935 32.4389 77.4867 32.1926 77.6817C32.2372 77.9211 32.272 78.1635 32.2966 78.4077Z" fill="#C4E4ED"/>
<path fill-rule="evenodd" clip-rule="evenodd" d="M87.8485 76.1571C86.0983 76.1571 84.6979 74.6259 83.5135 73.1925L83.5417 72.4707C83.7319 72.6867 83.8999 72.8841 84.0589 73.0695C84.6967 73.8189 85.1785 74.3841 86.3323 75.2199C86.6137 75.4239 87.0283 75.5679 87.4459 75.6375C88.7953 75.6375 89.6833 76.4007 91.0099 77.5569C90.9739 77.7375 90.9427 77.9193 90.9181 78.1029C90.3901 77.6673 89.8501 77.2389 89.3101 76.8531C88.8925 76.5051 88.4053 76.2267 87.8485 76.1571ZM95.3215 71.5497C95.0251 71.3265 94.5517 70.9701 93.7651 70.3803V70.3797C93.4867 70.2405 93.2083 69.9621 92.9995 69.6837C92.7907 69.1965 92.6515 68.7093 92.5819 68.1525C92.1931 66.7935 90.6061 64.0809 88.2667 62.1669C87.0643 61.1649 85.5391 60.2355 83.9275 59.5413L83.9203 59.9641C87.7135 61.6269 91.0819 64.8399 92.1793 68.6775C92.2489 69.1647 92.4577 69.6519 92.7361 70.0695C93.1537 70.4175 93.5713 70.7655 94.0585 71.0439C94.3861 71.2893 94.7131 71.5107 95.0407 71.7225C95.1331 71.6631 95.2267 71.6061 95.3215 71.5497ZM84.0355 63.0399C83.9761 63.0003 83.9173 62.9613 83.8579 62.9229C83.8633 62.7009 83.8687 62.4789 83.8741 62.2563C84.0223 62.3751 84.1693 62.4975 84.3139 62.6223C84.5923 62.8311 84.3139 63.1791 84.0355 63.0399Z" fill="#C4E4ED"/>
<path d="M68.4452 53.3644C68.3888 52.8058 68.0276 52.2508 67.5404 51.9724C66.9836 51.7636 66.4268 51.7636 65.87 51.9028C63.5384 52.4098 59.0954 52.3384 57.1694 51.9712C56.6126 51.7624 55.9862 51.6928 55.3598 51.7624C53.7086 52.2352 53.675 54.3154 55.0814 54.964C55.151 54.964 55.151 55.0336 55.2206 55.0336C56.0162 55.3318 57.0224 54.649 57.3782 56.4256C57.5348 56.8168 58.9094 61.1416 59.1092 61.6618C59.189 61.87 59.6588 61.6228 59.6336 61.4422C59.4992 60.4888 58.496 58.219 58.2134 57.1918C58.0208 56.491 57.7958 55.7998 57.4478 55.1038C57.0998 54.6166 56.543 54.3382 55.9166 54.4078C55.2206 54.4078 54.5246 53.9206 54.7334 53.155C55.0118 52.2502 55.9166 52.3894 56.6822 52.5286C58.931 53.1148 63.5516 53.116 65.8004 52.5292C66.4964 52.39 67.4708 52.2508 67.7492 53.1556C67.958 53.9212 67.262 54.4084 66.566 54.4084C66.0092 54.3388 65.4524 54.6172 65.1044 55.0348C64.313 56.6182 63.4982 60.3454 63.0734 61.3552C62.8922 61.7854 63.5402 61.7212 63.6194 61.5124C64.1456 60.1222 64.784 57.5062 65.3828 56.0092C65.4524 55.6612 65.6612 55.3828 65.9396 55.2436C66.2876 55.174 66.566 55.174 66.914 55.174C67.8188 55.1044 68.5364 54.2668 68.4452 53.3644Z" fill="#C4E4ED"/>
<path d="M32.4601 78.2127C32.1679 75.5811 30.3199 72.5487 27.3097 71.0439C27.0313 70.9047 26.753 70.8351 26.4746 70.9047C26.1266 71.0439 25.7786 71.2527 25.4306 71.4615C24.7664 71.7681 24.14 72.1125 23.5238 72.4941C21.0902 72.2193 17.6234 75.1623 7.75155 80.5101C7.68195 80.5797 7.81995 80.7855 7.96035 80.7189C12.2546 78.6729 16.5926 75.8463 20.6282 73.8285C21.3938 73.3413 22.2986 73.0629 23.2034 72.9237C24.317 73.0629 25.361 73.5501 26.1962 74.3157C27.9362 75.7077 29.0498 77.6565 29.4674 79.8147C29.6066 80.3019 29.6761 80.8587 29.6761 81.4155C29.7457 81.6939 29.7457 81.9723 29.6761 82.3203C29.6065 82.5291 29.4674 82.7379 29.2586 82.9467C28.9802 83.2947 28.7018 83.6427 28.3538 83.9211C22.9994 89.8497 20.1974 92.9385 16.2428 96.5889C15.8948 96.8673 16.382 97.2849 16.6604 97.0065C18.8606 95.1741 20.1554 93.6507 22.4372 91.3689C25.679 88.0221 27.5971 85.7523 29.6059 83.4339C29.8843 83.1555 30.0236 82.8771 30.1628 82.5291C30.1826 82.3683 30.1969 82.2075 30.2053 82.0467C31.1587 81.1887 31.5451 80.7501 32.1811 80.0229C32.5291 79.4661 32.6683 78.8397 32.4595 78.2133L32.4601 78.2127ZM30.5809 80.9967C30.4555 81.1083 30.3302 81.2139 30.2048 81.3165C30.0692 78.8727 29.0677 76.6425 27.5185 74.8719C26.4247 73.6683 24.887 72.8169 24.0506 72.5937C25.604 71.8695 25.724 71.5515 26.6828 71.3919C27.1004 71.4615 27.518 71.6007 27.866 71.8791C30.656 73.6839 31.9814 76.4793 32.042 78.9087C32.063 79.7439 31.2067 80.4399 30.5803 80.9967H30.5809Z" fill="#C4E4ED"/>
<path d="M113.478 78.3519C109.581 76.2339 102.222 73.0503 101.298 72.7143C100.799 72.5223 100.257 72.4575 99.7204 72.5079C98.8144 71.9475 97.3828 71.1441 97.0918 71.0049C96.8392 70.8837 96.5854 70.8057 96.3562 70.8345C95.7298 70.9737 95.1034 71.3217 94.6162 71.7393C93.1642 72.7755 92.1142 73.9983 91.2754 75.9153C91.0666 76.4721 90.8578 77.0985 90.7882 77.7249C90.649 78.3513 90.649 78.9777 90.7882 79.5345C91.1362 80.2305 91.693 80.7873 92.2498 81.2745C93.1534 82.2903 92.9032 81.6021 93.0154 82.3881C93.2242 82.8753 93.5722 83.3625 93.9202 83.7105C94.1506 83.9409 103.076 94.2177 106.518 96.8655C106.797 97.1439 107.284 96.6567 106.936 96.4479C105.266 94.9863 103.705 93.4185 102.203 91.7847C100.382 89.8035 96.3424 85.6287 94.3378 83.2233C93.9202 82.7361 93.5026 82.3881 93.5026 81.6921C93.5026 80.6481 93.7114 79.6737 93.9898 78.6993C94.5466 76.8201 95.7298 75.1497 97.3306 73.9665C98.0962 73.2705 99.1402 72.9225 100.184 72.7833C101.089 72.9225 101.994 73.2009 102.759 73.6881C106.309 75.2193 109.859 76.8201 113.339 78.4209C113.548 78.6297 113.687 78.4209 113.478 78.3513V78.3519ZM93.2242 79.5351C93.1024 80.3865 93.1036 79.8333 92.983 81.2073C92.8492 81.0951 92.7202 80.9799 92.5978 80.8575C92.041 80.3007 91.1146 79.6737 91.1362 78.7695C91.171 77.3067 91.6234 75.9159 92.389 74.7321C93.4216 72.8727 95.449 71.5113 96.5086 71.3349C96.883 71.3883 98.4334 72.2235 99.133 72.6093C96.5788 73.2555 93.9094 76.1073 93.2242 79.5345V79.5351Z" fill="#C4E4ED"/>
<path d="M73.5956 41.8107C69.74 31.5303 53.9348 30.9411 49.3736 40.9755C47.216 45.6387 48.8864 51.0681 51.392 55.3137C52.8608 57.7833 54.5204 60.0609 55.7594 62.5761C55.3544 62.6427 55.0658 62.7459 54.9416 63.1785C54.7328 64.3617 54.5936 65.5449 54.6632 66.7287C54.5936 68.0511 54.6632 69.3735 54.7328 70.6959C54.7328 70.8351 54.8024 70.9743 54.9416 70.9743C57.1802 71.4375 63.5924 71.9451 67.6094 71.1135C67.7486 71.0439 67.8182 70.9743 67.8182 70.8351C67.9364 68.5833 68.0012 65.5383 67.6094 63.3183C67.4738 62.8449 67.142 62.7657 66.74 62.6979C70.2008 56.0283 72.0728 55.3515 73.8038 49.1193C74.4998 46.6833 74.4302 44.1777 73.595 41.8107H73.5956ZM67.1228 64.0143C67.3238 66.1623 67.3952 68.3751 67.2752 70.5279C64.3502 71.1249 58.3748 71.0217 55.2758 70.3887C55.2266 69.5439 55.199 68.6895 55.1984 67.8339C58.7786 67.8543 64.532 68.0037 66.4958 68.0511C66.635 68.0511 66.7046 67.9119 66.7046 67.7727C66.7046 67.7031 66.635 67.6335 66.4958 67.5639C65.7854 67.5549 56.4812 67.3641 55.2014 67.3749C55.2098 66.6729 55.238 65.9715 55.2902 65.2731C57.1232 65.2653 58.9634 65.1153 60.8642 65.1153C66.011 65.1153 65.1308 65.2041 66.5654 65.2041C66.8438 65.2041 66.8438 64.7865 66.5654 64.7865C62.5202 64.4973 58.6304 64.6605 55.3184 64.9209C55.349 64.5711 55.3856 64.2219 55.4288 63.8751C55.4288 63.1191 55.5062 63.0399 56.4032 63.0399C60.4046 62.5395 65.4758 62.8887 66.9134 63.2487C67.0526 63.3879 67.0526 63.7359 67.1222 64.0143H67.1228ZM70.3244 55.5225C68.894 57.8391 66.9908 60.0573 66.1928 62.6307C61.3508 62.0541 60.4598 62.0367 56.3186 62.5065C55.0814 58.6875 51.7274 56.3037 49.583 49.6761C48.0758 45.0171 49.2248 39.9525 53.4806 36.7995C59.8496 32.1681 69.8096 34.3299 72.83 41.6019C74.7788 46.2651 72.7604 51.4857 70.3244 55.5225Z" fill="#C4E4ED"/>
<path d="M26.8021 73.2297C27.1047 73.2297 27.3499 72.9843 27.3499 72.6819C27.3499 72.3795 27.1047 72.1341 26.8021 72.1341C26.4996 72.1341 26.2543 72.3795 26.2543 72.6819C26.2543 72.9843 26.4996 73.2297 26.8021 73.2297Z" fill="#C4E4ED"/>
<path d="M96.1057 73.3306C96.4081 73.3306 96.6535 73.0852 96.6535 72.7828C96.6535 72.4804 96.4081 72.235 96.1057 72.235C95.8033 72.235 95.5579 72.4804 95.5579 72.7828C95.5579 73.0852 95.8033 73.3306 96.1057 73.3306Z" fill="#C4E4ED"/>
<path d="M44.0841 63.8049C44.0145 63.1785 43.5285 63.0291 43.0401 62.9697C42.3459 62.8857 41.6481 62.9001 40.9521 62.9697C38.1723 63.1017 35.0139 64.2393 32.7387 66.3801C32.5299 66.4497 32.6691 66.6585 32.8779 66.5889C34.1307 65.6841 35.5101 64.9581 36.9843 64.3617C39.1617 63.4809 40.9383 63.5265 42.6219 63.5265C43.0395 63.5265 43.5963 63.5961 43.2483 64.0833C41.6205 65.7105 39.5667 66.9255 37.1235 67.7025C36.9843 67.7721 36.9147 67.8417 36.9147 67.9809C36.9147 70.0263 36.0879 71.8569 34.7571 73.4097C34.3395 73.8969 33.7827 74.3145 33.2955 74.7321C33.0165 74.8719 33.3327 75.3831 33.6435 75.2193C34.2777 74.8851 34.8267 74.3835 35.2443 73.8273C36.6315 72.2415 37.4793 70.4937 37.5381 68.1957C39.5439 67.5633 41.3571 66.5427 43.0395 65.1963C43.4571 64.8483 44.1531 64.4307 44.0835 63.8043L44.0841 63.8049Z" fill="#C4E4ED"/>
<path fill-rule="evenodd" clip-rule="evenodd" d="M83.0619 32.4837C83.0619 32.2749 82.9227 32.1357 82.7139 32.1357C67.8561 30.1419 53.7033 29.6133 39.0033 32.5533C38.7159 32.5941 38.6409 32.8833 38.7279 33.0849C38.0607 37.2267 37.6509 44.4898 37.5417 48.841C37.4286 53.7608 37.4978 58.7935 37.8405 63.7972C38.1014 63.7216 38.3646 63.6532 38.6298 63.592C37.8451 52.8476 38.5258 43.9425 39.1367 35.9527C39.2071 35.0311 39.2767 34.1216 39.3429 33.223C47.5425 31.5993 53.7879 31.219 60.8913 31.252C60.8865 31.7328 60.9183 32.4157 60.9663 33.426C61.0785 35.7992 61.2759 39.9787 61.2759 47.5876C61.4505 62.0692 61.1685 66.8182 60.7317 74.1742C60.7059 74.608 60.6801 75.0508 60.6531 75.505C53.4514 75.8722 45.2503 76.399 41.4133 76.6456L41.4126 76.6462L41.3914 76.6474C40.9492 76.6756 40.5656 76.7002 40.2489 76.7206C39.6804 73.4332 39.2587 70.303 38.9547 67.312C38.6928 67.4248 38.4274 67.5316 38.159 67.6318C38.4726 70.8274 38.9084 73.996 39.4905 77.0998C39.5601 77.239 39.6297 77.3086 39.7689 77.3086C45.4761 76.9606 51.1143 76.6822 56.8215 76.4038L57.7448 76.3582C66.9261 75.904 74.9715 75.5062 83.4099 76.0558C83.6187 76.0558 83.7543 75.9166 83.7579 75.7078C83.7951 73.6822 83.8845 71.3782 83.9823 68.8474V68.8468C84.0027 68.3092 84.0243 67.7608 84.0453 67.2028C83.8719 67.1242 83.6997 67.0426 83.5293 66.958C83.4771 68.5798 83.3721 70.2112 83.2677 71.8408V71.8414C83.1927 73.0066 83.1183 74.1712 83.0625 75.3298C75.8637 74.9158 68.6649 75.1084 61.4847 75.4624C62.3937 63.7546 61.7721 34.9947 61.4847 31.2555C66.0957 31.2951 72.2505 31.5489 82.3203 32.8413C83.5575 42.8843 83.7909 53.2405 83.6103 63.3982C83.7999 63.4276 83.9889 63.4612 84.1767 63.4978C84.4641 54.5537 84.5523 43.6617 83.0619 32.4843V32.4837Z" fill="#C4E4ED"/>
<path d="M90.509 66.3111C88.5602 64.2927 85.637 63.2487 82.922 62.9703C82.226 62.9007 81.4604 62.8311 80.7644 62.9007C80.2772 62.9007 79.6508 62.9703 79.3724 63.3879C79.094 63.8055 79.5116 64.4319 79.8596 64.7103C81.5474 66.2631 83.5634 67.4229 85.7792 68.1267C85.8176 69.5103 86.1986 70.8405 86.8196 72.0189C87.4328 73.1817 88.5104 74.6079 89.6732 75.2205C89.8106 75.2931 89.9516 75.2901 90.0212 75.1509C90.0908 75.0117 90.0908 74.8725 89.9516 74.8029C89.4644 74.3157 88.9772 73.9677 88.49 73.4805C87.119 71.8809 86.438 70.0569 86.3324 68.0517C86.3324 67.9125 86.2628 67.7733 86.1236 67.7733C84.5924 67.2861 83.1308 66.5901 81.8084 65.6853C81.4604 65.4765 81.1124 65.1981 80.834 64.9197C80.486 64.7109 80.2076 64.4325 79.9988 64.1541C79.6508 63.6669 80.2772 63.5973 80.6252 63.5973C84.2618 63.5973 87.0134 64.2363 90.3692 66.6597C90.5084 66.6597 90.6476 66.4509 90.5084 66.3117L90.509 66.3111Z" fill="#C4E4ED"/>
</svg>
