<svg width="167" height="164" viewBox="0 0 167 164" fill="none" xmlns="http://www.w3.org/2000/svg">
<g clip-path="url(#clip0_9_4)">
<path fill-rule="evenodd" clip-rule="evenodd" d="M142.515 79.3985C142.483 79.3718 112.686 61.4466 107.142 55.8118C103.893 52.4952 103.06 53.8115 104.822 59.4189C108.167 69.9416 108.2 69.7727 102.841 69.5523C102.785 69.5544 43.8809 68.4412 35.1928 69.0149C32.8445 69.1579 31.3773 69.352 31.1595 69.6116C29.6106 71.4574 34.4561 75.9165 42.5167 79.9769C46.0317 81.7468 46.3716 81.1473 39.7807 84.8569C33.1336 88.5684 30.1195 91.6423 38.0935 92.6321C43.0011 93.2605 53.1443 93.2197 74.8979 92.9439C76.276 92.9208 107.84 93.2593 109.153 93.5739C110.169 93.7877 110.057 100.722 110.721 105.113C111.283 108.976 113.642 111.152 117.917 107.612C123.817 102.783 127.931 99.3047 134.979 94.209C148.591 84.3988 149.029 83.4884 142.515 79.3985ZM139.611 82.8596C139.587 82.8884 115.425 100.607 115.369 100.609C115.089 100.619 114.189 94.1137 114.169 91.9348C114.15 89.7558 111.405 87.8456 107.953 87.5545C93.9399 86.3136 46.0948 87.501 46.0386 87.5031C46.5215 87.1219 49.321 85.1458 50.2549 84.3567C52.9598 82.1047 49.3086 78.9426 42.3039 75.1784C39.3487 73.5834 110.398 74.8609 110.454 74.8588C112.822 75.4696 112.912 72.2527 110.787 65.6528C109.756 62.4774 109.756 62.4774 116.651 67.2797C139.704 83.3311 140.216 82.1385 139.611 82.8596Z" fill="white"/>
</g>
<defs>
<clipPath id="clip0_9_4">
<rect width="127.13" height="106.491" fill="white" transform="translate(69.2231 0.260254) rotate(40)"/>
</clipPath>
</defs>
</svg>
