<svg width="516" height="67" viewBox="0 0 516 67" fill="none" xmlns="http://www.w3.org/2000/svg">
<path d="M10.456 50.808V16.632L6.424 16.952L0.024 13.752V3L31.896 0.183998L38.296 3.384V14.136L27.864 15.032V52.92L16.856 53.944L10.456 50.808ZM31.256 10.36V0.887997L0.664 3.576V13.048L11.096 12.152V50.104L20.824 49.272V11.256L31.256 10.36ZM59.4725 50.68V30.584C58.9178 31.224 58.5765 31.864 58.4485 32.504V53.752L48.7205 54.648L42.3205 51.448V2.872L52.6885 1.976L59.0885 5.176V14.648C59.2165 14.648 59.3445 14.648 59.4725 14.648C59.6005 14.6053 59.7285 14.584 59.8565 14.584C60.0698 14.584 60.2618 14.584 60.4325 14.584C60.6458 14.5413 60.8592 14.52 61.0725 14.52C62.9925 14.52 64.8485 14.84 66.6405 15.48C68.4752 16.0773 70.1178 16.9307 71.5685 18.04C73.0192 19.1067 74.1712 20.408 75.0245 21.944C75.8778 23.4373 76.3045 25.08 76.3045 26.872V52.92L65.8725 53.816L59.4725 50.68ZM69.2645 23.672C69.2645 20.728 68.4752 18.5733 66.8965 17.208C65.3178 15.8427 63.3765 15.16 61.0725 15.16C60.9018 15.16 60.7098 15.16 60.4965 15.16C60.3258 15.16 60.1338 15.1813 59.9205 15.224C57.9152 15.3947 56.2512 16.056 54.9285 17.208C53.6485 18.3173 52.7738 19.5973 52.3045 21.048H52.0485V2.68L42.9605 3.448V50.808L52.0485 50.04V29.24C52.2618 28.1733 52.7738 27.2133 53.5845 26.36C54.3952 25.5067 55.3978 25.0373 56.5925 24.952H56.9765C57.8725 24.952 58.6192 25.272 59.2165 25.912C59.8138 26.5093 60.1125 27.4907 60.1125 28.856V49.976L69.2645 49.144V23.672ZM117.457 42.424C116.305 46.008 114.598 48.9093 112.337 51.128C110.118 53.3467 107.089 54.6267 103.249 54.968C102.779 55.0107 102.31 55.032 101.841 55.032C101.414 55.0747 100.966 55.096 100.497 55.096C96.7845 55.096 93.4352 54.328 90.4485 52.792C87.5045 51.2987 85.1578 49.0373 83.4085 46.008C81.6592 42.9787 80.7845 39.224 80.7845 34.744C80.7845 30.8187 81.4458 27.4267 82.7685 24.568C84.1338 21.7093 85.9685 19.4693 88.2725 17.848C90.6192 16.184 93.2858 15.224 96.2725 14.968C96.5712 14.9253 96.8698 14.904 97.1685 14.904C97.5098 14.904 97.8298 14.904 98.1285 14.904C100.518 14.904 102.865 15.3307 105.169 16.184C107.515 16.9947 109.627 18.2747 111.505 20.024C113.425 21.7733 114.939 24.0347 116.049 26.808C117.201 29.5387 117.777 32.824 117.777 36.664C117.777 37.0053 117.777 37.368 117.777 37.752C117.777 38.0933 117.755 38.4347 117.713 38.776L110.993 39.352L117.457 42.424ZM102.353 37.496C101.969 38.9467 101.265 40.1413 100.241 41.08C99.2165 42.0187 97.8938 42.5733 96.2725 42.744H95.7605C94.3098 42.744 93.1152 42.2107 92.1765 41.144C91.2378 40.0773 90.7685 38.6053 90.7685 36.728L110.673 35C110.715 34.5733 110.737 34.168 110.737 33.784C110.737 33.3573 110.737 32.952 110.737 32.568C110.737 27.192 109.585 23.0107 107.281 20.024C104.977 17.0373 101.798 15.544 97.7445 15.544C97.5312 15.544 97.2965 15.544 97.0405 15.544C96.8272 15.544 96.5925 15.5653 96.3365 15.608C93.4778 15.8213 90.9178 16.7387 88.6565 18.36C86.3952 19.9387 84.6245 22.1147 83.3445 24.888C82.0645 27.6613 81.4245 30.9467 81.4245 34.744C81.4245 40.248 82.6618 44.3653 85.1365 47.096C87.6112 49.8267 90.8965 51.192 94.9925 51.192C95.2912 51.192 95.5898 51.192 95.8885 51.192C96.1872 51.192 96.4858 51.1707 96.7845 51.128C100.454 50.8293 103.355 49.6347 105.489 47.544C107.665 45.4533 109.222 42.8507 110.161 39.736L102.353 37.496ZM91.0885 29.56C91.0885 28.152 91.5792 26.936 92.5605 25.912C93.5418 24.888 94.8005 24.312 96.3365 24.184H96.9125C98.1925 24.184 99.2378 24.568 100.049 25.336C100.902 26.0613 101.329 27.1707 101.329 28.664L91.0885 29.56ZM96.2725 40.696C96.2725 40.9093 96.3578 41.1227 96.5285 41.336C96.7418 41.5493 96.9552 41.7627 97.1685 41.976C97.9365 41.7627 98.5338 41.5067 98.9605 41.208C99.3872 40.9093 99.7498 40.6107 100.049 40.312L96.2725 40.696ZM166.054 50.424L161.254 39.608V53.944L150.246 54.904L143.846 51.704V3.064L154.214 2.168L160.614 5.368L165.35 15.608V1.848L176.486 0.823997L182.886 4.024V52.728L172.454 53.624L166.054 50.424ZM165.99 2.424V20.344C165.99 20.8133 166.011 21.5813 166.054 22.648C166.097 23.672 166.139 24.76 166.182 25.912C166.267 27.0213 166.331 27.9813 166.374 28.792C166.417 29.56 166.438 29.944 166.438 29.944L166.246 30.072C166.246 30.072 166.182 29.8373 166.054 29.368C165.969 28.8987 165.819 28.344 165.606 27.704C165.393 27.0213 165.158 26.4027 164.902 25.848L153.83 2.872L144.486 3.64V51L154.214 50.232V33.464C154.214 32.952 154.193 32.0773 154.15 30.84C154.107 29.6027 154.065 28.3013 154.022 26.936C154.022 25.5707 154.001 24.4187 153.958 23.48C153.915 22.4987 153.894 22.008 153.894 22.008L154.086 21.944C154.086 21.944 154.193 22.3707 154.406 23.224C154.662 24.0347 155.003 24.888 155.43 25.784L166.63 49.784L175.846 48.952V1.528L165.99 2.424ZM190.328 50.808V15.608L194.68 15.288L190.2 13.048V2.168L200.888 1.272L207.288 4.472V15.352L202.744 15.736L207.096 17.912V53.048L196.728 53.944L190.328 50.808ZM190.84 2.744V12.344L200.248 11.576V1.976L190.84 2.744ZM190.968 16.184V50.104L200.056 49.336V15.416L190.968 16.184ZM214.596 52.728C215.236 52.7707 215.876 52.792 216.516 52.792C217.156 52.792 217.775 52.792 218.372 52.792C219.737 52.792 220.996 52.7493 222.148 52.664C223.3 52.6213 224.281 52.5573 225.092 52.472C225.476 52.4293 225.839 52.3653 226.18 52.28C226.564 52.2373 226.927 52.1947 227.268 52.152C225.135 51.768 223.129 51.2133 221.252 50.488C219.417 49.72 217.796 48.6533 216.388 47.288C215.023 45.88 213.935 44.024 213.124 41.72C212.356 39.416 211.972 36.5147 211.972 33.016C211.972 28.7067 212.612 25.2507 213.892 22.648C215.172 20.0027 216.793 18.0613 218.756 16.824C220.761 15.544 222.831 14.8187 224.964 14.648C225.22 14.6053 225.476 14.584 225.732 14.584C225.988 14.584 226.223 14.584 226.436 14.584C227.844 14.584 229.06 14.7973 230.084 15.224C231.108 15.608 231.876 16.0987 232.388 16.696L233.156 14.712L242.052 13.944L248.452 17.144V50.36C248.452 53.688 247.876 56.4187 246.724 58.552C245.572 60.6853 243.631 62.3493 240.9 63.544C238.169 64.7813 234.457 65.6773 229.764 66.232C229.081 66.3173 228.185 66.3813 227.076 66.424C226.009 66.4667 224.985 66.488 224.004 66.488L217.604 63.288L214.596 52.728ZM233.54 15.352L232.324 19C232.025 17.6347 231.364 16.6747 230.34 16.12C229.359 15.5227 228.1 15.224 226.564 15.224C226.351 15.224 226.095 15.224 225.796 15.224C225.54 15.224 225.284 15.2453 225.028 15.288C222.98 15.4587 220.996 16.1627 219.076 17.4C217.199 18.5947 215.641 20.472 214.404 23.032C213.209 25.5493 212.612 28.8773 212.612 33.016C212.612 37.0267 213.103 40.1627 214.084 42.424C215.108 44.6853 216.452 46.2853 218.116 47.224C219.78 48.1627 221.593 48.632 223.556 48.632C223.769 48.632 224.004 48.632 224.26 48.632C224.516 48.632 224.751 48.6107 224.964 48.568C227.993 48.2693 230.425 47.0533 232.26 44.92V47.928C232.26 49.592 231.663 50.808 230.468 51.576C229.273 52.344 227.503 52.856 225.156 53.112C223.364 53.3253 221.209 53.432 218.692 53.432C218.137 53.432 217.583 53.432 217.028 53.432C216.473 53.432 215.94 53.4107 215.428 53.368L218.116 62.648C218.841 62.648 219.716 62.6267 220.74 62.584C221.764 62.5413 222.617 62.4773 223.3 62.392C227.823 61.8373 231.407 60.984 234.052 59.832C236.697 58.68 238.575 57.08 239.684 55.032C240.836 52.984 241.412 50.36 241.412 47.16V14.648L233.54 15.352ZM232.26 33.528C232.26 35.4053 231.791 36.8773 230.852 37.944C229.913 39.0107 228.825 39.5867 227.588 39.672C227.46 39.672 227.332 39.6933 227.204 39.736C227.076 39.736 226.948 39.736 226.82 39.736C225.327 39.736 224.175 39.2027 223.364 38.136C222.553 37.0693 222.148 35.192 222.148 32.504C222.148 30.2853 222.361 28.5787 222.788 27.384C223.257 26.1467 223.876 25.272 224.644 24.76C225.412 24.2053 226.265 23.8853 227.204 23.8H227.652C228.932 23.8 229.935 24.184 230.66 24.952C231.385 25.6773 231.919 26.3387 232.26 26.936V33.528ZM231.62 28.344C231.108 28.344 230.66 28.536 230.276 28.92C229.935 29.304 229.657 30.0293 229.444 31.096C229.273 32.12 229.188 33.656 229.188 35.704C229.188 36.728 229.252 37.624 229.38 38.392C230.873 37.624 231.62 36.0027 231.62 33.528V28.344ZM271.598 50.68V30.584C271.043 31.224 270.702 31.864 270.574 32.504V53.752L260.845 54.648L254.446 51.448V2.872L264.814 1.976L271.214 5.176V14.648C271.342 14.648 271.47 14.648 271.598 14.648C271.726 14.6053 271.854 14.584 271.982 14.584C272.195 14.584 272.387 14.584 272.558 14.584C272.771 14.5413 272.984 14.52 273.198 14.52C275.118 14.52 276.974 14.84 278.766 15.48C280.6 16.0773 282.243 16.9307 283.694 18.04C285.144 19.1067 286.296 20.408 287.15 21.944C288.003 23.4373 288.43 25.08 288.43 26.872V52.92L277.998 53.816L271.598 50.68ZM281.39 23.672C281.39 20.728 280.6 18.5733 279.022 17.208C277.443 15.8427 275.502 15.16 273.198 15.16C273.027 15.16 272.835 15.16 272.622 15.16C272.451 15.16 272.259 15.1813 272.046 15.224C270.04 15.3947 268.376 16.056 267.054 17.208C265.774 18.3173 264.899 19.5973 264.43 21.048H264.174V2.68L255.086 3.448V50.808L264.174 50.04V29.24C264.387 28.1733 264.899 27.2133 265.71 26.36C266.52 25.5067 267.523 25.0373 268.718 24.952H269.102C269.998 24.952 270.744 25.272 271.342 25.912C271.939 26.5093 272.238 27.4907 272.238 28.856V49.976L281.39 49.144V23.672ZM319.406 54.008C318.424 54.0507 317.464 54.0933 316.526 54.136C315.63 54.2213 314.755 54.264 313.902 54.264C307.843 54.264 303.363 53.1547 300.462 50.936C297.56 48.7173 296.11 45.0693 296.11 39.992V27.768L292.014 25.72V16.056L296.11 15.736V5.304L306.478 4.344L312.878 7.544V14.904L318.19 17.528V27.192L312.878 27.64V40.504L315.054 40.312L321.454 43.512L319.406 54.008ZM314.222 41.08C313.283 41.1653 312.451 41.2507 311.726 41.336C311.043 41.3787 310.403 41.4 309.806 41.4C308.014 41.4 306.904 41.08 306.478 40.44C306.051 39.8 305.838 38.6907 305.838 37.112V23.864L311.15 23.416V15.032L305.838 15.48V5.048L296.75 5.88V16.312L292.654 16.632V25.016L296.75 24.696V39.992C296.75 42.552 297.07 44.6 297.71 46.136C298.35 47.672 299.438 48.7813 300.974 49.464C302.552 50.1467 304.728 50.488 307.502 50.488C308.227 50.488 308.995 50.4667 309.806 50.424C310.616 50.3813 311.491 50.3173 312.43 50.232L314.222 41.08ZM349.324 31.288C351.841 32.5253 353.868 34.0613 355.404 35.896C356.982 37.7307 357.772 39.864 357.772 42.296C357.772 45.9227 356.62 48.824 354.316 51C352.054 53.2187 348.641 54.52 344.076 54.904C343.692 54.9467 343.308 54.968 342.924 54.968C342.54 55.0107 342.156 55.032 341.772 55.032C337.164 55.032 333.217 53.88 329.932 51.576C326.689 49.272 324.385 46.0933 323.02 42.04L331.212 37.048C328.993 36.024 327.308 34.7653 326.156 33.272C325.004 31.736 324.428 29.7947 324.428 27.448V27.256C324.47 25.1227 325.004 23.16 326.028 21.368C327.052 19.576 328.524 18.104 330.444 16.952C332.364 15.7573 334.646 15.0533 337.292 14.84C337.633 14.7973 337.953 14.776 338.252 14.776C338.593 14.776 338.913 14.776 339.212 14.776C341.174 14.776 343.158 15.0533 345.164 15.608C347.169 16.12 349.046 16.9093 350.796 17.976C352.545 19 353.996 20.3227 355.148 21.944C356.3 23.5227 357.004 25.3787 357.26 27.512L349.324 31.288ZM337.036 42.68C335.628 42.68 334.39 42.2107 333.324 41.272C332.3 40.3333 331.553 39.2027 331.084 37.88L323.852 42.36C325.772 48.2053 329.74 51.128 335.756 51.128C336.054 51.128 336.353 51.128 336.652 51.128C336.993 51.128 337.313 51.1067 337.612 51.064C341.964 50.7227 345.228 49.528 347.404 47.48C349.622 45.3893 350.732 42.5947 350.732 39.096C350.732 36.024 349.964 33.7413 348.428 32.248C346.934 30.712 344.289 29.6027 340.492 28.92L337.164 28.344C336.012 28.1307 335.094 27.896 334.412 27.64C333.772 27.3413 333.452 26.808 333.452 26.04V25.848C333.537 25.1653 333.9 24.5893 334.54 24.12C335.18 23.6507 336.14 23.3733 337.42 23.288H337.932C339.169 23.288 340.236 23.672 341.132 24.44C342.07 25.1653 342.689 26.1467 342.988 27.384L350.092 23.992C349.537 21.2613 348.321 19.1493 346.444 17.656C344.566 16.1627 342.113 15.416 339.083 15.416C338.785 15.416 338.486 15.416 338.188 15.416C337.932 15.416 337.654 15.4373 337.356 15.48C334.838 15.6933 332.641 16.3547 330.764 17.464C328.929 18.5733 327.521 19.9813 326.54 21.688C325.558 23.352 325.068 25.208 325.068 27.256C325.068 30.1147 325.814 32.2907 327.308 33.784C328.801 35.2347 331.169 36.1947 334.412 36.664L338.06 37.176C339.425 37.3467 340.406 37.688 341.003 38.2C341.644 38.712 341.964 39.3307 341.964 40.056C341.964 40.8667 341.601 41.4853 340.876 41.912C340.15 42.296 339.02 42.552 337.484 42.68H337.036ZM342.284 27C342.156 26.9573 341.942 26.936 341.644 26.936C341.089 26.936 340.577 27.0853 340.108 27.384C339.638 27.6827 339.34 27.9387 339.212 28.152C340.321 28.3227 341.388 28.5573 342.412 28.856C343.478 29.112 344.481 29.4107 345.42 29.752L342.54 28.28L342.284 27ZM337.804 40.12C337.932 40.4187 338.06 40.7387 338.188 41.08C338.316 41.3787 338.465 41.656 338.635 41.912C340.172 41.6987 341.046 41.2507 341.26 40.568C341.26 40.568 341.174 40.4827 341.003 40.312C340.876 40.1413 340.726 40.0347 340.556 39.992C339.233 39.6507 337.996 39.3307 336.844 39.032C335.692 38.7333 334.625 38.4133 333.644 38.072L337.804 40.12ZM381.286 30.84V18.744L392.102 17.784L398.502 20.984V33.08L387.686 34.04L381.286 30.84ZM381.926 19.32V30.136L391.462 29.304V18.488L381.926 19.32ZM381.286 51.96V39.928L392.102 38.968L398.502 42.168V54.264L387.686 55.16L381.286 51.96ZM381.926 40.504V51.256L391.462 50.488V39.672L381.926 40.504ZM444.622 17.208C444.494 16.696 444.366 16.2267 444.238 15.8C444.11 15.3733 443.982 14.968 443.854 14.584C442.915 14.84 442.147 15.288 441.55 15.928C440.953 16.568 440.654 17.2933 440.654 18.104C440.654 18.8293 440.739 19.4267 440.91 19.896L442.702 20.408C444.878 21.048 447.075 21.8587 449.294 22.84C451.513 23.7787 453.539 24.9307 455.374 26.296C457.251 27.6187 458.766 29.1973 459.918 31.032C461.07 32.824 461.646 34.872 461.646 37.176C461.646 42.424 460.174 46.584 457.23 49.656C454.329 52.728 450.211 54.4987 444.878 54.968C444.537 55.0107 444.174 55.032 443.79 55.032C443.449 55.0747 443.107 55.096 442.766 55.096C441.145 55.096 439.481 54.8613 437.774 54.392C436.067 53.9653 434.318 53.2827 432.526 52.344C430.435 51.192 428.686 50.0613 427.278 48.952C425.87 47.8 424.718 46.392 423.822 44.728C422.969 43.064 422.243 40.9093 421.646 38.264L432.334 34.168L438.734 37.368C438.99 38.4773 439.289 39.4373 439.63 40.248C442.233 39.864 443.534 38.5627 443.534 36.344C443.534 36.0027 443.491 35.704 443.406 35.448C443.363 35.1493 443.299 34.872 443.214 34.616C443.214 34.616 442.958 34.4667 442.446 34.168C441.934 33.8693 441.465 33.6773 441.038 33.592C436.899 32.568 433.465 31.352 430.734 29.944C428.046 28.536 426.041 26.744 424.718 24.568C423.438 22.392 422.798 19.64 422.798 16.312C422.798 13.496 423.459 10.936 424.782 8.632C426.105 6.28533 427.939 4.38667 430.286 2.936C432.675 1.44267 435.406 0.567998 438.478 0.311996C438.862 0.26933 439.225 0.247997 439.566 0.247997C439.95 0.205331 440.313 0.183998 440.654 0.183998C442.574 0.183998 444.259 0.439997 445.71 0.951996C447.203 1.464 448.91 2.168 450.83 3.064C452.793 3.96 454.435 4.96266 455.758 6.072C457.081 7.18133 458.169 8.568 459.022 10.232C459.918 11.8533 460.665 13.944 461.262 16.504L451.022 20.408L444.622 17.208ZM438.158 41.016C436.451 41.016 435.086 40.504 434.062 39.48C433.038 38.456 432.291 36.984 431.822 35.064L422.35 38.648C423.331 42.872 424.953 46.0293 427.214 48.12C429.475 50.168 432.526 51.192 436.366 51.192C436.707 51.192 437.049 51.192 437.39 51.192C437.731 51.192 438.073 51.1707 438.414 51.128C443.534 50.7013 447.502 48.9947 450.318 46.008C453.177 43.0213 454.606 39.0107 454.606 33.976C454.606 30.392 453.603 27.6187 451.598 25.656C449.593 23.6933 446.563 22.1573 442.51 21.048L437.39 19.64C435.854 19.2133 434.83 18.5947 434.318 17.784C433.849 16.9733 433.614 16.0133 433.614 14.904C433.614 13.7947 434.041 12.8347 434.894 12.024C435.747 11.2133 436.878 10.744 438.286 10.616C438.457 10.616 438.606 10.616 438.734 10.616C438.905 10.5733 439.075 10.552 439.246 10.552C440.825 10.552 442.062 11 442.958 11.896C443.897 12.7493 444.601 14.2427 445.07 16.376L454.094 12.92C453.198 8.86666 451.662 5.85866 449.486 3.896C447.353 1.89066 444.409 0.887997 440.654 0.887997C440.313 0.887997 439.95 0.887997 439.566 0.887997C439.225 0.887997 438.883 0.90933 438.542 0.951996C435.555 1.208 432.931 2.04 430.67 3.448C428.409 4.856 426.638 6.66933 425.358 8.888C424.078 11.1067 423.438 13.5813 423.438 16.312C423.438 20.0667 424.27 23.0533 425.934 25.272C427.641 27.4907 430.649 29.1547 434.958 30.264L438.926 31.288C440.547 31.7147 441.827 32.2693 442.766 32.952C443.705 33.6347 444.174 34.7653 444.174 36.344C444.174 39.1173 442.403 40.6747 438.862 41.016H438.158ZM497.628 50.936V23.864L492.252 21.176L488.348 12.088C489.841 11.2773 491.313 10.2747 492.764 9.08C494.257 7.84267 495.58 6.584 496.732 5.304C497.926 4.024 498.758 2.936 499.228 2.04L508.7 1.272L515.1 4.472V53.176L504.028 54.072L497.628 50.936ZM499.612 2.68C499.185 3.49066 498.396 4.536 497.244 5.816C496.092 7.05333 494.79 8.29066 493.34 9.528C491.889 10.7227 490.481 11.6827 489.116 12.408L492.508 20.28L498.268 16.952V50.232L508.06 49.4V1.976L499.612 2.68Z" fill="#C4E4ED"/>
</svg>
