<svg width="94" height="68" viewBox="0 0 94 68" fill="none" xmlns="http://www.w3.org/2000/svg">
<path d="M37.4575 34.7504C38.3755 35.5805 39.8633 35.5805 40.7813 34.7504L42.4425 33.2483C43.3604 32.4182 43.3604 31.0728 42.4425 30.2427L37.1961 25.5L42.441 20.7559C43.359 19.9259 43.359 18.5805 42.441 17.7504L40.7798 16.2483C39.8619 15.4182 38.374 15.4182 37.4561 16.2483L28.8874 23.9966C27.9694 24.8266 27.9694 26.172 28.8874 27.0021L37.4575 34.7504ZM51.559 33.2496L53.2202 34.7517C54.1381 35.5818 55.626 35.5818 56.5439 34.7517L65.1126 27.0034C66.0306 26.1734 66.0306 24.828 65.1126 23.9979L56.5439 16.2496C55.626 15.4195 54.1381 15.4195 53.2202 16.2496L51.559 17.7517C50.641 18.5818 50.641 19.9272 51.559 20.7573L56.8039 25.5L51.559 30.2441C50.641 31.0741 50.641 32.4195 51.559 33.2496ZM91.65 55.25H56.0387C55.93 57.881 53.8782 59.5 51.23 59.5H42.3C39.5549 59.5 37.4502 57.1798 37.4869 55.25H2.35C1.0575 55.25 0 56.2063 0 57.375V59.5C0 64.175 4.23 68 9.4 68H84.6C89.77 68 94 64.175 94 59.5V57.375C94 56.2063 92.9425 55.25 91.65 55.25ZM84.6 6.375C84.6 2.86875 81.4275 0 77.55 0H16.45C12.5725 0 9.4 2.86875 9.4 6.375V51H84.6V6.375ZM75.2 42.5H18.8V8.5H75.2V42.5Z" fill="#C4E4ED"/>
</svg>
