<svg width="667" height="100" viewBox="0 0 667 100" fill="none" xmlns="http://www.w3.org/2000/svg">
<path d="M56.81 92.115L53.475 75.9L48.875 97.52L29.67 99.13L18.17 93.38L0 7.475L20.815 5.74999L32.315 11.5L34.845 25.07L38.985 5.17499L57.27 3.68L68.31 9.42999L71.875 26.795L76.36 2.98999L94.99 1.37999L106.49 7.13L88.78 96.255L68.31 97.98L56.81 92.115ZM77.28 4.13999L68.31 52.9C68.2333 53.59 68.1183 54.4717 67.965 55.545C67.8883 56.6183 67.8117 57.615 67.735 58.535C67.6583 59.3783 67.62 59.8 67.62 59.8H67.275C67.275 59.8 67.2367 59.3783 67.16 58.535C67.0833 57.6917 66.9683 56.7333 66.815 55.66C66.6617 54.51 66.5083 53.6283 66.355 53.015L56.235 4.945L39.905 6.32499L30.935 51.29C30.7817 52.21 30.59 53.3983 30.36 54.855C30.13 56.3117 29.9383 57.6533 29.785 58.88C29.7083 60.03 29.67 60.605 29.67 60.605H29.325C29.325 60.605 29.2867 60.0683 29.21 58.995C29.1333 57.845 28.98 56.5417 28.75 55.085C28.5967 53.5517 28.405 52.21 28.175 51.06L19.78 7.015L1.38 8.625L19.09 92.115L36.34 90.735L46.23 44.735C46.3833 43.9683 46.5367 42.8183 46.69 41.285C46.92 39.675 47.0733 38.18 47.15 36.8C47.3033 35.42 47.38 34.73 47.38 34.73L47.725 34.615C47.725 34.615 47.7633 35.305 47.84 36.685C47.9933 37.9883 48.1467 39.445 48.3 41.055C48.53 42.5883 48.7217 43.7383 48.875 44.505L57.73 91.08L76.245 89.47L93.495 2.76L77.28 4.13999ZM114.274 92.92V5.52L163.839 1.15L175.339 6.9V25.76L145.439 28.405V35.305L157.744 34.155L169.244 39.905V58.535L145.439 60.72V71.53L165.794 69.69L177.294 75.44V94.185L125.774 98.67L114.274 92.92ZM132.789 73.83V53.935L156.594 51.75V35.42L132.789 37.605V21.62L162.689 18.975V2.41499L115.424 6.555V91.77L164.644 87.4V70.955L132.789 73.83ZM187.272 92.805V5.405L206.937 3.68L218.437 9.42999V70.725L234.537 69.345L246.037 75.095V94.53L198.772 98.555L187.272 92.805ZM205.787 73.025V4.945L188.422 6.44V91.655L233.387 87.745V70.61L205.787 73.025ZM299.548 34.73C299.011 33.4267 298.436 32.2 297.823 31.05C297.286 29.9 296.711 28.8267 296.098 27.83C290.731 28.4433 286.86 31.0883 284.483 35.765C282.106 40.4417 280.918 46.5367 280.918 54.05C280.918 62.33 282.068 68.5017 284.368 72.565C284.598 72.4883 284.943 72.45 285.403 72.45C287.703 72.22 289.658 71.3767 291.268 69.92C292.955 68.3867 294.373 66.5083 295.523 64.285C296.75 61.985 297.746 59.57 298.513 57.04L326.458 71.185C323.698 79.465 320.018 86.02 315.418 90.85C310.818 95.68 304.416 98.44 296.213 99.13C295.6 99.2067 294.948 99.245 294.258 99.245C293.645 99.245 293.031 99.245 292.418 99.245C287.051 99.245 281.761 98.2867 276.548 96.37C271.411 94.53 266.773 91.6167 262.633 87.63C258.57 83.6433 255.311 78.545 252.858 72.335C250.405 66.0483 249.178 58.535 249.178 49.795C249.178 43.355 249.983 37.2983 251.593 31.625C253.203 25.875 255.541 20.815 258.608 16.445C261.751 12.075 265.508 8.54833 269.878 5.865C274.325 3.105 279.346 1.495 284.943 1.035C285.556 0.958329 286.17 0.919994 286.783 0.919994C287.396 0.919994 288.01 0.919994 288.623 0.919994C294.756 0.919994 300.315 2.22333 305.298 4.83C310.358 7.43666 314.69 10.8867 318.293 15.18C321.973 19.4733 324.771 24.2267 326.688 29.44L311.048 40.48L299.548 34.73ZM299.203 58.765C298.513 60.9883 297.555 63.2117 296.328 65.435C295.101 67.6583 293.606 69.5367 291.843 71.07C290.08 72.5267 287.971 73.37 285.518 73.6C285.211 73.6767 284.866 73.715 284.483 73.715C284.176 73.715 283.831 73.715 283.448 73.715C278.541 73.715 274.785 71.7217 272.178 67.735C269.571 63.7483 268.268 57.27 268.268 48.3C268.268 40.25 269.571 33.81 272.178 28.98C274.785 24.15 279.001 21.4667 284.828 20.93H286.093C289.85 20.93 292.763 22.1183 294.833 24.495C296.98 26.8717 298.705 29.7083 300.008 33.005L313.808 23.345C312.428 19.665 310.626 16.215 308.403 12.995C306.256 9.775 303.496 7.16833 300.123 5.17499C296.826 3.10499 292.763 2.06999 287.933 2.06999C287.473 2.06999 287.013 2.06999 286.553 2.06999C286.093 2.06999 285.595 2.10833 285.058 2.185C279.615 2.645 274.746 4.21666 270.453 6.9C266.16 9.50666 262.518 12.9567 259.528 17.25C256.538 21.5433 254.238 26.4883 252.628 32.085C251.095 37.605 250.328 43.5083 250.328 49.795C250.328 58.535 251.593 66.0867 254.123 72.45C256.73 78.8133 260.371 83.72 265.048 87.17C269.801 90.62 275.321 92.345 281.608 92.345C282.068 92.345 282.528 92.345 282.988 92.345C283.525 92.345 284.061 92.3067 284.598 92.23C292.571 91.6167 298.743 89.01 303.113 84.41C307.56 79.7333 311.048 73.6383 313.578 66.125L299.203 58.765ZM380.907 99.13C380.37 99.2067 379.795 99.245 379.182 99.245C378.645 99.245 378.109 99.245 377.572 99.245C373.585 99.245 369.905 98.67 366.532 97.52C363.235 96.4467 360.015 95.1817 356.872 93.725C348.669 89.6617 342.65 83.95 338.817 76.59C335.06 69.1533 333.182 60.3367 333.182 50.14C333.182 44.16 333.91 38.3717 335.367 32.775C336.9 27.1017 339.162 22.0033 342.152 17.48C345.142 12.88 348.86 9.12333 353.307 6.20999C357.83 3.29666 363.12 1.57166 369.177 1.035C369.79 0.958329 370.365 0.919994 370.902 0.919994C371.439 0.919994 371.975 0.919994 372.512 0.919994C376.345 0.919994 379.757 1.41833 382.747 2.41499C385.737 3.335 388.765 4.40833 391.832 5.63499C397.352 7.85833 401.952 11.155 405.632 15.525C409.312 19.895 412.072 25.0317 413.912 30.935C415.752 36.7617 416.672 43.01 416.672 49.68C416.672 55.89 415.944 61.8317 414.487 67.505C413.03 73.1783 410.807 78.315 407.817 82.915C404.904 87.4383 401.185 91.1183 396.662 93.955C392.215 96.8683 386.964 98.5933 380.907 99.13ZM369.292 92.23C375.195 91.77 380.332 90.16 384.702 87.4C389.072 84.5633 392.675 80.9217 395.512 76.475C398.349 71.9517 400.457 66.93 401.837 61.41C403.294 55.8133 404.022 49.9867 404.022 43.93C404.022 38.41 403.37 33.1583 402.067 28.175C400.84 23.115 398.924 18.63 396.317 14.72C393.71 10.81 390.414 7.74333 386.427 5.52C382.517 3.21999 377.879 2.06999 372.512 2.06999C371.975 2.06999 371.439 2.06999 370.902 2.06999C370.442 2.06999 369.905 2.10833 369.292 2.185C363.389 2.72166 358.252 4.40833 353.882 7.24499C349.512 10.005 345.87 13.6467 342.957 18.17C340.044 22.6167 337.859 27.6 336.402 33.12C335.022 38.5633 334.332 44.2367 334.332 50.14C334.332 55.89 334.984 61.3333 336.287 66.47C337.59 71.53 339.545 76.015 342.152 79.925C344.759 83.7583 348.055 86.7867 352.042 89.01C356.029 91.2333 360.667 92.345 365.957 92.345C366.57 92.345 367.145 92.345 367.682 92.345C368.219 92.345 368.755 92.3067 369.292 92.23ZM369.292 74.405C368.985 74.405 368.679 74.4433 368.372 74.52C368.142 74.52 367.874 74.52 367.567 74.52C362.967 74.52 359.325 72.5267 356.642 68.54C354.035 64.5533 352.732 57.8833 352.732 48.53C352.732 41.86 353.46 36.4933 354.917 32.43C356.374 28.3667 358.367 25.3767 360.897 23.46C363.427 21.4667 366.225 20.355 369.292 20.125C369.599 20.125 369.905 20.125 370.212 20.125C370.519 20.0483 370.825 20.01 371.132 20.01C375.655 20.01 379.182 21.965 381.712 25.875C384.242 29.7083 385.507 36.3017 385.507 45.655C385.507 55.6217 383.974 62.8283 380.907 67.275C377.917 71.645 374.045 74.0217 369.292 74.405ZM368.947 73.255C373.47 72.8717 377.15 70.5717 379.987 66.355C382.9 62.1383 384.357 55.2383 384.357 45.655C384.357 41.285 384.089 37.5667 383.552 34.5C383.015 31.4333 382.21 28.9417 381.137 27.025C380.754 26.9483 380.37 26.91 379.987 26.91C379.604 26.8333 379.22 26.795 378.837 26.795C374.314 26.795 370.94 29.1717 368.717 33.925C366.494 38.6017 365.382 45.3867 365.382 54.28C365.382 58.7267 365.689 62.5217 366.302 65.665C366.915 68.7317 367.797 71.2617 368.947 73.255ZM488.091 93.035L486.826 96.945L467.161 98.67L457.386 93.84V98.325L439.216 99.935L427.716 94.185V6.78499L450.256 4.71499L461.756 10.465L470.956 44.735L481.536 4.255L503.961 2.41499L515.461 8.165V95.68L496.371 97.175L488.091 93.035ZM482.456 5.405L467.851 61.755C467.621 62.675 467.391 63.7483 467.161 64.975C466.931 66.125 466.74 67.16 466.586 68.08C466.433 69 466.356 69.46 466.356 69.46L465.896 69.575C465.896 69.575 465.82 69.115 465.666 68.195C465.59 67.275 465.436 66.2017 465.206 64.975C465.053 63.7483 464.861 62.7133 464.631 61.87L449.336 5.98L428.866 7.81999V92.92L444.736 91.655V54.855C444.736 53.245 444.698 51.5583 444.621 49.795C444.545 47.955 444.468 46.4217 444.391 45.195C444.315 43.9683 444.276 43.355 444.276 43.355L444.506 43.24C444.66 44.3133 444.851 45.655 445.081 47.265C445.388 48.7983 445.695 50.2933 446.001 51.75C446.385 53.13 446.653 54.2033 446.806 54.97L456.466 91.77L474.291 90.16L483.721 54.855C484.181 53.0917 484.603 51.2517 484.986 49.335C485.37 47.3417 485.676 45.655 485.906 44.275C486.136 42.895 486.251 42.205 486.251 42.205L486.481 42.32C486.481 42.32 486.443 43.01 486.366 44.39C486.29 45.77 486.213 47.38 486.136 49.22C486.06 51.06 486.021 52.7083 486.021 54.165V90.275L502.811 88.895V3.68L482.456 5.405ZM530.138 92.92V5.52L579.703 1.15L591.203 6.9V25.76L561.303 28.405V35.305L573.608 34.155L585.108 39.905V58.535L561.303 60.72V71.53L581.658 69.69L593.158 75.44V94.185L541.638 98.67L530.138 92.92ZM548.653 73.83V53.935L572.458 51.75V35.42L548.653 37.605V21.62L578.553 18.975V2.41499L531.288 6.555V91.77L580.508 87.4V70.955L548.653 73.83ZM635.832 93.495V72.335L645.837 71.53L636.752 67.045V6.095L654.117 4.485L665.617 10.235V71.185L657.567 71.99L666.537 76.475V97.75L647.332 99.245L635.832 93.495ZM637.902 7.13V65.78L652.967 64.4V5.74999L637.902 7.13ZM636.982 73.37V92.23L653.887 90.965V71.99L636.982 73.37Z" fill="white"/>
</svg>
