<svg width="253" height="387" viewBox="0 0 253 387" fill="none" xmlns="http://www.w3.org/2000/svg">
<path d="M53.882 82.103L50.895 67.58L46.775 86.944L29.574 88.386L19.274 83.236L3 6.295L21.643 4.74999L31.943 9.9L34.209 22.054L37.917 4.23499L54.294 2.896L64.182 8.04599L67.375 23.599L71.392 2.27799L88.078 0.835995L98.378 5.986L82.516 85.811L64.182 87.356L53.882 82.103ZM72.216 3.30799L64.182 46.98C64.1133 47.598 64.0103 48.3877 63.873 49.349C63.8043 50.3103 63.7357 51.203 63.667 52.027C63.5983 52.7823 63.564 53.16 63.564 53.16H63.255C63.255 53.16 63.2207 52.7823 63.152 52.027C63.0833 51.2717 62.9803 50.4133 62.843 49.452C62.7057 48.422 62.5683 47.6323 62.431 47.083L53.367 4.029L38.741 5.26499L30.707 45.538C30.5697 46.362 30.398 47.4263 30.192 48.731C29.986 50.0357 29.8143 51.2373 29.677 52.336C29.6083 53.366 29.574 53.881 29.574 53.881H29.265C29.265 53.881 29.2307 53.4003 29.162 52.439C29.0933 51.409 28.956 50.2417 28.75 48.937C28.6127 47.5637 28.441 46.362 28.235 45.332L20.716 5.883L4.236 7.325L20.098 82.103L35.548 80.867L44.406 39.667C44.5433 38.9803 44.6807 37.9503 44.818 36.577C45.024 35.135 45.1613 33.796 45.23 32.56C45.3673 31.324 45.436 30.706 45.436 30.706L45.745 30.603C45.745 30.603 45.7793 31.221 45.848 32.457C45.9853 33.6243 46.1227 34.929 46.26 36.371C46.466 37.7443 46.6377 38.7743 46.775 39.461L54.706 81.176L71.289 79.734L86.739 2.072L72.216 3.30799ZM140.061 81.279V53.881L133.366 54.499V86.738L115.65 88.283L105.35 83.133V4.853L123.066 3.30799L133.366 8.458V31.633L140.061 31.015V2.896L157.88 1.248L168.18 6.398V84.781L150.361 86.326L140.061 81.279ZM141.091 3.82299V31.942L122.036 33.59V4.441L106.38 5.78V82L122.036 80.764V48.422L141.091 46.774V80.146L156.85 78.704V2.38099L141.091 3.82299ZM220.842 88.386C220.361 88.4547 219.846 88.489 219.297 88.489C218.816 88.489 218.335 88.489 217.855 88.489C214.284 88.489 210.988 87.974 207.967 86.944C205.014 85.9827 202.13 84.8497 199.315 83.545C191.967 79.9057 186.577 74.79 183.144 68.198C179.779 61.5373 178.097 53.6407 178.097 44.508C178.097 39.152 178.749 33.9677 180.054 28.955C181.427 23.8737 183.453 19.3073 186.131 15.256C188.809 11.136 192.139 7.77133 196.122 5.16199C200.173 2.55266 204.911 1.00766 210.336 0.526999C210.885 0.458329 211.4 0.423994 211.881 0.423994C212.361 0.423994 212.842 0.423994 213.323 0.423994C216.756 0.423994 219.812 0.870328 222.49 1.763C225.168 2.587 227.88 3.54833 230.627 4.647C235.571 6.63833 239.691 9.59099 242.987 13.505C246.283 17.419 248.755 22.0197 250.403 27.307C252.051 32.5257 252.875 38.122 252.875 44.096C252.875 49.658 252.222 54.9797 250.918 60.061C249.613 65.1423 247.622 69.743 244.944 73.863C242.334 77.9143 239.004 81.2103 234.953 83.751C230.97 86.3603 226.266 87.9053 220.842 88.386ZM210.439 82.206C215.726 81.794 220.327 80.352 224.241 77.88C228.155 75.3393 231.382 72.0777 233.923 68.095C236.463 64.0437 238.352 59.546 239.588 54.602C240.892 49.5893 241.545 44.3707 241.545 38.946C241.545 34.002 240.961 29.2983 239.794 24.835C238.695 20.303 236.978 16.286 234.644 12.784C232.309 9.28199 229.356 6.53533 225.786 4.544C222.284 2.48399 218.129 1.45399 213.323 1.45399C212.842 1.45399 212.361 1.45399 211.881 1.45399C211.469 1.45399 210.988 1.48833 210.439 1.557C205.151 2.03766 200.551 3.54833 196.637 6.089C192.723 8.561 189.461 11.8227 186.852 15.874C184.242 19.8567 182.285 24.32 180.981 29.264C179.745 34.1393 179.127 39.2207 179.127 44.508C179.127 49.658 179.71 54.5333 180.878 59.134C182.045 63.666 183.796 67.683 186.131 71.185C188.465 74.6183 191.418 77.3307 194.989 79.322C198.559 81.3133 202.714 82.309 207.452 82.309C208.001 82.309 208.516 82.309 208.997 82.309C209.477 82.309 209.958 82.2747 210.439 82.206ZM210.439 66.241C210.164 66.241 209.889 66.2753 209.615 66.344C209.409 66.344 209.168 66.344 208.894 66.344C204.774 66.344 201.512 64.5587 199.109 60.988C196.774 57.4173 195.607 51.4433 195.607 43.066C195.607 37.092 196.259 32.2853 197.564 28.646C198.868 25.0067 200.654 22.3287 202.92 20.612C205.186 18.8267 207.692 17.831 210.439 17.625C210.713 17.625 210.988 17.625 211.263 17.625C211.537 17.5563 211.812 17.522 212.087 17.522C216.138 17.522 219.297 19.273 221.563 22.775C223.829 26.2083 224.962 32.1137 224.962 40.491C224.962 49.4177 223.588 55.8723 220.842 59.855C218.164 63.769 214.696 65.8977 210.439 66.241ZM210.13 65.211C214.181 64.8677 217.477 62.8077 220.018 59.031C222.627 55.2543 223.932 49.0743 223.932 40.491C223.932 36.577 223.691 33.2467 223.211 30.5C222.73 27.7533 222.009 25.5217 221.048 23.805C220.704 23.7363 220.361 23.702 220.018 23.702C219.674 23.6333 219.331 23.599 218.988 23.599C214.936 23.599 211.915 25.7277 209.924 29.985C207.932 34.1737 206.937 40.2507 206.937 48.216C206.937 52.1987 207.211 55.5977 207.761 58.413C208.31 61.1597 209.1 63.4257 210.13 65.211ZM45.642 229.764L41.831 217.507L33.694 218.228L28.647 236.253L11.137 237.798L0.837 232.648L23.394 152.205L40.389 150.763L50.689 155.913L73.658 233.472L55.942 234.914L45.642 229.764ZM24.218 153.235L2.382 231.412L17.42 230.176L22.57 212.151L40.904 210.503L46.363 228.734L61.916 227.395L39.565 151.896L24.218 153.235ZM26.175 197.113C27.4797 192.856 28.544 188.804 29.368 184.959C30.2607 181.114 31.016 177.268 31.634 173.423H32.046C32.5953 177.2 33.282 180.908 34.106 184.547C34.9987 188.118 36.063 191.963 37.299 196.083L26.175 197.113ZM114.024 229.97L106.711 216.786V235.532L88.9945 237.077L78.6945 231.927V153.647L104.548 151.381C105.097 151.312 105.612 151.278 106.093 151.278C106.642 151.278 107.157 151.278 107.638 151.278C111.62 151.278 115.466 151.896 119.174 153.132C122.882 154.368 126.212 156.188 129.165 158.591C132.117 160.994 134.452 163.913 136.169 167.346C137.885 170.711 138.744 174.556 138.744 178.882C138.744 189.8 134.761 197.662 126.796 202.469L144.203 233.472L124.324 235.12L114.024 229.97ZM115.054 196.907C119.311 194.572 122.435 191.482 124.427 187.637C126.418 183.792 127.414 179.157 127.414 173.732C127.414 167.346 125.628 162.196 122.058 158.282C118.556 154.299 113.612 152.308 107.226 152.308C106.814 152.308 106.402 152.308 105.99 152.308C105.578 152.308 105.131 152.342 104.651 152.411L79.7245 154.574V230.897L95.3805 229.558V202.366L99.8095 201.954L114.539 228.94L132.152 227.395L115.054 196.907ZM95.3805 168.067L102.179 167.449H103.312C105.578 167.449 107.466 168.136 108.977 169.509C110.556 170.814 111.346 173.114 111.346 176.41C111.346 179.843 110.522 182.521 108.874 184.444C107.226 186.298 104.994 187.362 102.179 187.637L95.3805 188.255V168.067ZM106.711 185.062C109.114 183.345 110.316 180.461 110.316 176.41C110.316 175.929 110.281 175.483 110.213 175.071C110.213 174.659 110.178 174.247 110.11 173.835L106.711 174.144V185.062ZM150.211 231.824V153.544L194.604 149.63L204.904 154.78V171.672L178.124 174.041V180.221L189.145 179.191L199.445 184.341V201.027L178.124 202.984V212.666L196.355 211.018L206.655 216.168V232.957L160.511 236.974L150.211 231.824ZM166.794 214.726V196.907L188.115 194.95V180.324L166.794 182.281V167.964L193.574 165.595V150.763L151.241 154.471V230.794L195.325 226.88V212.151L166.794 214.726ZM53.882 380.103L50.895 365.58L46.775 384.944L29.574 386.386L19.274 381.236L3 304.295L21.643 302.75L31.943 307.9L34.209 320.054L37.917 302.235L54.294 300.896L64.182 306.046L67.375 321.599L71.392 300.278L88.078 298.836L98.378 303.986L82.516 383.811L64.182 385.356L53.882 380.103ZM72.216 301.308L64.182 344.98C64.1133 345.598 64.0103 346.388 63.873 347.349C63.8043 348.31 63.7357 349.203 63.667 350.027C63.5983 350.782 63.564 351.16 63.564 351.16H63.255C63.255 351.16 63.2207 350.782 63.152 350.027C63.0833 349.272 62.9803 348.413 62.843 347.452C62.7057 346.422 62.5683 345.632 62.431 345.083L53.367 302.029L38.741 303.265L30.707 343.538C30.5697 344.362 30.398 345.426 30.192 346.731C29.986 348.036 29.8143 349.237 29.677 350.336C29.6083 351.366 29.574 351.881 29.574 351.881H29.265C29.265 351.881 29.2307 351.4 29.162 350.439C29.0933 349.409 28.956 348.242 28.75 346.937C28.6127 345.564 28.441 344.362 28.235 343.332L20.716 303.883L4.236 305.325L20.098 380.103L35.548 378.867L44.406 337.667C44.5433 336.98 44.6807 335.95 44.818 334.577C45.024 333.135 45.1613 331.796 45.23 330.56C45.3673 329.324 45.436 328.706 45.436 328.706L45.745 328.603C45.745 328.603 45.7793 329.221 45.848 330.457C45.9853 331.624 46.1227 332.929 46.26 334.371C46.466 335.744 46.6377 336.774 46.775 337.461L54.706 379.176L71.289 377.734L86.739 300.072L72.216 301.308ZM105.35 380.824V302.544L149.743 298.63L160.043 303.78V320.672L133.263 323.041V329.221L144.284 328.191L154.584 333.341V350.027L133.263 351.984V361.666L151.494 360.018L161.794 365.168V381.957L115.65 385.974L105.35 380.824ZM121.933 363.726V345.907L143.254 343.95V329.324L121.933 331.281V316.964L148.713 314.595V299.763L106.38 303.471V379.794L150.464 375.88V361.151L121.933 363.726Z" fill="white"/>
</svg>
