<svg width="1414" height="1712" viewBox="0 0 1414 1712" fill="none" xmlns="http://www.w3.org/2000/svg">
<path d="M0 86C0 71.0883 12.0883 59 27 59H1387C1401.91 59 1414 71.0883 1414 86V546H0V86Z" fill="#0C0C0C" fill-opacity="0.54"/>
<path d="M0 546H1414V1685C1414 1699.91 1401.91 1712 1387 1712H27C12.0883 1712 0 1699.91 0 1685V546Z" fill="#0C0C0C" fill-opacity="0.54"/>
<path d="M78.81 170.115L75.475 153.9L70.875 175.52L51.67 177.13L40.17 171.38L22 85.475L42.815 83.75L54.315 89.5L56.845 103.07L60.985 83.175L79.27 81.68L90.31 87.43L93.875 104.795L98.36 80.99L116.99 79.38L128.49 85.13L110.78 174.255L90.31 175.98L78.81 170.115ZM99.28 82.14L90.31 130.9C90.2333 131.59 90.1183 132.472 89.965 133.545C89.8883 134.618 89.8117 135.615 89.735 136.535C89.6583 137.378 89.62 137.8 89.62 137.8H89.275C89.275 137.8 89.2367 137.378 89.16 136.535C89.0833 135.692 88.9683 134.733 88.815 133.66C88.6617 132.51 88.5083 131.628 88.355 131.015L78.235 82.945L61.905 84.325L52.935 129.29C52.7817 130.21 52.59 131.398 52.36 132.855C52.13 134.312 51.9383 135.653 51.785 136.88C51.7083 138.03 51.67 138.605 51.67 138.605H51.325C51.325 138.605 51.2867 138.068 51.21 136.995C51.1333 135.845 50.98 134.542 50.75 133.085C50.5967 131.552 50.405 130.21 50.175 129.06L41.78 85.015L23.38 86.625L41.09 170.115L58.34 168.735L68.23 122.735C68.3833 121.968 68.5367 120.818 68.69 119.285C68.92 117.675 69.0733 116.18 69.15 114.8C69.3033 113.42 69.38 112.73 69.38 112.73L69.725 112.615C69.725 112.615 69.7633 113.305 69.84 114.685C69.9933 115.988 70.1467 117.445 70.3 119.055C70.53 120.588 70.7217 121.738 70.875 122.505L79.73 169.08L98.245 167.47L115.495 80.76L99.28 82.14ZM175.029 169.195V138.605L167.554 139.295V175.29L147.774 177.015L136.274 171.265V83.865L156.054 82.14L167.554 87.89V113.765L175.029 113.075V81.68L194.924 79.84L206.424 85.59V173.105L186.529 174.83L175.029 169.195ZM176.179 82.715V114.11L154.904 115.95V83.405L137.424 84.9V170L154.904 168.62V132.51L176.179 130.67V167.93L193.774 166.32V81.105L176.179 82.715ZM265.221 177.13C264.685 177.207 264.11 177.245 263.496 177.245C262.96 177.245 262.423 177.245 261.886 177.245C257.9 177.245 254.22 176.67 250.846 175.52C247.55 174.447 244.33 173.182 241.186 171.725C232.983 167.662 226.965 161.95 223.131 154.59C219.375 147.153 217.496 138.337 217.496 128.14C217.496 122.16 218.225 116.372 219.681 110.775C221.215 105.102 223.476 100.003 226.466 95.48C229.456 90.88 233.175 87.1233 237.621 84.21C242.145 81.2967 247.435 79.5717 253.491 79.035C254.105 78.9583 254.68 78.92 255.216 78.92C255.753 78.92 256.29 78.92 256.826 78.92C260.66 78.92 264.071 79.4183 267.061 80.415C270.051 81.335 273.08 82.4083 276.146 83.635C281.666 85.8583 286.266 89.155 289.946 93.525C293.626 97.895 296.386 103.032 298.226 108.935C300.066 114.762 300.986 121.01 300.986 127.68C300.986 133.89 300.258 139.832 298.801 145.505C297.345 151.178 295.121 156.315 292.131 160.915C289.218 165.438 285.5 169.118 280.976 171.955C276.53 174.868 271.278 176.593 265.221 177.13ZM253.606 170.23C259.51 169.77 264.646 168.16 269.016 165.4C273.386 162.563 276.99 158.922 279.826 154.475C282.663 149.952 284.771 144.93 286.151 139.41C287.608 133.813 288.336 127.987 288.336 121.93C288.336 116.41 287.685 111.158 286.381 106.175C285.155 101.115 283.238 96.63 280.631 92.72C278.025 88.81 274.728 85.7433 270.741 83.52C266.831 81.22 262.193 80.07 256.826 80.07C256.29 80.07 255.753 80.07 255.216 80.07C254.756 80.07 254.22 80.1083 253.606 80.185C247.703 80.7217 242.566 82.4083 238.196 85.245C233.826 88.005 230.185 91.6467 227.271 96.17C224.358 100.617 222.173 105.6 220.716 111.12C219.336 116.563 218.646 122.237 218.646 128.14C218.646 133.89 219.298 139.333 220.601 144.47C221.905 149.53 223.86 154.015 226.466 157.925C229.073 161.758 232.37 164.787 236.356 167.01C240.343 169.233 244.981 170.345 250.271 170.345C250.885 170.345 251.46 170.345 251.996 170.345C252.533 170.345 253.07 170.307 253.606 170.23ZM253.606 152.405C253.3 152.405 252.993 152.443 252.686 152.52C252.456 152.52 252.188 152.52 251.881 152.52C247.281 152.52 243.64 150.527 240.956 146.54C238.35 142.553 237.046 135.883 237.046 126.53C237.046 119.86 237.775 114.493 239.231 110.43C240.688 106.367 242.681 103.377 245.211 101.46C247.741 99.4667 250.54 98.355 253.606 98.125C253.913 98.125 254.22 98.125 254.526 98.125C254.833 98.0483 255.14 98.01 255.446 98.01C259.97 98.01 263.496 99.965 266.026 103.875C268.556 107.708 269.821 114.302 269.821 123.655C269.821 133.622 268.288 140.828 265.221 145.275C262.231 149.645 258.36 152.022 253.606 152.405ZM253.261 151.255C257.785 150.872 261.465 148.572 264.301 144.355C267.215 140.138 268.671 133.238 268.671 123.655C268.671 119.285 268.403 115.567 267.866 112.5C267.33 109.433 266.525 106.942 265.451 105.025C265.068 104.948 264.685 104.91 264.301 104.91C263.918 104.833 263.535 104.795 263.151 104.795C258.628 104.795 255.255 107.172 253.031 111.925C250.808 116.602 249.696 123.387 249.696 132.28C249.696 136.727 250.003 140.522 250.616 143.665C251.23 146.732 252.111 149.262 253.261 151.255ZM69.61 335.62L65.355 321.935L56.27 322.74L50.635 342.865L31.085 344.59L19.585 338.84L44.77 249.025L63.745 247.415L75.245 253.165L100.89 339.76L81.11 341.37L69.61 335.62ZM45.69 250.175L21.31 337.46L38.1 336.08L43.85 315.955L64.32 314.115L70.415 334.47L87.78 332.975L62.825 248.68L45.69 250.175ZM47.875 299.165C49.3317 294.412 50.52 289.888 51.44 285.595C52.4367 281.302 53.28 277.008 53.97 272.715H54.43C55.0433 276.932 55.81 281.072 56.73 285.135C57.7267 289.122 58.915 293.415 60.295 298.015L47.875 299.165ZM145.958 335.85L137.793 321.13V342.06L118.013 343.785L106.513 338.035V250.635L135.378 248.105C135.992 248.028 136.567 247.99 137.103 247.99C137.717 247.99 138.292 247.99 138.828 247.99C143.275 247.99 147.568 248.68 151.708 250.06C155.848 251.44 159.567 253.472 162.863 256.155C166.16 258.838 168.767 262.097 170.683 265.93C172.6 269.687 173.558 273.98 173.558 278.81C173.558 291 169.112 299.778 160.218 305.145L179.653 339.76L157.458 341.6L145.958 335.85ZM147.108 298.935C151.862 296.328 155.35 292.878 157.573 288.585C159.797 284.292 160.908 279.117 160.908 273.06C160.908 265.93 158.915 260.18 154.928 255.81C151.018 251.363 145.498 249.14 138.368 249.14C137.908 249.14 137.448 249.14 136.988 249.14C136.528 249.14 136.03 249.178 135.493 249.255L107.663 251.67V336.885L125.143 335.39V305.03L130.088 304.57L146.533 334.7L166.198 332.975L147.108 298.935ZM125.143 266.735L132.733 266.045H133.998C136.528 266.045 138.637 266.812 140.323 268.345C142.087 269.802 142.968 272.37 142.968 276.05C142.968 279.883 142.048 282.873 140.208 285.02C138.368 287.09 135.877 288.278 132.733 288.585L125.143 289.275V266.735ZM137.793 285.71C140.477 283.793 141.818 280.573 141.818 276.05C141.818 275.513 141.78 275.015 141.703 274.555C141.703 274.095 141.665 273.635 141.588 273.175L137.793 273.52V285.71ZM186.362 337.92V250.52L235.927 246.15L247.427 251.9V270.76L217.527 273.405V280.305L229.832 279.155L241.332 284.905V303.535L217.527 305.72V316.53L237.882 314.69L249.382 320.44V339.185L197.862 343.67L186.362 337.92ZM204.877 318.83V298.935L228.682 296.75V280.42L204.877 282.605V266.62L234.777 263.975V247.415L187.512 251.555V336.77L236.732 332.4V315.955L204.877 318.83ZM78.81 504.115L75.475 487.9L70.875 509.52L51.67 511.13L40.17 505.38L22 419.475L42.815 417.75L54.315 423.5L56.845 437.07L60.985 417.175L79.27 415.68L90.31 421.43L93.875 438.795L98.36 414.99L116.99 413.38L128.49 419.13L110.78 508.255L90.31 509.98L78.81 504.115ZM99.28 416.14L90.31 464.9C90.2333 465.59 90.1183 466.472 89.965 467.545C89.8883 468.618 89.8117 469.615 89.735 470.535C89.6583 471.378 89.62 471.8 89.62 471.8H89.275C89.275 471.8 89.2367 471.378 89.16 470.535C89.0833 469.692 88.9683 468.733 88.815 467.66C88.6617 466.51 88.5083 465.628 88.355 465.015L78.235 416.945L61.905 418.325L52.935 463.29C52.7817 464.21 52.59 465.398 52.36 466.855C52.13 468.312 51.9383 469.653 51.785 470.88C51.7083 472.03 51.67 472.605 51.67 472.605H51.325C51.325 472.605 51.2867 472.068 51.21 470.995C51.1333 469.845 50.98 468.542 50.75 467.085C50.5967 465.552 50.405 464.21 50.175 463.06L41.78 419.015L23.38 420.625L41.09 504.115L58.34 502.735L68.23 456.735C68.3833 455.968 68.5367 454.818 68.69 453.285C68.92 451.675 69.0733 450.18 69.15 448.8C69.3033 447.42 69.38 446.73 69.38 446.73L69.725 446.615C69.725 446.615 69.7633 447.305 69.84 448.685C69.9933 449.988 70.1467 451.445 70.3 453.055C70.53 454.588 70.7217 455.738 70.875 456.505L79.73 503.08L98.245 501.47L115.495 414.76L99.28 416.14ZM136.274 504.92V417.52L185.839 413.15L197.339 418.9V437.76L167.439 440.405V447.305L179.744 446.155L191.244 451.905V470.535L167.439 472.72V483.53L187.794 481.69L199.294 487.44V506.185L147.774 510.67L136.274 504.92ZM154.789 485.83V465.935L178.594 463.75V447.42L154.789 449.605V433.62L184.689 430.975V414.415L137.424 418.555V503.77L186.644 499.4V482.955L154.789 485.83Z" fill="#D9D9D9" fill-opacity="0.76"/>
<path d="M334.624 477.822V405.897L363.394 403.431L339.967 391.512C339.145 386.032 338.597 381.374 338.323 377.538C338.049 373.428 337.912 370.003 337.912 367.263C337.912 349.179 341.063 332.876 347.365 318.354C353.941 303.832 362.983 290.68 374.491 278.898L325.582 272.733L284.482 252.183C285.852 223.687 294.072 200.671 309.142 183.135C324.212 165.599 345.995 155.461 374.491 152.721C376.409 152.447 378.19 152.31 379.834 152.31C381.478 152.31 383.122 152.31 384.766 152.31C396 152.31 405.864 153.954 414.358 157.242C423.126 160.256 432.99 164.229 443.95 169.161C461.76 176.833 475.46 186.697 485.05 198.753C494.914 210.535 499.846 226.153 499.846 245.607C499.846 261.499 496.832 276.569 490.804 290.817C484.776 305.065 474.501 318.902 459.979 332.328C452.033 339.726 445.868 348.494 441.484 358.632C437.1 368.496 434.908 378.634 434.908 389.046C434.908 391.238 435.045 393.704 435.319 396.444C435.593 399.184 436.278 402.883 437.374 407.541L418.057 409.185L441.484 420.693V492.618L375.724 498.372L334.624 477.822ZM390.931 383.292C390.109 378.36 389.698 373.428 389.698 368.496C389.698 357.262 391.89 346.439 396.274 336.027C400.932 325.615 407.508 316.573 416.002 308.901C430.25 296.023 440.251 282.597 446.005 268.623C451.759 254.649 454.636 240.127 454.636 225.057C454.636 204.233 448.334 187.656 435.73 175.326C423.4 162.722 406.275 156.42 384.355 156.42C382.711 156.42 381.067 156.42 379.423 156.42C378.053 156.42 376.546 156.557 374.902 156.831C347.502 159.297 326.541 168.887 312.019 185.601C297.771 202.041 289.962 223.139 288.592 248.895L338.734 255.06C341.2 227.66 352.434 213.138 372.436 211.494H376.135C383.807 211.494 389.835 213.549 394.219 217.659C398.603 221.769 400.795 227.112 400.795 233.688C400.795 241.36 399.288 249.032 396.274 256.704C393.534 264.102 388.739 270.952 381.889 277.254C369.833 289.036 360.106 302.325 352.708 317.121C345.584 331.917 342.022 348.631 342.022 367.263C342.022 373.291 342.433 380.004 343.255 387.402L390.931 383.292ZM397.507 233.688C391.479 233.688 386.958 237.524 383.944 245.196C380.93 252.868 379.149 262.869 378.601 275.199C383.533 269.993 387.78 263.828 391.342 256.704C395.178 249.58 397.233 241.908 397.507 233.688ZM338.734 409.596V473.712L396.274 468.78V404.664L338.734 409.596Z" fill="#D9D9D9" fill-opacity="0.72"/>
</svg>
